<?xml version="1.0" encoding="utf-8"?>
<!-- Generator: Adobe Illustrator 22.0.1, SVG Export Plug-In . SVG Version: 6.00 Build 0)  -->
<svg version="1.1" xmlns="http://www.w3.org/2000/svg" xmlns:xlink="http://www.w3.org/1999/xlink" x="0px" y="0px"
	 viewBox="0 0 111.8 12.2" style="enable-background:new 0 0 111.8 12.2;" xml:space="preserve">
<style type="text/css">
	.st0{fill:#F1F1F2;}
	.st1{fill:#EDE3D3;}
	.st2{fill:#FBE7E4;}
	.st3{fill:#FBE2E0;}
	.st4{fill:#FDEDEC;}
	.st5{fill:#F5C4BD;}
	.st6{fill:#FADDD9;}
	.st7{fill:#FAE0DE;}
	.st8{fill:#F9D9D4;}
	.st9{fill:#F8D3D0;}
	.st10{fill:#F8D6D1;}
	.st11{fill:#F9D9D6;}
	.st12{fill:#FADFDB;}
	.st13{fill:#F6CAC4;}
	.st14{fill:#FCE9E6;}
	.st15{fill:#FCEBE8;}
	.st16{fill:#F6C6C0;}
	.st17{fill:#FBE4E2;}
	.st18{fill:#F7CCC8;}
	.st19{fill:#F9DCD8;}
	.st20{fill:#FCEBEA;}
	.st21{fill:#FAE0DC;}
	.st22{fill:#F7D0CB;}
	.st23{fill:#F9D6D3;}
	.st24{fill:#F5C1BA;}
	.st25{fill:#F6C8C2;}
	.st26{fill:#F4BFB8;}
	.st27{fill:#F8D3CE;}
	.st28{fill:#F7CCC6;}
	.st29{fill:#F7CEC9;}
	.st30{fill:#F5C5BF;}
	.st31{fill:#F5C2BC;}
	.st32{fill:#F8D1CC;}
	.st33{fill:#F5C4BE;}
	.st34{fill:#F4BEB7;}
	.st35{fill:#F3B9B2;}
	.st36{fill:#FBE4E0;}
	.st37{fill:#FDEFEE;}
	.st38{fill:#FDEEED;}
	.st39{fill:#F3B9B1;}
	.st40{fill:#F4BBB4;}
	.st41{fill:#F7D1CB;}
	.st42{fill:#F9DAD7;}
	.st43{fill:#F3B8B0;}
	.st44{fill:#F2B3AC;}
	.st45{fill:#F3B5AD;}
	.st46{fill:#F2B2AA;}
	.st47{fill:#233878;}
</style>
<g id="Слой_1">
</g>
<g id="Слой_2">
	<path class="st47" d="M111.3,5.2l-8.7-5.1c-0.5-0.3-1.1-0.1-1.4,0.4c-0.3,0.5-0.1,1.1,0.4,1.4l5.5,3.2H1c-0.6,0-1,0.4-1,1
		s0.4,1,1,1h106.2l-5.5,3.3c-0.5,0.3-0.6,0.9-0.3,1.4c0.2,0.3,0.5,0.5,0.9,0.5c0.2,0,0.4,0,0.5-0.1l8.7-5.2c0.3-0.2,0.5-0.5,0.5-0.9
		S111.6,5.4,111.3,5.2z"/>
</g>
</svg>
