<svg width="507" height="580" viewBox="0 0 507 580" fill="none" xmlns="http://www.w3.org/2000/svg">
    <g opacity="0.15">
        <path opacity="0.3" d="M-139 -4V524.385C-139 524.385 -24.5912 627.969 69.7069 550.733C164.005 473.497 180.14 441.531 272.568 432.942C545.682 375.546 504.834 -4 504.834 -4H-139Z" fill="url(#paint0_linear)"/>
        <path opacity="0.1" d="M360.72 433.042L317.119 440.945C316.483 441.09 315.918 441.67 315.918 442.322C315.918 442.975 316.413 443.41 317.119 443.337L360.72 435.434C361.356 435.289 361.922 434.709 361.922 434.057C361.922 433.404 361.356 432.969 360.72 433.042Z" fill="black"/>
        <path d="M249.074 413.374L41.7631 446.181C37.6885 446.814 34.3867 444.074 34.3867 439.999V298.725C34.3867 294.65 37.6885 290.857 41.7631 290.224L249.074 257.417C254.132 256.574 258.909 260.859 258.909 264.934L256.38 404.874C256.38 408.878 253.078 412.742 249.074 413.374Z" fill="#989999"/>
        <path d="M251.532 414.709L44.2216 447.516C40.147 448.148 36.8452 445.409 36.8452 441.334V300.059C36.8452 295.985 40.147 292.191 44.2216 291.559L251.532 258.752C255.607 258.12 258.909 260.859 258.909 264.934V406.209C258.909 410.213 255.607 414.077 251.532 414.709Z" fill="#1B1B1B"/>
        <path d="M251.532 403.328L44.2214 436.136V304.345C44.2214 301.535 46.4695 298.935 49.2795 298.514L246.474 267.252C249.284 266.831 251.532 268.728 251.532 271.467V403.328Z" fill="url(#paint1_linear)"/>
        <path opacity="0.3" d="M66.0695 305.188L59.2552 306.241L58.9742 305.398C58.8337 305.047 58.4824 304.836 58.0609 304.907L54.1971 305.539C53.7756 305.609 53.4244 305.89 53.3541 306.312L53.0029 307.295H52.9326C51.9491 307.436 51.2466 308.349 51.2466 309.262V316.147C51.2466 317.13 52.0193 317.763 52.9326 317.622L66.0695 315.515C67.0531 315.374 67.7556 314.461 67.7556 313.548V306.663C67.7556 305.679 66.9828 305.047 66.0695 305.188Z" fill="white"/>
        <path opacity="0.3" d="M66.0695 323.172L59.2552 324.226L58.9742 323.383C58.8337 323.032 58.4824 322.821 58.0609 322.891L54.1971 323.523C53.7756 323.593 53.4244 323.875 53.3541 324.296L53.0029 325.28H52.9326C51.9491 325.42 51.2466 326.333 51.2466 327.247V334.131C51.2466 335.115 52.0193 335.747 52.9326 335.606L66.0695 333.499C67.0531 333.358 67.7556 332.445 67.7556 331.532V324.647C67.7556 323.664 66.9828 323.031 66.0695 323.172Z" fill="white"/>
        <path opacity="0.3" d="M66.0695 341.156L59.2552 342.21L58.9742 341.367C58.8337 341.016 58.4824 340.805 58.0609 340.875L54.1971 341.507C53.7756 341.578 53.4244 341.859 53.3541 342.28L53.0029 343.264H52.9326C51.9491 343.404 51.2466 344.317 51.2466 345.231V352.115C51.2466 353.099 52.0193 353.731 52.9326 353.591L66.0695 351.483C67.0531 351.343 67.7556 350.429 67.7556 349.516V342.631C67.7556 341.648 66.9828 341.016 66.0695 341.156Z" fill="white"/>
        <path opacity="0.3" d="M87.8474 319.73L81.033 320.783L80.752 319.94C80.6115 319.589 80.2603 319.378 79.8388 319.449L75.975 320.081C75.5535 320.151 75.2022 320.432 75.1319 320.854L74.7807 321.837H74.7104C73.7269 321.978 73.0244 322.891 73.0244 323.804V330.689C73.0244 331.672 73.7972 332.305 74.7104 332.164L87.8474 330.057C88.8309 329.916 89.5334 329.003 89.5334 328.09V321.205C89.5334 320.221 88.8309 319.589 87.8474 319.73Z" fill="white"/>
        <path opacity="0.2" d="M372.163 459.964C372.163 461.315 371.178 462.453 369.912 462.666L157.364 499.29C153.214 500.001 147.447 499.646 144.423 498.579L39.6256 460.035C38.3596 459.537 37.5156 458.328 37.5156 456.977V452.07L372.233 454.772L372.163 459.964Z" fill="black"/>
        <path d="M372.956 457.523C372.956 458.851 371.969 459.97 370.7 460.18L157.648 496.124C153.488 496.823 147.707 496.473 144.676 495.424L39.6306 457.523C38.3616 457.033 37.5156 455.844 37.5156 454.516V449.691L373.026 452.348L372.956 457.523Z" fill="#989999"/>
        <path d="M369.26 453.707L157.893 488.988C153.734 489.682 147.952 489.335 144.921 488.295L39.3081 450.518C36.2765 449.409 37.193 448.023 41.2822 447.33L252.649 411.979C256.808 411.286 262.589 411.632 265.621 412.672L371.234 450.518C374.265 451.558 373.349 453.014 369.26 453.707Z" fill="url(#paint2_linear)"/>
        <path d="M77.0289 450.959L68.0368 452.504C67.0532 452.645 65.6482 452.574 64.9457 452.364L58.3421 449.975C57.6396 449.694 57.8504 449.343 58.8339 449.202L67.826 447.657C68.8095 447.516 70.2145 447.587 70.9171 447.797L77.5206 450.186C78.2232 450.467 78.0124 450.818 77.0289 450.959Z" fill="url(#paint3_linear)"/>
        <path d="M94.1004 448.078L85.1083 449.624C84.1248 449.764 82.7198 449.694 82.0173 449.483L75.4137 447.095C74.7112 446.814 74.9219 446.463 75.9054 446.322L84.8975 444.776C85.8811 444.636 87.2861 444.706 87.9886 444.917L94.5922 447.306C95.2947 447.587 95.0839 447.938 94.1004 448.078Z" fill="url(#paint4_linear)"/>
        <path d="M110.749 445.268L101.757 446.814C100.774 446.954 99.3687 446.884 98.6662 446.673L92.0626 444.285C91.3601 444.004 91.5708 443.652 92.5543 443.512L101.546 441.966C102.53 441.826 103.935 441.896 104.638 442.107L111.241 444.496C111.944 444.706 111.733 445.058 110.749 445.268Z" fill="url(#paint5_linear)"/>
        <path d="M127.821 442.388L118.829 443.934C117.845 444.074 116.44 444.004 115.737 443.793L109.134 441.404C108.431 441.123 108.642 440.772 109.626 440.632L118.618 439.086C119.601 438.946 121.006 439.016 121.709 439.227L128.312 441.615C129.015 441.826 128.804 442.177 127.821 442.388Z" fill="url(#paint6_linear)"/>
        <path d="M144.47 439.508L135.478 441.053C134.495 441.194 133.09 441.123 132.387 440.913L125.784 438.524C125.081 438.243 125.292 437.892 126.275 437.751L135.267 436.206C136.251 436.065 137.656 436.136 138.358 436.346L144.962 438.735C145.665 439.016 145.454 439.367 144.47 439.508Z" fill="url(#paint7_linear)"/>
        <path d="M161.541 436.627L152.549 438.173C151.565 438.313 150.16 438.243 149.458 438.032L142.854 435.644C142.152 435.363 142.363 435.012 143.346 434.871L152.338 433.326C153.322 433.185 154.727 433.255 155.429 433.466L162.033 435.855C162.735 436.136 162.525 436.487 161.541 436.627Z" fill="url(#paint8_linear)"/>
        <path d="M178.19 433.817L169.198 435.363C168.215 435.503 166.81 435.433 166.107 435.222L159.504 432.834C158.801 432.553 159.012 432.201 159.995 432.061L168.987 430.515C169.971 430.375 171.376 430.445 172.078 430.656L178.682 433.045C179.385 433.255 179.174 433.607 178.19 433.817Z" fill="url(#paint9_linear)"/>
        <path d="M195.262 430.937L186.27 432.483C185.286 432.623 183.881 432.553 183.179 432.342L176.575 429.953C175.873 429.672 176.083 429.321 177.067 429.181L186.059 427.635C187.042 427.495 188.447 427.565 189.15 427.776L195.754 430.164C196.456 430.375 196.245 430.726 195.262 430.937Z" fill="url(#paint10_linear)"/>
        <path d="M212.403 427.986L203.411 429.532C202.427 429.672 201.022 429.602 200.32 429.391L193.716 427.003C193.013 426.722 193.224 426.371 194.208 426.23L203.2 424.685C204.183 424.544 205.588 424.614 206.291 424.825L212.894 427.214C213.597 427.495 213.386 427.846 212.403 427.986Z" fill="url(#paint11_linear)"/>
        <path d="M229.473 425.106L220.481 426.652C219.498 426.792 218.093 426.722 217.39 426.511L210.787 424.123C210.084 423.842 210.295 423.49 211.278 423.35L220.271 421.804C221.254 421.664 222.659 421.734 223.362 421.945L229.965 424.333C230.668 424.614 230.457 424.966 229.473 425.106Z" fill="url(#paint12_linear)"/>
        <path d="M246.123 422.296L237.131 423.842C236.148 423.982 234.742 423.912 234.04 423.701L227.436 421.313C226.734 421.032 226.945 420.68 227.928 420.54L236.92 418.994C237.904 418.854 239.309 418.924 240.011 419.135L246.615 421.523C247.317 421.734 247.107 422.085 246.123 422.296Z" fill="url(#paint13_linear)"/>
        <path d="M263.194 419.416L254.202 420.961C253.219 421.102 251.814 421.032 251.111 420.821L244.508 418.432C243.805 418.151 244.016 417.8 244.999 417.66L253.992 416.114C254.975 415.974 256.38 416.044 257.083 416.255L263.686 418.643C264.389 418.854 264.178 419.205 263.194 419.416Z" fill="url(#paint14_linear)"/>
        <path d="M123.465 467.889L114.473 469.435C113.49 469.575 112.085 469.505 111.382 469.294L104.778 466.905C104.076 466.624 104.287 466.273 105.27 466.133L114.262 464.587C115.246 464.447 116.651 464.517 117.353 464.728L123.957 467.116C124.659 467.397 124.449 467.748 123.465 467.889Z" fill="url(#paint15_linear)"/>
        <path d="M140.536 465.009L131.544 466.554C130.561 466.695 129.156 466.625 128.453 466.414L121.849 464.025C121.147 463.744 121.358 463.393 122.341 463.252L131.333 461.707C132.317 461.566 133.722 461.637 134.424 461.847L141.028 464.236C141.73 464.447 141.52 464.798 140.536 465.009Z" fill="url(#paint16_linear)"/>
        <path d="M157.185 462.128L148.193 463.674C147.21 463.814 145.805 463.744 145.102 463.533L138.499 461.145C137.796 460.864 138.007 460.513 138.99 460.372L147.983 458.827C148.966 458.686 150.371 458.756 151.074 458.967L157.677 461.356C158.38 461.637 158.169 461.988 157.185 462.128Z" fill="url(#paint17_linear)"/>
        <path d="M242.4 447.727L165.335 460.794C164.351 460.934 162.946 460.864 162.244 460.653L155.64 458.265C154.937 457.984 155.148 457.632 156.132 457.492L233.197 444.355C234.181 444.214 235.586 444.285 236.288 444.495L242.892 446.884C243.594 447.165 243.383 447.516 242.4 447.727Z" fill="url(#paint18_linear)"/>
        <path d="M258.839 444.917L249.847 446.462C248.863 446.603 247.458 446.533 246.756 446.322L240.152 443.933C239.449 443.652 239.66 443.301 240.644 443.161L249.636 441.615C250.619 441.475 252.024 441.545 252.727 441.756L259.33 444.144C260.033 444.355 259.822 444.706 258.839 444.917Z" fill="url(#paint19_linear)"/>
        <path d="M275.91 442.037L266.918 443.582C265.934 443.723 264.529 443.652 263.827 443.442L257.223 441.053C256.52 440.772 256.731 440.421 257.715 440.28L266.707 438.735C267.69 438.594 269.095 438.665 269.798 438.875L276.401 441.264C277.104 441.475 276.893 441.826 275.91 442.037Z" fill="url(#paint20_linear)"/>
        <path d="M292.559 439.156L283.567 440.702C282.584 440.842 281.178 440.772 280.476 440.561L273.872 438.173C273.17 437.892 273.381 437.541 274.364 437.4L283.356 435.855C284.34 435.714 285.745 435.784 286.447 435.995L293.051 438.384C293.753 438.665 293.543 439.016 292.559 439.156Z" fill="url(#paint21_linear)"/>
        <path d="M309.63 436.276L300.638 437.822C299.655 437.962 298.25 437.892 297.547 437.681L290.943 435.293C290.241 435.012 290.452 434.66 291.435 434.52L300.427 432.974C301.411 432.834 302.816 432.904 303.518 433.115L310.122 435.503C310.824 435.784 310.614 436.136 309.63 436.276Z" fill="url(#paint22_linear)"/>
        <path d="M117.915 456.438L91.6415 460.934C90.658 461.075 89.253 461.004 88.5505 460.794L81.9469 458.405C81.2444 458.124 81.4551 457.773 82.4386 457.632L108.712 453.136C109.696 452.996 111.101 453.066 111.804 453.277L118.407 455.665C119.11 455.946 118.899 456.298 117.915 456.438Z" fill="url(#paint23_linear)"/>
        <path d="M134.986 453.558L125.994 455.103C125.011 455.244 123.606 455.174 122.903 454.963L116.299 452.574C115.597 452.293 115.808 451.942 116.791 451.802L125.783 450.256C126.767 450.115 128.172 450.186 128.874 450.396L135.478 452.785C136.18 452.996 135.97 453.347 134.986 453.558Z" fill="url(#paint24_linear)"/>
        <path d="M151.636 450.678L142.644 452.223C141.66 452.364 140.255 452.293 139.553 452.083L132.949 449.694C132.247 449.413 132.457 449.062 133.441 448.921L142.433 447.376C143.416 447.235 144.821 447.305 145.524 447.516L152.128 449.905C152.83 450.186 152.619 450.537 151.636 450.678Z" fill="url(#paint25_linear)"/>
        <path d="M168.707 447.797L159.715 449.343C158.731 449.483 157.326 449.413 156.624 449.202L150.02 446.814C149.318 446.533 149.528 446.182 150.512 446.041L159.504 444.495C160.488 444.355 161.893 444.425 162.595 444.636L169.199 447.025C169.901 447.306 169.69 447.657 168.707 447.797Z" fill="url(#paint26_linear)"/>
        <path d="M185.356 444.987L176.364 446.533C175.381 446.673 173.976 446.603 173.273 446.392L166.67 444.004C165.967 443.723 166.178 443.371 167.161 443.231L176.153 441.685C177.137 441.545 178.542 441.615 179.244 441.826L185.848 444.215C186.551 444.496 186.34 444.847 185.356 444.987Z" fill="url(#paint27_linear)"/>
        <path d="M202.427 442.107L193.435 443.652C192.451 443.793 191.046 443.723 190.344 443.512L183.74 441.123C183.038 440.842 183.249 440.491 184.232 440.351L193.224 438.805C194.208 438.665 195.613 438.735 196.315 438.946L202.919 441.334C203.621 441.545 203.411 441.896 202.427 442.107Z" fill="url(#paint28_linear)"/>
        <path d="M219.568 439.156L210.576 440.702C209.592 440.842 208.187 440.772 207.485 440.561L200.881 438.173C200.179 437.892 200.389 437.541 201.373 437.4L210.365 435.855C211.349 435.714 212.754 435.784 213.456 435.995L220.06 438.384C220.762 438.665 220.551 439.016 219.568 439.156Z" fill="url(#paint29_linear)"/>
        <path d="M236.639 436.276L227.647 437.822C226.664 437.962 225.259 437.892 224.556 437.681L217.953 435.293C217.25 435.012 217.461 434.66 218.444 434.52L227.437 432.974C228.42 432.834 229.825 432.904 230.528 433.115L237.131 435.503C237.834 435.784 237.623 436.136 236.639 436.276Z" fill="url(#paint30_linear)"/>
        <path d="M253.289 433.466L244.297 435.012C243.313 435.152 241.908 435.082 241.206 434.871L234.602 432.483C233.9 432.201 234.11 431.85 235.094 431.71L244.086 430.164C245.07 430.024 246.475 430.094 247.177 430.305L253.781 432.693C254.483 432.974 254.272 433.326 253.289 433.466Z" fill="url(#paint31_linear)"/>
        <path d="M270.36 430.586L261.368 432.131C260.384 432.272 258.979 432.202 258.277 431.991L251.673 429.602C250.97 429.321 251.181 428.97 252.165 428.829L261.157 427.284C262.14 427.143 263.545 427.214 264.248 427.424L270.851 429.813C271.554 430.024 271.343 430.375 270.36 430.586Z" fill="url(#paint32_linear)"/>
        <path d="M99.3686 453.347L79.6281 456.719C78.6446 456.86 77.2395 456.789 76.537 456.579L69.9334 454.19C69.2309 453.909 69.4417 453.558 70.4252 453.417L90.1657 450.045C91.1492 449.905 92.5542 449.975 93.2568 450.186L99.8604 452.574C100.563 452.855 100.352 453.207 99.3686 453.347Z" fill="url(#paint33_linear)"/>
        <path d="M265.582 420.259L250.057 422.928C249.074 423.069 248.863 423.42 249.565 423.701L256.169 426.09C256.871 426.371 258.276 426.441 259.26 426.23L262.632 425.668C263.405 425.528 264.458 425.598 265.02 425.809L274.083 429.11C274.785 429.391 276.19 429.462 277.174 429.251L286.166 427.705C287.15 427.565 287.36 427.214 286.658 426.933L268.674 420.399C267.971 420.189 266.566 420.118 265.582 420.259Z" fill="url(#paint34_linear)"/>
        <path d="M115.878 450.607L106.886 452.153C105.903 452.293 104.498 452.223 103.795 452.012L97.1915 449.624C96.489 449.343 96.6997 448.992 97.6833 448.851L106.675 447.306C107.659 447.165 109.064 447.235 109.766 447.446L116.37 449.835C117.073 450.045 116.862 450.397 115.878 450.607Z" fill="url(#paint35_linear)"/>
        <path d="M132.527 447.727L123.535 449.273C122.552 449.413 121.147 449.343 120.444 449.132L113.84 446.744C113.138 446.463 113.349 446.111 114.332 445.971L123.324 444.425C124.308 444.285 125.713 444.355 126.415 444.566L133.019 446.954C133.721 447.235 133.511 447.587 132.527 447.727Z" fill="url(#paint36_linear)"/>
        <path d="M149.598 444.847L140.606 446.392C139.623 446.533 138.218 446.463 137.515 446.252L130.911 443.863C130.209 443.582 130.42 443.231 131.403 443.09L140.395 441.545C141.379 441.404 142.784 441.475 143.486 441.685L150.09 444.074C150.793 444.355 150.582 444.706 149.598 444.847Z" fill="url(#paint37_linear)"/>
        <path d="M166.248 442.037L157.256 443.582C156.272 443.723 154.867 443.652 154.165 443.442L147.561 441.053C146.859 440.772 147.069 440.421 148.053 440.28L157.045 438.735C158.029 438.594 159.434 438.665 160.136 438.875L166.74 441.264C167.442 441.545 167.231 441.896 166.248 442.037Z" fill="url(#paint38_linear)"/>
        <path d="M183.319 439.156L174.327 440.702C173.343 440.842 171.938 440.772 171.236 440.561L164.632 438.173C163.93 437.892 164.14 437.541 165.124 437.4L174.116 435.855C175.1 435.714 176.505 435.784 177.207 435.995L183.811 438.384C184.513 438.594 184.302 438.946 183.319 439.156Z" fill="url(#paint39_linear)"/>
        <path d="M199.968 436.276L190.976 437.822C189.993 437.962 188.588 437.892 187.885 437.681L181.282 435.293C180.579 435.012 180.79 434.66 181.773 434.52L190.765 432.974C191.749 432.834 193.154 432.904 193.857 433.115L200.46 435.503C201.163 435.784 200.952 436.136 199.968 436.276Z" fill="url(#paint40_linear)"/>
        <path d="M217.039 433.396L208.047 434.941C207.064 435.082 205.659 435.012 204.956 434.801L198.353 432.412C197.65 432.131 197.861 431.78 198.844 431.64L207.837 430.094C208.82 429.954 210.225 430.024 210.928 430.235L217.531 432.623C218.234 432.904 218.023 433.255 217.039 433.396Z" fill="url(#paint41_linear)"/>
        <path d="M234.18 430.516L225.188 432.061C224.205 432.202 222.8 432.131 222.097 431.921L215.493 429.532C214.791 429.251 215.002 428.9 215.985 428.759L224.977 427.214C225.961 427.073 227.366 427.144 228.068 427.354L234.672 429.743C235.375 429.954 235.164 430.305 234.18 430.516Z" fill="url(#paint42_linear)"/>
        <path d="M251.252 427.635L242.259 429.181C241.276 429.321 239.871 429.251 239.168 429.04L232.565 426.652C231.862 426.371 232.073 426.019 233.057 425.879L242.049 424.333C243.032 424.193 244.437 424.263 245.14 424.474L251.743 426.862C252.446 427.073 252.235 427.424 251.252 427.635Z" fill="url(#paint43_linear)"/>
        <path d="M123.184 461.707L103.443 465.079C102.46 465.219 101.055 465.149 100.352 464.938L93.7489 462.55C93.0464 462.269 93.2571 461.918 94.2406 461.777L113.981 458.405C114.965 458.265 116.37 458.335 117.072 458.546L123.676 460.934C124.378 461.215 124.168 461.566 123.184 461.707Z" fill="url(#paint44_linear)"/>
        <path d="M297.758 432.131L282.794 434.66C281.811 434.801 280.406 434.731 279.703 434.52L273.1 432.131C272.397 431.85 272.608 431.499 273.591 431.358L288.555 428.829C289.538 428.689 290.943 428.759 291.646 428.97L298.25 431.358C298.952 431.569 298.741 431.92 297.758 432.131Z" fill="url(#paint45_linear)"/>
        <path d="M139.693 458.967L130.701 460.513C129.717 460.653 128.312 460.583 127.61 460.372L121.006 457.984C120.304 457.703 120.514 457.351 121.498 457.211L130.49 455.665C131.474 455.525 132.879 455.595 133.581 455.806L140.185 458.194C140.887 458.405 140.676 458.756 139.693 458.967Z" fill="url(#paint46_linear)"/>
        <path d="M156.342 456.087L147.35 457.632C146.367 457.773 144.962 457.703 144.259 457.492L137.656 455.103C136.953 454.822 137.164 454.471 138.147 454.331L147.139 452.785C148.123 452.645 149.528 452.715 150.231 452.926L156.834 455.314C157.537 455.595 157.326 455.946 156.342 456.087Z" fill="url(#paint47_linear)"/>
        <path d="M173.414 453.207L164.422 454.752C163.438 454.893 162.033 454.822 161.331 454.612L154.727 452.223C154.024 451.942 154.235 451.591 155.219 451.45L164.211 449.905C165.194 449.764 166.599 449.835 167.302 450.045L173.905 452.434C174.608 452.715 174.397 453.066 173.414 453.207Z" fill="url(#paint48_linear)"/>
        <path d="M190.063 450.397L181.071 451.942C180.087 452.083 178.682 452.012 177.98 451.802L171.376 449.413C170.674 449.132 170.884 448.781 171.868 448.64L180.86 447.095C181.843 446.954 183.248 447.024 183.951 447.235L190.555 449.624C191.257 449.835 191.046 450.186 190.063 450.397Z" fill="url(#paint49_linear)"/>
        <path d="M207.134 447.516L198.142 449.062C197.158 449.202 195.753 449.132 195.051 448.921L188.447 446.533C187.745 446.252 187.955 445.9 188.939 445.76L197.931 444.214C198.915 444.074 200.32 444.144 201.022 444.355L207.626 446.743C208.328 446.954 208.117 447.305 207.134 447.516Z" fill="url(#paint50_linear)"/>
        <path d="M223.784 444.636L214.791 446.181C213.808 446.322 212.403 446.252 211.7 446.041L205.097 443.652C204.394 443.371 204.605 443.02 205.589 442.88L214.581 441.334C215.564 441.194 216.969 441.264 217.672 441.475L224.275 443.863C224.978 444.144 224.767 444.495 223.784 444.636Z" fill="url(#paint51_linear)"/>
        <path d="M240.854 441.756L231.862 443.301C230.878 443.442 229.473 443.371 228.771 443.161L222.167 440.772C221.465 440.491 221.675 440.14 222.659 439.999L231.651 438.454C232.634 438.313 234.04 438.384 234.742 438.594L241.346 440.983C242.048 441.264 241.837 441.615 240.854 441.756Z" fill="url(#paint52_linear)"/>
        <path d="M257.996 438.875L249.004 440.421C248.02 440.561 246.615 440.491 245.913 440.28L239.309 437.892C238.606 437.611 238.817 437.26 239.801 437.119L248.793 435.574C249.776 435.433 251.181 435.503 251.884 435.714L258.487 438.103C259.19 438.313 258.979 438.665 257.996 438.875Z" fill="url(#paint53_linear)"/>
        <path d="M275.067 435.925L266.075 437.47C265.091 437.611 263.686 437.541 262.984 437.33L256.38 434.941C255.678 434.66 255.888 434.309 256.872 434.169L265.864 432.623C266.848 432.483 268.253 432.553 268.955 432.764L275.559 435.152C276.261 435.433 276.05 435.784 275.067 435.925Z" fill="url(#paint54_linear)"/>
        <path d="M260.736 446.181L169.901 461.637C169.269 461.707 168.918 462.409 169.269 462.971L302.254 460.723C302.535 460.372 302.394 459.81 301.973 459.67L265.794 446.533C264.529 446.041 262.351 445.9 260.736 446.181Z" fill="#989999"/>
        <path d="M261.017 446.743L170.674 462.058C169.128 462.339 168.777 462.901 169.901 463.323L205.589 476.319C206.713 476.741 208.961 476.881 210.506 476.6L300.849 461.285C302.395 461.004 302.746 460.442 301.622 460.021L265.934 447.024C264.74 446.603 262.562 446.533 261.017 446.743Z" fill="url(#paint55_linear)"/>
        <path d="M77.0289 450.186L68.0368 451.731C67.0532 451.872 65.6482 451.802 64.9457 451.591L58.3421 449.202C57.6396 448.921 57.8504 448.57 58.8339 448.43L67.826 446.884C68.8095 446.744 70.2145 446.814 70.9171 447.025L77.5206 449.413C78.2232 449.624 78.0124 449.975 77.0289 450.186Z" fill="url(#paint56_linear)"/>
        <path d="M94.1004 447.235L85.1083 448.781C84.1248 448.921 82.7198 448.851 82.0173 448.64L75.4137 446.252C74.7112 445.971 74.9219 445.62 75.9054 445.479L84.8975 443.933C85.8811 443.793 87.2861 443.863 87.9886 444.074L94.5922 446.463C95.2947 446.744 95.0839 447.095 94.1004 447.235Z" fill="url(#paint57_linear)"/>
        <path d="M110.749 444.425L101.757 445.971C100.774 446.111 99.3687 446.041 98.6662 445.83L92.0626 443.442C91.3601 443.161 91.5708 442.809 92.5543 442.669L101.546 441.123C102.53 440.983 103.935 441.053 104.638 441.264L111.241 443.652C112.014 443.933 111.733 444.285 110.749 444.425Z" fill="url(#paint58_linear)"/>
        <path d="M127.821 441.545L118.829 443.09C117.845 443.231 116.44 443.161 115.737 442.95L109.134 440.561C108.431 440.28 108.642 439.929 109.626 439.789L118.618 438.243C119.601 438.103 121.006 438.173 121.709 438.384L128.312 440.772C129.085 440.983 128.804 441.334 127.821 441.545Z" fill="url(#paint59_linear)"/>
        <path d="M144.54 438.735L135.548 440.21C134.565 440.351 133.16 440.28 132.457 440.07L125.854 437.681C125.151 437.4 125.362 437.049 126.345 436.908L135.337 435.363C136.321 435.222 137.726 435.293 138.429 435.503L145.032 437.892C145.735 438.173 145.524 438.524 144.54 438.735Z" fill="url(#paint60_linear)"/>
        <path d="M161.611 435.784L152.619 437.33C151.636 437.47 150.231 437.4 149.528 437.189L142.924 434.801C142.222 434.52 142.433 434.169 143.416 434.028L152.408 432.483C153.392 432.342 154.797 432.412 155.499 432.623L162.103 435.012C162.805 435.293 162.595 435.644 161.611 435.784Z" fill="url(#paint61_linear)"/>
        <path d="M178.261 432.974L169.269 434.52C168.285 434.66 166.88 434.59 166.178 434.379L159.574 431.991C158.872 431.71 159.083 431.359 160.066 431.218L169.058 429.672C170.042 429.532 171.447 429.602 172.149 429.813L178.753 432.202C179.455 432.483 179.245 432.834 178.261 432.974Z" fill="url(#paint62_linear)"/>
        <path d="M195.331 430.094L186.339 431.64C185.356 431.78 183.951 431.71 183.248 431.499L176.645 429.111C175.942 428.83 176.153 428.478 177.136 428.338L186.129 426.792C187.112 426.652 188.517 426.722 189.22 426.933L195.823 429.321C196.526 429.532 196.315 429.954 195.331 430.094Z" fill="url(#paint63_linear)"/>
        <path d="M212.403 427.214L203.411 428.759C202.427 428.9 201.022 428.83 200.32 428.619L193.716 426.23C193.013 425.949 193.224 425.598 194.208 425.457L203.2 423.912C204.183 423.771 205.588 423.842 206.291 424.052L212.894 426.441C213.597 426.652 213.386 427.003 212.403 427.214Z" fill="url(#paint64_linear)"/>
        <path d="M229.473 424.263L220.481 425.809C219.498 425.949 218.093 425.879 217.39 425.668L210.787 423.28C210.084 422.999 210.295 422.647 211.278 422.507L220.271 420.961C221.254 420.821 222.659 420.891 223.362 421.102L229.965 423.49C230.668 423.771 230.457 424.123 229.473 424.263Z" fill="url(#paint65_linear)"/>
        <path d="M246.123 421.453L237.131 422.999C236.148 423.139 234.742 423.069 234.04 422.858L227.436 420.47C226.734 420.189 226.945 419.837 227.928 419.697L236.92 418.151C237.904 418.011 239.309 418.081 240.011 418.292L246.615 420.68C247.317 420.961 247.107 421.313 246.123 421.453Z" fill="url(#paint66_linear)"/>
        <path d="M263.194 418.573L254.202 420.118C253.219 420.259 251.814 420.189 251.111 419.978L244.508 417.589C243.805 417.308 244.016 416.957 244.999 416.817L253.992 415.271C254.975 415.131 256.38 415.201 257.083 415.412L263.686 417.8C264.459 418.011 264.178 418.362 263.194 418.573Z" fill="url(#paint67_linear)"/>
        <path d="M123.465 467.046L114.473 468.592C113.49 468.732 112.085 468.662 111.382 468.451L104.778 466.063C104.076 465.782 104.287 465.43 105.27 465.29L114.262 463.744C115.246 463.604 116.651 463.674 117.353 463.885L123.957 466.273C124.73 466.554 124.519 466.906 123.465 467.046Z" fill="url(#paint68_linear)"/>
        <path d="M140.536 464.166L131.544 465.711C130.561 465.852 129.156 465.782 128.453 465.571L121.849 463.182C121.147 462.901 121.358 462.55 122.341 462.41L131.333 460.864C132.317 460.723 133.722 460.794 134.424 461.004L141.028 463.393C141.801 463.674 141.59 464.025 140.536 464.166Z" fill="url(#paint69_linear)"/>
        <path d="M157.256 461.356L148.264 462.901C147.28 463.042 145.875 462.972 145.173 462.761L138.569 460.372C137.866 460.091 138.077 459.74 139.061 459.599L148.053 458.054C149.036 457.913 150.441 457.984 151.144 458.194L157.747 460.583C158.45 460.794 158.239 461.145 157.256 461.356Z" fill="url(#paint70_linear)"/>
        <path d="M242.4 446.884L165.335 459.951C164.351 460.091 162.946 460.021 162.244 459.81L155.64 457.422C154.937 457.141 155.148 456.789 156.132 456.649L233.197 443.512C234.181 443.371 235.586 443.442 236.288 443.652L242.892 446.041C243.594 446.392 243.383 446.743 242.4 446.884Z" fill="url(#paint71_linear)"/>
        <path d="M258.839 444.074L249.847 445.619C248.863 445.76 247.458 445.69 246.756 445.479L240.222 443.02C239.52 442.739 239.731 442.388 240.714 442.247L249.706 440.702C250.69 440.561 252.095 440.632 252.797 440.842L259.401 443.231C260.103 443.582 259.893 443.933 258.839 444.074Z" fill="url(#paint72_linear)"/>
        <path d="M275.91 441.194L266.918 442.739C265.934 442.88 264.529 442.809 263.827 442.599L257.223 440.21C256.52 439.929 256.731 439.578 257.715 439.437L266.707 437.892C267.69 437.751 269.095 437.822 269.798 438.032L276.402 440.421C277.174 440.702 276.964 441.053 275.91 441.194Z" fill="url(#paint73_linear)"/>
        <path d="M292.629 438.384L283.637 439.929C282.654 440.07 281.249 439.999 280.546 439.789L273.942 437.4C273.24 437.119 273.451 436.768 274.434 436.627L283.426 435.082C284.41 434.941 285.815 435.012 286.517 435.222L293.121 437.611C293.823 437.822 293.613 438.173 292.629 438.384Z" fill="url(#paint74_linear)"/>
        <path d="M309.701 435.433L300.708 436.979C299.725 437.119 298.32 437.049 297.617 436.838L291.014 434.45C290.311 434.169 290.522 433.817 291.506 433.677L300.498 432.131C301.481 431.991 302.886 432.061 303.589 432.272L310.192 434.66C310.895 434.941 310.684 435.293 309.701 435.433Z" fill="url(#paint75_linear)"/>
        <path d="M117.915 455.595L91.6415 460.091C90.658 460.232 89.253 460.161 88.5505 459.951L81.9469 457.562C81.2444 457.281 81.4551 456.93 82.4386 456.789L108.712 452.293C109.696 452.153 111.101 452.223 111.804 452.434L118.407 454.822C119.11 455.103 118.899 455.455 117.915 455.595Z" fill="url(#paint76_linear)"/>
        <path d="M134.986 452.715L125.994 454.26C125.011 454.401 123.606 454.331 122.903 454.12L116.299 451.731C115.597 451.45 115.808 451.099 116.791 450.959L125.783 449.413C126.767 449.273 128.172 449.343 128.874 449.554L135.478 451.942C136.18 452.223 135.97 452.574 134.986 452.715Z" fill="url(#paint77_linear)"/>
        <path d="M151.636 449.905L142.644 451.45C141.66 451.591 140.255 451.521 139.553 451.31L132.949 448.921C132.247 448.64 132.457 448.289 133.441 448.148L142.433 446.603C143.416 446.462 144.821 446.533 145.524 446.743L152.128 449.132C152.9 449.343 152.619 449.694 151.636 449.905Z" fill="url(#paint78_linear)"/>
        <path d="M168.707 446.954L159.715 448.5C158.731 448.64 157.326 448.57 156.624 448.359L150.02 445.971C149.318 445.69 149.528 445.339 150.512 445.198L159.504 443.653C160.488 443.512 161.893 443.582 162.595 443.793L169.199 446.182C169.971 446.463 169.69 446.814 168.707 446.954Z" fill="url(#paint79_linear)"/>
        <path d="M185.356 444.144L176.364 445.69C175.381 445.83 173.976 445.76 173.273 445.549L166.67 443.161C165.967 442.88 166.178 442.528 167.161 442.388L176.153 440.842C177.137 440.702 178.542 440.772 179.244 440.983L185.848 443.371C186.621 443.652 186.34 444.004 185.356 444.144Z" fill="url(#paint80_linear)"/>
        <path d="M202.427 441.264L193.435 442.809C192.451 442.95 191.046 442.88 190.344 442.669L183.74 440.28C183.038 439.999 183.249 439.648 184.232 439.508L193.224 437.962C194.208 437.822 195.613 437.892 196.315 438.103L202.919 440.491C203.692 440.772 203.411 441.123 202.427 441.264Z" fill="url(#paint81_linear)"/>
        <path d="M219.568 438.384L210.576 439.929C209.592 440.07 208.187 439.999 207.485 439.789L200.881 437.4C200.179 437.119 200.389 436.768 201.373 436.627L210.365 435.082C211.349 434.941 212.754 435.012 213.456 435.222L220.06 437.611C220.762 437.822 220.551 438.173 219.568 438.384Z" fill="url(#paint82_linear)"/>
        <path d="M236.639 435.433L227.647 436.979C226.664 437.119 225.259 437.049 224.556 436.838L217.953 434.45C217.25 434.169 217.461 433.817 218.444 433.677L227.437 432.131C228.42 431.991 229.825 432.061 230.528 432.272L237.131 434.66C237.834 434.941 237.623 435.293 236.639 435.433Z" fill="url(#paint83_linear)"/>
        <path d="M253.289 432.623L244.297 434.169C243.313 434.309 241.908 434.239 241.206 434.028L234.602 431.639C233.9 431.358 234.11 431.007 235.094 430.867L244.086 429.321C245.07 429.181 246.475 429.251 247.177 429.462L253.781 431.85C254.483 432.131 254.272 432.483 253.289 432.623Z" fill="url(#paint84_linear)"/>
        <path d="M270.36 429.743L261.368 431.288C260.384 431.429 258.979 431.359 258.277 431.148L251.673 428.759C250.97 428.478 251.181 428.127 252.165 427.987L261.157 426.441C262.14 426.301 263.545 426.371 264.248 426.582L270.851 428.97C271.554 429.251 271.343 429.602 270.36 429.743Z" fill="url(#paint85_linear)"/>
        <path d="M99.4389 452.574L79.6984 455.946C78.7149 456.087 77.3099 456.017 76.6074 455.806L70.0038 453.417C69.3012 453.136 69.512 452.785 70.4955 452.645L90.236 449.273C91.2196 449.132 92.6246 449.202 93.3271 449.413L99.9307 451.802C100.633 452.012 100.422 452.364 99.4389 452.574Z" fill="url(#paint86_linear)"/>
        <path d="M265.582 419.416L250.057 422.085C249.074 422.226 248.863 422.577 249.565 422.858L256.169 425.247C256.871 425.528 258.276 425.598 259.26 425.387L262.632 424.825C263.405 424.685 264.458 424.755 265.02 424.966L274.083 428.268C274.785 428.549 276.19 428.619 277.174 428.408L286.166 426.863C287.15 426.722 287.36 426.371 286.658 426.09L268.674 419.556C267.971 419.346 266.566 419.275 265.582 419.416Z" fill="url(#paint87_linear)"/>
        <path d="M115.878 449.764L106.886 451.31C105.903 451.45 104.498 451.38 103.795 451.169L97.1915 448.781C96.489 448.5 96.6997 448.149 97.6833 448.008L106.675 446.463C107.659 446.322 109.064 446.392 109.766 446.603L116.37 448.992C117.073 449.273 116.862 449.624 115.878 449.764Z" fill="url(#paint88_linear)"/>
        <path d="M132.527 446.954L123.535 448.5C122.552 448.64 121.147 448.57 120.444 448.359L113.84 445.971C113.138 445.69 113.349 445.339 114.332 445.198L123.324 443.653C124.308 443.512 125.713 443.582 126.415 443.793L133.019 446.182C133.721 446.392 133.511 446.744 132.527 446.954Z" fill="url(#paint89_linear)"/>
        <path d="M149.598 444.004L140.606 445.549C139.623 445.69 138.218 445.619 137.515 445.409L130.911 443.02C130.209 442.739 130.42 442.388 131.403 442.247L140.395 440.702C141.379 440.561 142.784 440.632 143.486 440.842L150.09 443.231C150.793 443.512 150.582 443.863 149.598 444.004Z" fill="url(#paint90_linear)"/>
        <path d="M166.248 441.194L157.256 442.739C156.272 442.88 154.867 442.809 154.165 442.599L147.561 440.21C146.859 439.929 147.069 439.578 148.053 439.437L157.045 437.892C158.029 437.751 159.434 437.822 160.136 438.032L166.74 440.421C167.512 440.702 167.231 441.053 166.248 441.194Z" fill="url(#paint91_linear)"/>
        <path d="M183.319 438.313L174.327 439.859C173.343 439.999 171.938 439.929 171.236 439.718L164.632 437.33C163.93 437.049 164.14 436.698 165.124 436.557L174.116 435.012C175.1 434.871 176.505 434.941 177.207 435.152L183.811 437.541C184.583 437.822 184.302 438.173 183.319 438.313Z" fill="url(#paint92_linear)"/>
        <path d="M199.968 435.503L190.976 437.049C189.993 437.189 188.588 437.119 187.885 436.908L181.282 434.52C180.579 434.239 180.79 433.888 181.773 433.747L190.765 432.202C191.749 432.061 193.154 432.131 193.857 432.342L200.46 434.731C201.233 434.941 201.022 435.293 199.968 435.503Z" fill="url(#paint93_linear)"/>
        <path d="M217.039 432.623L208.047 434.169C207.064 434.309 205.659 434.239 204.956 434.028L198.353 431.639C197.65 431.358 197.861 431.007 198.844 430.867L207.837 429.321C208.82 429.181 210.225 429.251 210.928 429.462L217.531 431.85C218.304 432.061 218.093 432.412 217.039 432.623Z" fill="url(#paint94_linear)"/>
        <path d="M234.18 429.673L225.188 431.218C224.205 431.359 222.8 431.288 222.097 431.078L215.493 428.689C214.791 428.408 215.002 428.057 215.985 427.916L224.977 426.371C225.961 426.23 227.366 426.3 228.068 426.511L234.672 428.9C235.375 429.181 235.164 429.532 234.18 429.673Z" fill="url(#paint95_linear)"/>
        <path d="M251.252 426.792L242.259 428.338C241.276 428.478 239.871 428.408 239.168 428.197L232.565 425.809C231.862 425.528 232.073 425.176 233.057 425.036L242.049 423.49C243.032 423.35 244.437 423.42 245.14 423.631L251.743 426.019C252.446 426.3 252.235 426.652 251.252 426.792Z" fill="url(#paint96_linear)"/>
        <path d="M123.255 460.934L103.514 464.306C102.531 464.447 101.126 464.376 100.423 464.166L93.8194 461.777C93.1169 461.496 93.3277 461.145 94.3112 461.004L114.052 457.632C115.035 457.492 116.44 457.562 117.143 457.773L123.746 460.161C124.449 460.372 124.238 460.723 123.255 460.934Z" fill="url(#paint97_linear)"/>
        <path d="M297.758 431.288L282.794 433.817C281.811 433.958 280.406 433.888 279.703 433.677L273.1 431.288C272.397 431.007 272.608 430.656 273.591 430.516L288.555 427.986C289.538 427.846 290.943 427.916 291.646 428.127L298.25 430.516C299.022 430.797 298.741 431.148 297.758 431.288Z" fill="url(#paint98_linear)"/>
        <path d="M139.693 458.124L130.701 459.67C129.717 459.81 128.312 459.74 127.61 459.529L121.006 457.141C120.304 456.86 120.514 456.508 121.498 456.368L130.49 454.822C131.474 454.682 132.879 454.752 133.581 454.963L140.185 457.351C140.887 457.562 140.676 457.913 139.693 458.124Z" fill="url(#paint99_linear)"/>
        <path d="M156.342 455.314L147.35 456.86C146.367 457 144.962 456.93 144.259 456.719L137.656 454.331C136.953 454.05 137.164 453.698 138.147 453.558L147.139 452.012C148.123 451.872 149.528 451.942 150.231 452.153L156.834 454.541C157.537 454.752 157.326 455.103 156.342 455.314Z" fill="url(#paint100_linear)"/>
        <path d="M173.414 452.364L164.422 453.909C163.438 454.05 162.033 453.979 161.331 453.769L154.727 451.38C154.024 451.099 154.235 450.748 155.219 450.607L164.211 449.062C165.194 448.921 166.599 448.991 167.302 449.202L173.905 451.591C174.608 451.872 174.397 452.223 173.414 452.364Z" fill="url(#paint101_linear)"/>
        <path d="M190.063 449.554L181.071 451.099C180.087 451.24 178.682 451.169 177.98 450.959L171.376 448.57C170.674 448.289 170.884 447.938 171.868 447.797L180.86 446.252C181.843 446.111 183.248 446.181 183.951 446.392L190.555 448.781C191.327 449.062 191.117 449.413 190.063 449.554Z" fill="url(#paint102_linear)"/>
        <path d="M207.204 446.673L198.212 448.219C197.229 448.359 195.824 448.289 195.121 448.078L188.517 445.69C187.815 445.409 188.026 445.057 189.009 444.917L198.001 443.371C198.985 443.231 200.39 443.301 201.092 443.512L207.696 445.901C208.398 446.111 208.188 446.463 207.204 446.673Z" fill="url(#paint103_linear)"/>
        <path d="M223.854 443.863L214.861 445.409C213.878 445.549 212.473 445.479 211.77 445.268L205.167 442.88C204.464 442.599 204.675 442.247 205.659 442.107L214.651 440.561C215.634 440.421 217.039 440.491 217.742 440.702L224.345 443.09C225.048 443.301 224.837 443.652 223.854 443.863Z" fill="url(#paint104_linear)"/>
        <path d="M240.924 440.913L231.932 442.458C230.949 442.599 229.544 442.528 228.841 442.318L222.238 439.929C221.535 439.648 221.746 439.297 222.729 439.156L231.722 437.611C232.705 437.47 234.11 437.541 234.813 437.751L241.416 440.14C242.119 440.421 241.908 440.772 240.924 440.913Z" fill="url(#paint105_linear)"/>
        <path d="M257.996 438.032L249.004 439.578C248.02 439.718 246.615 439.648 245.913 439.437L239.309 437.049C238.606 436.768 238.817 436.417 239.801 436.276L248.793 434.731C249.776 434.59 251.181 434.66 251.884 434.871L258.487 437.26C259.19 437.541 258.979 437.892 257.996 438.032Z" fill="url(#paint106_linear)"/>
        <path d="M275.067 435.152L266.075 436.698C265.091 436.838 263.686 436.768 262.984 436.557L256.38 434.169C255.678 433.888 255.888 433.536 256.872 433.396L265.864 431.85C266.848 431.71 268.253 431.78 268.955 431.991L275.559 434.379C276.261 434.59 276.05 434.941 275.067 435.152Z" fill="url(#paint107_linear)"/>
        <path d="M50.3708 459.111L45.2826 457.328C44.4595 457.043 43.8608 456.187 43.8608 455.403C43.8608 454.618 44.5343 454.262 45.2826 454.547L50.3708 456.33C51.1939 456.615 51.7925 457.471 51.7925 458.255C51.7925 459.04 51.1939 459.396 50.3708 459.111Z" fill="#383838"/>
        <path d="M44.1693 455.545C44.1693 454.827 44.6011 454.468 45.218 454.611L45.033 454.54C44.3544 454.252 43.8608 454.683 43.8608 455.402C43.8608 456.12 44.4161 457.054 45.033 457.341L49.2279 459.137C49.2896 459.137 49.3513 459.209 49.413 459.209L45.4031 457.485C44.7245 457.197 44.1693 456.335 44.1693 455.545Z" fill="#5D5D5D"/>
        <path d="M60.5347 463.077L54.9417 461.294C54.0369 461.009 53.3789 460.153 53.3789 459.369C53.3789 458.584 54.1192 458.228 54.9417 458.513L60.5347 460.296C61.4395 460.581 62.0975 461.437 62.0975 462.221C62.1798 463.006 61.4395 463.362 60.5347 463.077Z" fill="#383838"/>
        <path d="M53.7314 459.328C53.7314 458.73 54.225 458.431 54.93 458.55L54.7185 458.49C53.9429 458.251 53.3789 458.61 53.3789 459.209C53.3789 459.807 54.0134 460.585 54.7185 460.825L59.5127 462.321C59.5832 462.321 59.6538 462.381 59.7243 462.381L55.1415 460.945C54.366 460.705 53.7314 459.987 53.7314 459.328Z" fill="#5D5D5D"/>
        <path opacity="0.85" d="M316.4 374.015L117.937 405.978C113.861 406.607 110.487 403.81 110.487 399.613V277.915C110.487 273.789 113.79 269.872 117.937 269.173L316.4 237.21C320.477 236.58 323.85 239.378 323.85 243.574V365.272C323.85 369.469 320.547 373.315 316.4 374.015Z" fill="white"/>
        <path opacity="0.8" d="M385.434 290.407L337.616 298.107C333.555 298.737 330.195 295.937 330.195 291.737V241.761C330.195 237.631 333.485 233.712 337.616 233.012L385.434 225.312C389.495 224.682 392.855 227.482 392.855 231.682V281.658C392.855 285.858 389.495 289.777 385.434 290.407Z" fill="white"/>
        <path opacity="0.8" d="M385.434 362.586L337.616 370.285C333.555 370.915 330.195 368.115 330.195 363.916V313.939C330.195 309.81 333.485 305.89 337.616 305.19L385.434 297.491C389.495 296.861 392.855 299.66 392.855 303.86V353.836C392.855 358.036 389.495 361.886 385.434 362.586Z" fill="white"/>
        <path opacity="0.6" d="M281.669 290.264L221.844 367.182L193.372 351L176.64 364.38L152.246 351.981L110.487 389.179V399.967C110.487 403.89 113.651 406.552 117.517 405.992L316.82 373.907C320.686 373.277 323.85 369.564 323.85 365.641V335.168L281.669 290.264Z" fill="url(#paint108_linear)"/>
        <path d="M323.85 332.907L285.421 291.499C285.631 290.937 285.772 290.374 285.772 289.742C285.772 287.492 284.016 285.945 281.767 286.367C279.59 286.719 277.763 288.828 277.763 291.077C277.763 291.64 277.904 292.132 278.044 292.624L224.932 362.715C224.229 362.223 223.316 361.942 222.332 362.082C220.997 362.293 219.803 363.137 219.101 364.262L197.251 351.678C197.392 351.256 197.462 350.834 197.462 350.412C197.462 348.162 195.706 346.616 193.458 347.038C191.28 347.389 189.453 349.498 189.453 351.748C189.453 352.099 189.523 352.381 189.594 352.662L180.109 360.817C179.407 360.043 178.283 359.692 177.088 359.903C175.894 360.114 174.84 360.817 174.068 361.801L156.082 352.521C156.153 352.31 156.153 352.099 156.153 351.818C156.153 349.568 154.396 348.022 152.148 348.444C149.97 348.795 148.144 350.904 148.144 353.154C148.144 353.435 148.144 353.716 148.214 353.927L110.487 387.391V390.203L149.268 355.755C149.97 356.388 151.024 356.669 152.148 356.528C153.342 356.317 154.326 355.685 155.099 354.7L173.084 363.98C173.084 364.191 173.014 364.402 173.014 364.543C173.014 366.792 174.77 368.339 177.018 367.917C179.196 367.566 181.023 365.457 181.023 363.207C181.023 362.996 181.023 362.855 180.952 362.715L190.577 354.419C191.28 354.982 192.263 355.263 193.317 355.122C194.301 354.982 195.144 354.49 195.846 353.787L218.187 366.652C218.187 366.722 218.187 366.722 218.187 366.792C218.187 369.042 219.944 370.589 222.192 370.167C224.37 369.815 226.196 367.706 226.196 365.457C226.196 365.105 226.126 364.754 226.056 364.472L279.449 294.1C280.081 294.452 280.854 294.592 281.697 294.452C282.47 294.311 283.243 293.96 283.805 293.468L323.709 336.492V332.907H323.85Z" fill="url(#paint109_linear)"/>
        <path opacity="0.5" d="M386.51 259.61C386.51 274.109 375.127 287.693 361.129 289.945C347.13 292.197 335.747 282.273 335.747 267.775C335.747 253.276 347.13 239.692 361.129 237.44C375.127 235.188 386.51 245.112 386.51 259.61Z" fill="url(#paint110_linear)"/>
        <path opacity="0.5" d="M360.732 263.296L342.885 285.081C347.452 289.153 353.776 291.081 360.732 289.938C367.687 288.796 374.011 284.724 378.578 279.153L360.732 263.296Z" fill="white"/>
        <path opacity="0.2" d="M384.317 248.226L361.922 262.839L379.318 278.366C383.29 273.589 386.578 266.352 386.509 258.553C386.509 254.689 385.687 251.247 384.317 248.226Z" fill="black"/>
        <g opacity="0.6">
            <path opacity="0.6" d="M347.565 339.681L339.908 340.945V358.297L347.565 357.033V339.681Z" fill="url(#paint111_linear)"/>
            <path opacity="0.6" d="M359.157 328.792L351.499 329.986V356.401L359.157 355.206V328.792Z" fill="url(#paint112_linear)"/>
            <path opacity="0.6" d="M370.537 342.14L362.88 343.404V354.574L370.537 353.38V342.14Z" fill="url(#paint113_linear)"/>
            <path opacity="0.6" d="M382.41 314.601L374.752 315.796V352.677L382.41 351.413V314.601Z" fill="url(#paint114_linear)"/>
        </g>
        <path opacity="0.2" d="M59.3257 470.699V449.062H-51.1089V495.849C-51.1089 502.944 -45.6996 509.969 -34.9512 515.379C-21.5332 522.052 -4.25148 523.738 13.0303 522.123C15.0675 527.251 21.4604 533.082 29.3987 537.016C50.9658 547.835 85.9508 547.835 107.518 537.016C118.337 531.607 123.676 524.581 123.676 517.486V470.699H59.3257Z" fill="black"/>
        <path d="M-51.3193 445.619V492.407C-51.3193 499.502 -45.91 506.527 -35.1616 511.936C-13.5946 522.755 21.3904 522.755 42.9575 511.936C53.7761 506.527 59.1152 499.502 59.1152 492.407V445.619H-51.3193Z" fill="url(#paint115_linear)"/>
        <path d="M3.89794 474.493C34.3936 474.493 59.1152 462.132 59.1152 446.884C59.1152 431.636 34.3936 419.275 3.89794 419.275C-26.5977 419.275 -51.3193 431.636 -51.3193 446.884C-51.3193 462.132 -26.5977 474.493 3.89794 474.493Z" fill="url(#paint116_linear)"/>
        <path opacity="0.6" d="M24.13 439.437C21.4605 439.227 18.7909 439.508 16.0512 440.21C16.7537 439.086 16.8942 437.962 16.3322 436.838C15.7702 435.714 14.6461 434.731 12.9601 433.887C10.0798 432.482 6.63752 431.92 2.63322 432.201C-0.317324 432.412 -3.40837 433.185 -6.56967 434.449L-11.698 431.92L-17.5991 434.871L-12.6815 437.33L-14.6485 438.313L-19.5661 435.855L-25.4672 438.805L-20.5496 441.264L-27.5747 444.776L8.2533 462.69L15.2784 459.178L20.5472 461.847L26.4483 458.897L21.1795 456.227L23.1465 455.244L28.4153 457.913L34.3164 454.963L28.9773 452.293C32.3494 450.396 34.3867 448.57 35.0189 446.814C35.7917 444.776 34.5974 442.95 31.4361 441.334C29.2583 440.28 26.7996 439.648 24.13 439.437ZM5.72426 438.665C7.12928 439.367 7.62104 440.14 7.34003 441.053C6.98878 441.966 5.79451 442.88 3.75723 443.933L-4.46214 448.078L-12.8923 443.863L-4.67289 439.718C-2.63561 438.665 -0.738832 438.103 1.01744 437.892C2.77372 437.681 4.31924 437.962 5.72426 438.665ZM23.9193 447.586C23.4978 448.5 22.2332 449.483 20.0555 450.607L10.3608 455.455L1.5092 451.029L11.2038 446.181C15.6297 444.004 19.2827 443.652 22.2332 445.128C23.7788 445.9 24.3408 446.673 23.9193 447.586Z" fill="white"/>
        <path opacity="0.6" d="M39.6558 465.079C20.126 474.844 -11.6977 474.844 -31.2274 465.079C-50.7572 455.314 -50.7572 439.367 -31.2274 429.602C-11.6977 419.837 20.126 419.837 39.6558 429.602C59.1856 439.367 59.1856 455.244 39.6558 465.079ZM-29.2604 430.586C-47.7364 439.789 -47.7364 454.822 -29.2604 464.025C-10.7844 473.228 19.2128 473.228 37.6185 464.025C56.0243 454.822 56.0946 439.789 37.6185 430.586C19.1425 421.383 -10.7844 421.383 -29.2604 430.586Z" fill="white"/>
        <path opacity="0.2" d="M43.3087 503.717C21.7417 514.536 -13.3838 514.536 -34.9509 503.717C-40.2197 501.118 -44.2942 498.027 -47.034 494.655C-49.1416 492.055 -50.8978 488.754 -51.3193 486.014V488.824C-49.4928 494.795 -44.0132 500.275 -35.3724 504.56C-24.4835 510.04 -10.1523 512.709 4.17894 512.709C18.5101 512.709 32.8413 509.969 43.7302 504.56C51.6686 500.556 56.9374 495.638 59.1855 490.159V486.646C58.764 489.386 57.4994 492.055 55.3919 494.584C52.5819 498.027 48.5073 501.047 43.3087 503.717Z" fill="white"/>
        <path opacity="0.2" d="M43.3087 494.584C21.7417 505.403 -13.3838 505.403 -34.9509 494.584C-40.2197 491.985 -44.2942 488.894 -47.034 485.522C-49.1416 482.923 -50.8978 479.621 -51.3193 476.881V479.691C-49.4928 485.662 -44.0132 491.142 -35.3724 495.427C-24.4835 500.907 -10.1523 503.576 4.17894 503.576C18.5101 503.576 32.8413 500.837 43.7302 495.427C51.6686 491.423 56.9374 486.505 59.1855 481.026V477.513C58.764 480.253 57.4994 482.923 55.3919 485.452C52.5819 488.894 48.5073 491.985 43.3087 494.584Z" fill="white"/>
        <path opacity="0.2" d="M43.3087 484.117C21.7417 494.936 -13.3838 494.936 -34.9509 484.117C-40.2197 481.518 -44.2942 478.427 -47.034 475.055C-49.1416 472.455 -50.8978 469.154 -51.3193 466.414V469.224C-49.4928 475.195 -44.0132 480.675 -35.3724 484.96C-24.4835 490.44 -10.1523 493.109 4.17894 493.109C18.5101 493.109 32.8413 490.369 43.7302 484.96C51.6686 480.956 56.9374 476.038 59.1855 470.559V467.046C58.764 469.786 57.4994 472.455 55.3919 474.984C52.5819 478.427 48.5073 481.447 43.3087 484.117Z" fill="white"/>
        <path opacity="0.2" d="M43.3087 473.228C21.7417 484.047 -13.3838 484.047 -34.9509 473.228C-40.2197 470.629 -44.2942 467.538 -47.034 464.166C-49.1416 461.566 -50.8978 458.265 -51.3193 455.525V458.335C-49.4928 464.306 -44.0132 469.786 -35.3724 474.071C-24.4835 479.551 -10.1523 482.22 4.17894 482.22C18.5101 482.22 32.8413 479.48 43.7302 474.071C51.6686 470.067 56.9374 465.149 59.1855 459.67V456.157C58.764 458.897 57.4994 461.566 55.3919 464.095C52.5819 467.538 48.5073 470.558 43.3087 473.228Z" fill="white"/>
        <path d="M13.1011 467.257V514.044C13.1011 521.139 18.5104 528.164 29.2588 533.574C50.8259 544.392 85.8108 544.392 107.378 533.574C118.197 528.164 123.536 521.139 123.536 514.044V467.257H13.1011Z" fill="url(#paint117_linear)"/>
        <path d="M68.3184 496.2C98.814 496.2 123.536 483.839 123.536 468.591C123.536 453.344 98.814 440.983 68.3184 440.983C37.8227 440.983 13.1011 453.344 13.1011 468.591C13.1011 483.839 37.8227 496.2 68.3184 496.2Z" fill="url(#paint118_linear)"/>
        <path opacity="0.6" d="M88.5499 461.075C85.8804 460.864 83.2109 461.145 80.4711 461.847C81.1736 460.723 81.3141 459.599 80.7521 458.475C80.1901 457.351 79.0661 456.368 77.38 455.525C74.4997 454.12 71.0574 453.558 67.0531 453.839C64.1026 454.05 61.0115 454.822 57.8503 456.087L52.7219 453.558L46.8209 456.508L51.7384 458.967L49.7714 459.951L44.8538 457.492L38.9527 460.442L43.8703 462.901L36.8452 466.414L72.6732 484.328L79.6983 480.815L84.9671 483.485L90.8682 480.534L85.5994 477.865L87.5664 476.881L92.8353 479.551L98.7363 476.6L93.3973 473.931C96.7693 472.034 98.8066 470.207 99.4388 468.451C100.212 466.414 99.0173 464.587 95.856 462.971C93.6783 461.918 91.2195 461.285 88.5499 461.075ZM70.1442 460.302C71.5492 461.004 72.041 461.777 71.76 462.69C71.4087 463.604 70.2144 464.517 68.1772 465.571L59.9578 469.716L51.5277 465.5L59.747 461.356C61.7843 460.302 63.6811 459.74 65.4374 459.529C67.1234 459.318 68.7392 459.599 70.1442 460.302ZM88.3392 469.294C87.9177 470.207 86.6532 471.191 84.4754 472.315L74.7807 477.162L65.9291 472.736L75.6238 467.889C80.0496 465.711 83.7026 465.36 86.6532 466.835C88.1987 467.538 88.7607 468.381 88.3392 469.294Z" fill="white"/>
        <path opacity="0.6" d="M104.076 486.716C84.546 496.481 52.7223 496.481 33.1925 486.716C13.6627 476.951 13.6627 461.004 33.1925 451.239C52.7223 441.475 84.546 441.475 104.076 451.239C123.606 461.004 123.606 476.951 104.076 486.716ZM35.1595 452.293C16.6835 461.496 16.6835 476.53 35.1595 485.733C53.6355 494.936 83.6327 494.936 102.038 485.733C120.514 476.53 120.514 461.496 102.038 452.293C83.5624 443.09 53.6355 443.02 35.1595 452.293Z" fill="white"/>
        <path opacity="0.2" d="M107.729 525.354C86.1621 536.173 51.0366 536.173 29.4696 525.354C24.2007 522.755 20.1262 519.664 17.3864 516.292C15.2789 513.693 13.5226 510.391 13.1011 507.651V510.461C14.9276 516.432 20.4072 521.912 29.048 526.197C39.9369 531.677 54.2682 534.346 68.5993 534.346C82.9305 534.346 97.2617 531.607 108.151 526.197C116.089 522.193 121.358 517.275 123.606 511.796V508.283C123.184 511.023 121.92 513.693 119.812 516.222C117.002 519.664 112.928 522.755 107.729 525.354Z" fill="white"/>
        <path opacity="0.2" d="M107.729 516.292C86.1621 527.111 51.0366 527.111 29.4696 516.292C24.2007 513.693 20.1262 510.602 17.3864 507.23C15.2789 504.63 13.5226 501.328 13.1011 498.589V501.399C14.9276 507.37 20.4072 512.85 29.048 517.135C39.9369 522.614 54.2682 525.284 68.5993 525.284C82.9305 525.284 97.2617 522.544 108.151 517.135C116.089 513.131 121.358 508.213 123.606 502.733V499.221C123.184 501.961 121.92 504.63 119.812 507.159C117.002 510.602 112.928 513.622 107.729 516.292Z" fill="white"/>
        <path opacity="0.2" d="M107.729 505.754C86.1621 516.573 51.0366 516.573 29.4696 505.754C24.2007 503.155 20.1262 500.064 17.3864 496.692C15.2789 494.093 13.5226 490.791 13.1011 488.051V490.861C14.9276 496.832 20.4072 502.312 29.048 506.597C39.9369 512.077 54.2682 514.746 68.5993 514.746C82.9305 514.746 97.2617 512.007 108.151 506.597C116.089 502.593 121.358 497.675 123.606 492.196V488.683C123.184 491.423 121.92 494.093 119.812 496.622C117.002 500.064 112.928 503.155 107.729 505.754Z" fill="white"/>
        <path opacity="0.2" d="M107.729 494.865C86.1621 505.684 51.0366 505.684 29.4696 494.865C24.2007 492.266 20.1262 489.175 17.3864 485.803C15.2789 483.204 13.5226 479.902 13.1011 477.162V479.972C14.9276 485.943 20.4072 491.423 29.048 495.708C39.9369 501.188 54.2682 503.857 68.5993 503.857C82.9305 503.857 97.2617 501.118 108.151 495.708C116.089 491.704 121.358 486.786 123.606 481.307V477.794C123.184 480.534 121.92 483.204 119.812 485.733C117.002 489.175 112.928 492.266 107.729 494.865Z" fill="white"/>
        <path d="M12.8201 421.383V468.17C12.8201 475.265 18.2294 482.29 28.9778 487.7C50.5448 498.518 85.5298 498.518 107.097 487.7C117.916 482.29 123.255 475.265 123.255 468.17V421.383H12.8201Z" fill="url(#paint119_linear)"/>
        <path d="M68.0373 450.256C98.533 450.256 123.255 437.895 123.255 422.647C123.255 407.4 98.533 395.039 68.0373 395.039C37.5417 395.039 12.8201 407.4 12.8201 422.647C12.8201 437.895 37.5417 450.256 68.0373 450.256Z" fill="url(#paint120_linear)"/>
        <path opacity="0.6" d="M88.2692 415.201C85.5996 414.99 82.9301 415.271 80.1903 415.973C80.8928 414.849 81.0333 413.725 80.4713 412.601C79.9093 411.477 78.7853 410.494 77.0993 409.651C74.219 408.246 70.7767 407.684 66.7724 407.965C63.8218 408.176 60.7308 408.948 57.5695 410.213L52.4412 407.684L46.5401 410.634L51.4577 413.093L49.4906 414.077L44.5731 411.618L38.672 414.568L43.5896 417.027L36.5645 420.54L72.3925 438.454L79.4176 434.941L84.6864 437.611L90.5875 434.66L85.3186 431.991L87.2856 431.007L92.5545 433.677L98.4556 430.726L93.1165 428.057C96.4885 426.16 98.5258 424.333 99.1581 422.577C99.9308 420.54 98.7366 418.713 95.5753 417.097C93.3975 415.973 90.9387 415.341 88.2692 415.201ZM69.8634 414.358C71.2684 415.06 71.7602 415.833 71.4792 416.746C71.1279 417.66 69.9337 418.573 67.8964 419.627L59.677 423.771L51.2469 419.556L59.4663 415.411C61.5035 414.358 63.4003 413.796 65.1566 413.585C66.8426 413.444 68.4584 413.655 69.8634 414.358ZM88.0584 423.35C87.6369 424.263 86.3724 425.247 84.1946 426.371L74.5 431.218L65.6484 426.792L75.343 421.945C79.7688 419.767 83.4219 419.416 86.3724 420.891C87.8477 421.594 88.4097 422.437 88.0584 423.35Z" fill="white"/>
        <path opacity="0.6" d="M103.794 440.772C84.2647 450.537 52.441 450.537 32.9112 440.772C13.3815 431.007 13.3815 415.06 32.9112 405.295C52.441 395.53 84.2647 395.53 103.794 405.295C123.324 415.13 123.324 431.007 103.794 440.772ZM34.8783 406.349C16.4023 415.552 16.4023 430.586 34.8783 439.789C53.3543 448.991 83.3514 448.991 101.757 439.789C120.163 430.586 120.233 415.552 101.757 406.349C83.2812 397.146 53.284 397.146 34.8783 406.349Z" fill="white"/>
        <path opacity="0.2" d="M107.377 479.41C85.8103 490.229 50.6848 490.229 29.1177 479.41C23.8489 476.811 19.7744 473.72 17.0346 470.348C14.9271 467.748 13.1708 464.447 12.7493 461.707V464.517C14.5758 470.488 20.0554 475.968 28.6962 480.253C39.5851 485.733 53.9163 488.402 68.2475 488.402C82.5787 488.402 96.9099 485.662 107.799 480.253C115.737 476.249 121.006 471.331 123.254 465.852V462.339C122.833 465.079 121.568 467.748 119.461 470.277C116.721 473.79 112.646 476.811 107.377 479.41Z" fill="white"/>
        <path opacity="0.2" d="M107.377 470.348C85.8103 481.166 50.6848 481.166 29.1177 470.348C23.8489 467.748 19.7744 464.657 17.0346 461.285C14.9271 458.686 13.1708 455.384 12.7493 452.645V455.455C14.5758 461.426 20.0554 466.905 28.6962 471.191C39.5851 476.67 53.9163 479.34 68.2475 479.34C82.5787 479.34 96.9099 476.6 107.799 471.191C115.737 467.186 121.006 462.269 123.254 456.789V453.277C122.833 456.017 121.568 458.686 119.461 461.215C116.721 464.657 112.646 467.748 107.377 470.348Z" fill="white"/>
        <path opacity="0.2" d="M107.377 459.81C85.8103 470.629 50.6848 470.629 29.1177 459.81C23.8489 457.211 19.7744 454.12 17.0346 450.748C14.9271 448.148 13.1708 444.847 12.7493 442.107V444.917C14.5758 450.888 20.0554 456.368 28.6962 460.653C39.5851 466.133 53.9163 468.802 68.2475 468.802C82.5787 468.802 96.9099 466.062 107.799 460.653C115.737 456.649 121.006 451.731 123.254 446.252V442.739C122.833 445.479 121.568 448.148 119.461 450.677C116.721 454.19 112.646 457.211 107.377 459.81Z" fill="white"/>
        <path opacity="0.2" d="M107.377 448.921C85.8103 459.74 50.6848 459.74 29.1177 448.921C23.8489 446.322 19.7744 443.231 17.0346 439.859C14.9271 437.26 13.1708 433.958 12.7493 431.218V434.028C14.5758 439.999 20.0554 445.479 28.6962 449.764C39.5851 455.244 53.9163 457.913 68.2475 457.913C82.5787 457.913 96.9099 455.174 107.799 449.764C115.737 445.76 121.006 440.842 123.254 435.363V431.85C122.833 434.59 121.568 437.26 119.461 439.789C116.721 443.301 112.646 446.322 107.377 448.921Z" fill="white"/>
        <path opacity="0.1" d="M301.247 440.993L129.917 471.914C129.289 472.057 128.73 472.629 128.73 473.271C128.73 473.914 129.219 474.342 129.917 474.271L301.247 443.35C301.875 443.207 302.434 442.636 302.434 441.993C302.434 441.279 301.945 440.85 301.247 440.993Z" fill="black"/>
        <path opacity="0.1" d="M329.896 436.207L312.347 438.922C311.718 439.046 311.159 439.539 311.159 440.095C311.159 440.65 311.648 441.021 312.347 440.959L334.161 437.565L329.896 436.207Z" fill="black"/>
    </g>
    <defs>
        <linearGradient id="paint0_linear" x1="-139" y1="329.788" x2="504.845" y2="329.788" gradientUnits="userSpaceOnUse">
            <stop stop-color="#9A00FF"/>
            <stop offset="0.2766" stop-color="#9702FF"/>
            <stop offset="0.4783" stop-color="#8E08FD"/>
            <stop offset="0.6563" stop-color="#7E13FB"/>
            <stop offset="0.8204" stop-color="#6721F8"/>
            <stop offset="0.9738" stop-color="#4B34F4"/>
            <stop offset="1" stop-color="#4538F3"/>
        </linearGradient>
        <linearGradient id="paint1_linear" x1="10.6299" y1="457.537" x2="273.65" y2="256.061" gradientUnits="userSpaceOnUse">
            <stop stop-color="#4538F3"/>
            <stop offset="0.027806" stop-color="#4A36F3"/>
            <stop offset="0.3444" stop-color="#7A1FF8"/>
            <stop offset="0.6233" stop-color="#9D0EFC"/>
            <stop offset="0.8514" stop-color="#B204FE"/>
            <stop offset="1" stop-color="#BA00FF"/>
        </linearGradient>
        <linearGradient id="paint2_linear" x1="37.4795" y1="450.494" x2="373.03" y2="450.494" gradientUnits="userSpaceOnUse">
            <stop stop-color="white"/>
            <stop offset="0.0410243" stop-color="#F9F9F9"/>
            <stop offset="0.306" stop-color="#D9D9D9"/>
            <stop offset="0.5604" stop-color="#C2C1C1"/>
            <stop offset="0.7975" stop-color="#B4B3B3"/>
            <stop offset="1" stop-color="#AFAEAE"/>
        </linearGradient>
        <linearGradient id="paint3_linear" x1="59.2852" y1="452.604" x2="270.013" y2="390.839" gradientUnits="userSpaceOnUse">
            <stop stop-color="#969594"/>
            <stop offset="1" stop-color="#48443E"/>
        </linearGradient>
        <linearGradient id="paint4_linear" x1="59.8542" y1="454.544" x2="270.582" y2="392.779" gradientUnits="userSpaceOnUse">
            <stop stop-color="#969594"/>
            <stop offset="1" stop-color="#48443E"/>
        </linearGradient>
        <linearGradient id="paint5_linear" x1="60.4082" y1="456.436" x2="271.136" y2="394.671" gradientUnits="userSpaceOnUse">
            <stop stop-color="#969594"/>
            <stop offset="1" stop-color="#48443E"/>
        </linearGradient>
        <linearGradient id="paint6_linear" x1="60.977" y1="458.375" x2="271.705" y2="396.61" gradientUnits="userSpaceOnUse">
            <stop stop-color="#969594"/>
            <stop offset="1" stop-color="#48443E"/>
        </linearGradient>
        <linearGradient id="paint7_linear" x1="61.5321" y1="460.268" x2="272.26" y2="398.504" gradientUnits="userSpaceOnUse">
            <stop stop-color="#969594"/>
            <stop offset="1" stop-color="#48443E"/>
        </linearGradient>
        <linearGradient id="paint8_linear" x1="62.1004" y1="462.208" x2="272.828" y2="400.443" gradientUnits="userSpaceOnUse">
            <stop stop-color="#969594"/>
            <stop offset="1" stop-color="#48443E"/>
        </linearGradient>
        <linearGradient id="paint9_linear" x1="62.6547" y1="464.1" x2="273.382" y2="402.335" gradientUnits="userSpaceOnUse">
            <stop stop-color="#969594"/>
            <stop offset="1" stop-color="#48443E"/>
        </linearGradient>
        <linearGradient id="paint10_linear" x1="63.2237" y1="466.04" x2="273.951" y2="404.275" gradientUnits="userSpaceOnUse">
            <stop stop-color="#969594"/>
            <stop offset="1" stop-color="#48443E"/>
        </linearGradient>
        <linearGradient id="paint11_linear" x1="63.7935" y1="467.985" x2="274.521" y2="406.22" gradientUnits="userSpaceOnUse">
            <stop stop-color="#969594"/>
            <stop offset="1" stop-color="#48443E"/>
        </linearGradient>
        <linearGradient id="paint12_linear" x1="64.3619" y1="469.925" x2="275.089" y2="408.16" gradientUnits="userSpaceOnUse">
            <stop stop-color="#969594"/>
            <stop offset="1" stop-color="#48443E"/>
        </linearGradient>
        <linearGradient id="paint13_linear" x1="64.9166" y1="471.817" x2="275.644" y2="410.052" gradientUnits="userSpaceOnUse">
            <stop stop-color="#969594"/>
            <stop offset="1" stop-color="#48443E"/>
        </linearGradient>
        <linearGradient id="paint14_linear" x1="65.4853" y1="473.756" x2="276.213" y2="411.991" gradientUnits="userSpaceOnUse">
            <stop stop-color="#969594"/>
            <stop offset="1" stop-color="#48443E"/>
        </linearGradient>
        <linearGradient id="paint15_linear" x1="67.5226" y1="480.707" x2="278.25" y2="418.942" gradientUnits="userSpaceOnUse">
            <stop stop-color="#969594"/>
            <stop offset="1" stop-color="#48443E"/>
        </linearGradient>
        <linearGradient id="paint16_linear" x1="68.0912" y1="482.647" x2="278.819" y2="420.882" gradientUnits="userSpaceOnUse">
            <stop stop-color="#969594"/>
            <stop offset="1" stop-color="#48443E"/>
        </linearGradient>
        <linearGradient id="paint17_linear" x1="68.6454" y1="484.539" x2="279.373" y2="422.774" gradientUnits="userSpaceOnUse">
            <stop stop-color="#969594"/>
            <stop offset="1" stop-color="#48443E"/>
        </linearGradient>
        <linearGradient id="paint18_linear" x1="70.3481" y1="490.347" x2="281.076" y2="428.583" gradientUnits="userSpaceOnUse">
            <stop stop-color="#969594"/>
            <stop offset="1" stop-color="#48443E"/>
        </linearGradient>
        <linearGradient id="paint19_linear" x1="72.0307" y1="496.088" x2="282.758" y2="434.323" gradientUnits="userSpaceOnUse">
            <stop stop-color="#969594"/>
            <stop offset="1" stop-color="#48443E"/>
        </linearGradient>
        <linearGradient id="paint20_linear" x1="72.5995" y1="498.028" x2="283.327" y2="436.263" gradientUnits="userSpaceOnUse">
            <stop stop-color="#969594"/>
            <stop offset="1" stop-color="#48443E"/>
        </linearGradient>
        <linearGradient id="paint21_linear" x1="73.1538" y1="499.92" x2="283.881" y2="438.155" gradientUnits="userSpaceOnUse">
            <stop stop-color="#969594"/>
            <stop offset="1" stop-color="#48443E"/>
        </linearGradient>
        <linearGradient id="paint22_linear" x1="73.7226" y1="501.859" x2="284.45" y2="440.094" gradientUnits="userSpaceOnUse">
            <stop stop-color="#969594"/>
            <stop offset="1" stop-color="#48443E"/>
        </linearGradient>
        <linearGradient id="paint23_linear" x1="63.7035" y1="467.677" x2="274.431" y2="405.912" gradientUnits="userSpaceOnUse">
            <stop stop-color="#969594"/>
            <stop offset="1" stop-color="#48443E"/>
        </linearGradient>
        <linearGradient id="paint24_linear" x1="64.5604" y1="470.601" x2="275.288" y2="408.836" gradientUnits="userSpaceOnUse">
            <stop stop-color="#969594"/>
            <stop offset="1" stop-color="#48443E"/>
        </linearGradient>
        <linearGradient id="paint25_linear" x1="65.1154" y1="472.494" x2="275.843" y2="410.729" gradientUnits="userSpaceOnUse">
            <stop stop-color="#969594"/>
            <stop offset="1" stop-color="#48443E"/>
        </linearGradient>
        <linearGradient id="paint26_linear" x1="65.684" y1="474.434" x2="276.412" y2="412.669" gradientUnits="userSpaceOnUse">
            <stop stop-color="#969594"/>
            <stop offset="1" stop-color="#48443E"/>
        </linearGradient>
        <linearGradient id="paint27_linear" x1="66.2385" y1="476.326" x2="276.966" y2="414.561" gradientUnits="userSpaceOnUse">
            <stop stop-color="#969594"/>
            <stop offset="1" stop-color="#48443E"/>
        </linearGradient>
        <linearGradient id="paint28_linear" x1="66.8068" y1="478.266" x2="277.534" y2="416.501" gradientUnits="userSpaceOnUse">
            <stop stop-color="#969594"/>
            <stop offset="1" stop-color="#48443E"/>
        </linearGradient>
        <linearGradient id="paint29_linear" x1="67.3767" y1="480.211" x2="278.104" y2="418.446" gradientUnits="userSpaceOnUse">
            <stop stop-color="#969594"/>
            <stop offset="1" stop-color="#48443E"/>
        </linearGradient>
        <linearGradient id="paint30_linear" x1="67.9457" y1="482.151" x2="278.673" y2="420.385" gradientUnits="userSpaceOnUse">
            <stop stop-color="#969594"/>
            <stop offset="1" stop-color="#48443E"/>
        </linearGradient>
        <linearGradient id="paint31_linear" x1="68.5003" y1="484.042" x2="279.228" y2="422.278" gradientUnits="userSpaceOnUse">
            <stop stop-color="#969594"/>
            <stop offset="1" stop-color="#48443E"/>
        </linearGradient>
        <linearGradient id="paint32_linear" x1="69.0685" y1="485.982" x2="279.796" y2="424.217" gradientUnits="userSpaceOnUse">
            <stop stop-color="#969594"/>
            <stop offset="1" stop-color="#48443E"/>
        </linearGradient>
        <linearGradient id="paint33_linear" x1="61.5234" y1="460.241" x2="272.251" y2="398.476" gradientUnits="userSpaceOnUse">
            <stop stop-color="#969594"/>
            <stop offset="1" stop-color="#48443E"/>
        </linearGradient>
        <linearGradient id="paint34_linear" x1="68.4425" y1="483.847" x2="279.17" y2="422.082" gradientUnits="userSpaceOnUse">
            <stop stop-color="#969594"/>
            <stop offset="1" stop-color="#48443E"/>
        </linearGradient>
        <linearGradient id="paint35_linear" x1="62.2517" y1="462.723" x2="272.979" y2="400.958" gradientUnits="userSpaceOnUse">
            <stop stop-color="#969594"/>
            <stop offset="1" stop-color="#48443E"/>
        </linearGradient>
        <linearGradient id="paint36_linear" x1="62.8058" y1="464.615" x2="273.533" y2="402.85" gradientUnits="userSpaceOnUse">
            <stop stop-color="#969594"/>
            <stop offset="1" stop-color="#48443E"/>
        </linearGradient>
        <linearGradient id="paint37_linear" x1="63.3743" y1="466.555" x2="274.102" y2="404.79" gradientUnits="userSpaceOnUse">
            <stop stop-color="#969594"/>
            <stop offset="1" stop-color="#48443E"/>
        </linearGradient>
        <linearGradient id="paint38_linear" x1="63.9294" y1="468.448" x2="274.657" y2="406.683" gradientUnits="userSpaceOnUse">
            <stop stop-color="#969594"/>
            <stop offset="1" stop-color="#48443E"/>
        </linearGradient>
        <linearGradient id="paint39_linear" x1="64.4979" y1="470.388" x2="275.226" y2="408.623" gradientUnits="userSpaceOnUse">
            <stop stop-color="#969594"/>
            <stop offset="1" stop-color="#48443E"/>
        </linearGradient>
        <linearGradient id="paint40_linear" x1="65.0525" y1="472.28" x2="275.78" y2="410.515" gradientUnits="userSpaceOnUse">
            <stop stop-color="#969594"/>
            <stop offset="1" stop-color="#48443E"/>
        </linearGradient>
        <linearGradient id="paint41_linear" x1="65.6209" y1="474.219" x2="276.349" y2="412.454" gradientUnits="userSpaceOnUse">
            <stop stop-color="#969594"/>
            <stop offset="1" stop-color="#48443E"/>
        </linearGradient>
        <linearGradient id="paint42_linear" x1="66.1908" y1="476.165" x2="276.918" y2="414.4" gradientUnits="userSpaceOnUse">
            <stop stop-color="#969594"/>
            <stop offset="1" stop-color="#48443E"/>
        </linearGradient>
        <linearGradient id="paint43_linear" x1="66.7595" y1="478.104" x2="277.487" y2="416.339" gradientUnits="userSpaceOnUse">
            <stop stop-color="#969594"/>
            <stop offset="1" stop-color="#48443E"/>
        </linearGradient>
        <linearGradient id="paint44_linear" x1="65.6622" y1="474.36" x2="276.39" y2="412.595" gradientUnits="userSpaceOnUse">
            <stop stop-color="#969594"/>
            <stop offset="1" stop-color="#48443E"/>
        </linearGradient>
        <linearGradient id="paint45_linear" x1="71.5548" y1="494.464" x2="282.282" y2="432.699" gradientUnits="userSpaceOnUse">
            <stop stop-color="#969594"/>
            <stop offset="1" stop-color="#48443E"/>
        </linearGradient>
        <linearGradient id="paint46_linear" x1="66.3898" y1="476.843" x2="277.117" y2="415.078" gradientUnits="userSpaceOnUse">
            <stop stop-color="#969594"/>
            <stop offset="1" stop-color="#48443E"/>
        </linearGradient>
        <linearGradient id="paint47_linear" x1="66.9443" y1="478.735" x2="277.672" y2="416.97" gradientUnits="userSpaceOnUse">
            <stop stop-color="#969594"/>
            <stop offset="1" stop-color="#48443E"/>
        </linearGradient>
        <linearGradient id="paint48_linear" x1="67.5131" y1="480.674" x2="278.241" y2="418.91" gradientUnits="userSpaceOnUse">
            <stop stop-color="#969594"/>
            <stop offset="1" stop-color="#48443E"/>
        </linearGradient>
        <linearGradient id="paint49_linear" x1="68.0677" y1="482.568" x2="278.795" y2="420.803" gradientUnits="userSpaceOnUse">
            <stop stop-color="#969594"/>
            <stop offset="1" stop-color="#48443E"/>
        </linearGradient>
        <linearGradient id="paint50_linear" x1="68.6362" y1="484.507" x2="279.364" y2="422.742" gradientUnits="userSpaceOnUse">
            <stop stop-color="#969594"/>
            <stop offset="1" stop-color="#48443E"/>
        </linearGradient>
        <linearGradient id="paint51_linear" x1="69.191" y1="486.399" x2="279.918" y2="424.634" gradientUnits="userSpaceOnUse">
            <stop stop-color="#969594"/>
            <stop offset="1" stop-color="#48443E"/>
        </linearGradient>
        <linearGradient id="paint52_linear" x1="69.7588" y1="488.339" x2="280.486" y2="426.574" gradientUnits="userSpaceOnUse">
            <stop stop-color="#969594"/>
            <stop offset="1" stop-color="#48443E"/>
        </linearGradient>
        <linearGradient id="paint53_linear" x1="70.3297" y1="490.284" x2="281.057" y2="428.519" gradientUnits="userSpaceOnUse">
            <stop stop-color="#969594"/>
            <stop offset="1" stop-color="#48443E"/>
        </linearGradient>
        <linearGradient id="paint54_linear" x1="70.8986" y1="492.224" x2="281.626" y2="430.459" gradientUnits="userSpaceOnUse">
            <stop stop-color="#969594"/>
            <stop offset="1" stop-color="#48443E"/>
        </linearGradient>
        <linearGradient id="paint55_linear" x1="169.2" y1="461.689" x2="302.287" y2="461.689" gradientUnits="userSpaceOnUse">
            <stop stop-color="white"/>
            <stop offset="0.0410243" stop-color="#F9F9F9"/>
            <stop offset="0.306" stop-color="#D9D9D9"/>
            <stop offset="0.5604" stop-color="#C2C1C1"/>
            <stop offset="0.7975" stop-color="#B4B3B3"/>
            <stop offset="1" stop-color="#AFAEAE"/>
        </linearGradient>
        <linearGradient id="paint56_linear" x1="91.5041" y1="441.554" x2="258.989" y2="386.831" gradientUnits="userSpaceOnUse">
            <stop stop-color="#969594"/>
            <stop offset="1" stop-color="#676562"/>
        </linearGradient>
        <linearGradient id="paint57_linear" x1="92.296" y1="443.976" x2="259.781" y2="389.253" gradientUnits="userSpaceOnUse">
            <stop stop-color="#969594"/>
            <stop offset="1" stop-color="#676562"/>
        </linearGradient>
        <linearGradient id="paint58_linear" x1="93.0673" y1="446.339" x2="260.553" y2="391.616" gradientUnits="userSpaceOnUse">
            <stop stop-color="#969594"/>
            <stop offset="1" stop-color="#676562"/>
        </linearGradient>
        <linearGradient id="paint59_linear" x1="93.8589" y1="448.76" x2="261.344" y2="394.037" gradientUnits="userSpaceOnUse">
            <stop stop-color="#969594"/>
            <stop offset="1" stop-color="#676562"/>
        </linearGradient>
        <linearGradient id="paint60_linear" x1="94.6311" y1="451.124" x2="262.116" y2="396.401" gradientUnits="userSpaceOnUse">
            <stop stop-color="#969594"/>
            <stop offset="1" stop-color="#676562"/>
        </linearGradient>
        <linearGradient id="paint61_linear" x1="95.4223" y1="453.546" x2="262.907" y2="398.823" gradientUnits="userSpaceOnUse">
            <stop stop-color="#969594"/>
            <stop offset="1" stop-color="#676562"/>
        </linearGradient>
        <linearGradient id="paint62_linear" x1="96.1946" y1="455.908" x2="263.68" y2="401.185" gradientUnits="userSpaceOnUse">
            <stop stop-color="#969594"/>
            <stop offset="1" stop-color="#676562"/>
        </linearGradient>
        <linearGradient id="paint63_linear" x1="96.9852" y1="458.33" x2="264.47" y2="403.607" gradientUnits="userSpaceOnUse">
            <stop stop-color="#969594"/>
            <stop offset="1" stop-color="#676562"/>
        </linearGradient>
        <linearGradient id="paint64_linear" x1="97.779" y1="460.759" x2="265.264" y2="406.036" gradientUnits="userSpaceOnUse">
            <stop stop-color="#969594"/>
            <stop offset="1" stop-color="#676562"/>
        </linearGradient>
        <linearGradient id="paint65_linear" x1="98.5702" y1="463.181" x2="266.055" y2="408.458" gradientUnits="userSpaceOnUse">
            <stop stop-color="#969594"/>
            <stop offset="1" stop-color="#676562"/>
        </linearGradient>
        <linearGradient id="paint66_linear" x1="99.3421" y1="465.543" x2="266.827" y2="410.82" gradientUnits="userSpaceOnUse">
            <stop stop-color="#969594"/>
            <stop offset="1" stop-color="#676562"/>
        </linearGradient>
        <linearGradient id="paint67_linear" x1="100.134" y1="467.965" x2="267.619" y2="413.242" gradientUnits="userSpaceOnUse">
            <stop stop-color="#969594"/>
            <stop offset="1" stop-color="#676562"/>
        </linearGradient>
        <linearGradient id="paint68_linear" x1="100.975" y1="470.539" x2="268.46" y2="415.816" gradientUnits="userSpaceOnUse">
            <stop stop-color="#969594"/>
            <stop offset="1" stop-color="#676562"/>
        </linearGradient>
        <linearGradient id="paint69_linear" x1="101.766" y1="472.961" x2="269.251" y2="418.238" gradientUnits="userSpaceOnUse">
            <stop stop-color="#969594"/>
            <stop offset="1" stop-color="#676562"/>
        </linearGradient>
        <linearGradient id="paint70_linear" x1="102.538" y1="475.323" x2="270.023" y2="420.6" gradientUnits="userSpaceOnUse">
            <stop stop-color="#969594"/>
            <stop offset="1" stop-color="#676562"/>
        </linearGradient>
        <linearGradient id="paint71_linear" x1="104.908" y1="482.576" x2="272.393" y2="427.853" gradientUnits="userSpaceOnUse">
            <stop stop-color="#969594"/>
            <stop offset="1" stop-color="#676562"/>
        </linearGradient>
        <linearGradient id="paint72_linear" x1="107.25" y1="489.744" x2="274.735" y2="435.021" gradientUnits="userSpaceOnUse">
            <stop stop-color="#969594"/>
            <stop offset="1" stop-color="#676562"/>
        </linearGradient>
        <linearGradient id="paint73_linear" x1="108.041" y1="492.166" x2="275.526" y2="437.443" gradientUnits="userSpaceOnUse">
            <stop stop-color="#969594"/>
            <stop offset="1" stop-color="#676562"/>
        </linearGradient>
        <linearGradient id="paint74_linear" x1="108.813" y1="494.528" x2="276.298" y2="439.805" gradientUnits="userSpaceOnUse">
            <stop stop-color="#969594"/>
            <stop offset="1" stop-color="#676562"/>
        </linearGradient>
        <linearGradient id="paint75_linear" x1="109.604" y1="496.95" x2="277.089" y2="442.227" gradientUnits="userSpaceOnUse">
            <stop stop-color="#969594"/>
            <stop offset="1" stop-color="#676562"/>
        </linearGradient>
        <linearGradient id="paint76_linear" x1="96.6564" y1="457.322" x2="264.142" y2="402.599" gradientUnits="userSpaceOnUse">
            <stop stop-color="#969594"/>
            <stop offset="1" stop-color="#676562"/>
        </linearGradient>
        <linearGradient id="paint77_linear" x1="97.8491" y1="460.973" x2="265.334" y2="406.25" gradientUnits="userSpaceOnUse">
            <stop stop-color="#969594"/>
            <stop offset="1" stop-color="#676562"/>
        </linearGradient>
        <linearGradient id="paint78_linear" x1="98.6216" y1="463.337" x2="266.107" y2="408.614" gradientUnits="userSpaceOnUse">
            <stop stop-color="#969594"/>
            <stop offset="1" stop-color="#676562"/>
        </linearGradient>
        <linearGradient id="paint79_linear" x1="99.4129" y1="465.759" x2="266.898" y2="411.036" gradientUnits="userSpaceOnUse">
            <stop stop-color="#969594"/>
            <stop offset="1" stop-color="#676562"/>
        </linearGradient>
        <linearGradient id="paint80_linear" x1="100.185" y1="468.121" x2="267.67" y2="413.398" gradientUnits="userSpaceOnUse">
            <stop stop-color="#969594"/>
            <stop offset="1" stop-color="#676562"/>
        </linearGradient>
        <linearGradient id="paint81_linear" x1="100.976" y1="470.543" x2="268.461" y2="415.82" gradientUnits="userSpaceOnUse">
            <stop stop-color="#969594"/>
            <stop offset="1" stop-color="#676562"/>
        </linearGradient>
        <linearGradient id="paint82_linear" x1="101.769" y1="472.972" x2="269.254" y2="418.249" gradientUnits="userSpaceOnUse">
            <stop stop-color="#969594"/>
            <stop offset="1" stop-color="#676562"/>
        </linearGradient>
        <linearGradient id="paint83_linear" x1="102.561" y1="475.394" x2="270.046" y2="420.671" gradientUnits="userSpaceOnUse">
            <stop stop-color="#969594"/>
            <stop offset="1" stop-color="#676562"/>
        </linearGradient>
        <linearGradient id="paint84_linear" x1="103.333" y1="477.756" x2="270.818" y2="423.033" gradientUnits="userSpaceOnUse">
            <stop stop-color="#969594"/>
            <stop offset="1" stop-color="#676562"/>
        </linearGradient>
        <linearGradient id="paint85_linear" x1="104.124" y1="480.178" x2="271.609" y2="425.455" gradientUnits="userSpaceOnUse">
            <stop stop-color="#969594"/>
            <stop offset="1" stop-color="#676562"/>
        </linearGradient>
        <linearGradient id="paint86_linear" x1="94.1209" y1="449.563" x2="261.606" y2="394.84" gradientUnits="userSpaceOnUse">
            <stop stop-color="#969594"/>
            <stop offset="1" stop-color="#676562"/>
        </linearGradient>
        <linearGradient id="paint87_linear" x1="103.507" y1="478.29" x2="270.992" y2="423.567" gradientUnits="userSpaceOnUse">
            <stop stop-color="#969594"/>
            <stop offset="1" stop-color="#676562"/>
        </linearGradient>
        <linearGradient id="paint88_linear" x1="95.1343" y1="452.663" x2="262.62" y2="397.94" gradientUnits="userSpaceOnUse">
            <stop stop-color="#969594"/>
            <stop offset="1" stop-color="#676562"/>
        </linearGradient>
        <linearGradient id="paint89_linear" x1="95.9056" y1="455.026" x2="263.391" y2="400.303" gradientUnits="userSpaceOnUse">
            <stop stop-color="#969594"/>
            <stop offset="1" stop-color="#676562"/>
        </linearGradient>
        <linearGradient id="paint90_linear" x1="96.697" y1="457.447" x2="264.182" y2="402.724" gradientUnits="userSpaceOnUse">
            <stop stop-color="#969594"/>
            <stop offset="1" stop-color="#676562"/>
        </linearGradient>
        <linearGradient id="paint91_linear" x1="97.4694" y1="459.811" x2="264.955" y2="405.088" gradientUnits="userSpaceOnUse">
            <stop stop-color="#969594"/>
            <stop offset="1" stop-color="#676562"/>
        </linearGradient>
        <linearGradient id="paint92_linear" x1="98.2608" y1="462.233" x2="265.746" y2="407.51" gradientUnits="userSpaceOnUse">
            <stop stop-color="#969594"/>
            <stop offset="1" stop-color="#676562"/>
        </linearGradient>
        <linearGradient id="paint93_linear" x1="99.0326" y1="464.595" x2="266.518" y2="409.872" gradientUnits="userSpaceOnUse">
            <stop stop-color="#969594"/>
            <stop offset="1" stop-color="#676562"/>
        </linearGradient>
        <linearGradient id="paint94_linear" x1="99.8239" y1="467.017" x2="267.309" y2="412.294" gradientUnits="userSpaceOnUse">
            <stop stop-color="#969594"/>
            <stop offset="1" stop-color="#676562"/>
        </linearGradient>
        <linearGradient id="paint95_linear" x1="100.617" y1="469.446" x2="268.103" y2="414.723" gradientUnits="userSpaceOnUse">
            <stop stop-color="#969594"/>
            <stop offset="1" stop-color="#676562"/>
        </linearGradient>
        <linearGradient id="paint96_linear" x1="101.409" y1="471.868" x2="268.894" y2="417.145" gradientUnits="userSpaceOnUse">
            <stop stop-color="#969594"/>
            <stop offset="1" stop-color="#676562"/>
        </linearGradient>
        <linearGradient id="paint97_linear" x1="98.8843" y1="464.141" x2="266.37" y2="409.418" gradientUnits="userSpaceOnUse">
            <stop stop-color="#969594"/>
            <stop offset="1" stop-color="#676562"/>
        </linearGradient>
        <linearGradient id="paint98_linear" x1="107.086" y1="489.242" x2="274.571" y2="434.519" gradientUnits="userSpaceOnUse">
            <stop stop-color="#969594"/>
            <stop offset="1" stop-color="#676562"/>
        </linearGradient>
        <linearGradient id="paint99_linear" x1="99.8968" y1="467.24" x2="267.382" y2="412.518" gradientUnits="userSpaceOnUse">
            <stop stop-color="#969594"/>
            <stop offset="1" stop-color="#676562"/>
        </linearGradient>
        <linearGradient id="paint100_linear" x1="100.669" y1="469.603" x2="268.154" y2="414.88" gradientUnits="userSpaceOnUse">
            <stop stop-color="#969594"/>
            <stop offset="1" stop-color="#676562"/>
        </linearGradient>
        <linearGradient id="paint101_linear" x1="101.46" y1="472.025" x2="268.945" y2="417.302" gradientUnits="userSpaceOnUse">
            <stop stop-color="#969594"/>
            <stop offset="1" stop-color="#676562"/>
        </linearGradient>
        <linearGradient id="paint102_linear" x1="102.232" y1="474.388" x2="269.717" y2="419.665" gradientUnits="userSpaceOnUse">
            <stop stop-color="#969594"/>
            <stop offset="1" stop-color="#676562"/>
        </linearGradient>
        <linearGradient id="paint103_linear" x1="103.024" y1="476.81" x2="270.509" y2="422.087" gradientUnits="userSpaceOnUse">
            <stop stop-color="#969594"/>
            <stop offset="1" stop-color="#676562"/>
        </linearGradient>
        <linearGradient id="paint104_linear" x1="103.795" y1="479.172" x2="271.281" y2="424.45" gradientUnits="userSpaceOnUse">
            <stop stop-color="#969594"/>
            <stop offset="1" stop-color="#676562"/>
        </linearGradient>
        <linearGradient id="paint105_linear" x1="104.586" y1="481.594" x2="272.072" y2="426.872" gradientUnits="userSpaceOnUse">
            <stop stop-color="#969594"/>
            <stop offset="1" stop-color="#676562"/>
        </linearGradient>
        <linearGradient id="paint106_linear" x1="105.38" y1="484.023" x2="272.866" y2="429.3" gradientUnits="userSpaceOnUse">
            <stop stop-color="#969594"/>
            <stop offset="1" stop-color="#676562"/>
        </linearGradient>
        <linearGradient id="paint107_linear" x1="106.172" y1="486.445" x2="273.657" y2="431.722" gradientUnits="userSpaceOnUse">
            <stop stop-color="#969594"/>
            <stop offset="1" stop-color="#676562"/>
        </linearGradient>
        <linearGradient id="paint108_linear" x1="216.826" y1="399" x2="205.014" y2="315.494" gradientUnits="userSpaceOnUse">
            <stop stop-color="#4538F3" stop-opacity="0"/>
            <stop offset="0.1829" stop-color="#5431F5" stop-opacity="0.1829"/>
            <stop offset="0.5371" stop-color="#7D1DF9" stop-opacity="0.5371"/>
            <stop offset="1" stop-color="#BA00FF"/>
        </linearGradient>
        <linearGradient id="paint109_linear" x1="105.736" y1="399.327" x2="337.88" y2="329.556" gradientUnits="userSpaceOnUse">
            <stop stop-color="#4538F3"/>
            <stop offset="0.027806" stop-color="#4A36F3"/>
            <stop offset="0.3444" stop-color="#7A1FF8"/>
            <stop offset="0.6233" stop-color="#9D0EFC"/>
            <stop offset="0.8514" stop-color="#B204FE"/>
            <stop offset="1" stop-color="#BA00FF"/>
        </linearGradient>
        <linearGradient id="paint110_linear" x1="335.792" y1="267.698" x2="386.541" y2="267.698" gradientUnits="userSpaceOnUse">
            <stop stop-color="#4538F3"/>
            <stop offset="0.027806" stop-color="#4A36F3"/>
            <stop offset="0.3444" stop-color="#7A1FF8"/>
            <stop offset="0.6233" stop-color="#9D0EFC"/>
            <stop offset="0.8514" stop-color="#B204FE"/>
            <stop offset="1" stop-color="#BA00FF"/>
        </linearGradient>
        <linearGradient id="paint111_linear" x1="311.03" y1="372.065" x2="428.407" y2="301.871" gradientUnits="userSpaceOnUse">
            <stop stop-color="#4538F3"/>
            <stop offset="0.027806" stop-color="#4A36F3"/>
            <stop offset="0.3444" stop-color="#7A1FF8"/>
            <stop offset="0.6233" stop-color="#9D0EFC"/>
            <stop offset="0.8514" stop-color="#B204FE"/>
            <stop offset="1" stop-color="#BA00FF"/>
        </linearGradient>
        <linearGradient id="paint112_linear" x1="311.451" y1="373.526" x2="429.271" y2="303.068" gradientUnits="userSpaceOnUse">
            <stop stop-color="#4538F3"/>
            <stop offset="0.027806" stop-color="#4A36F3"/>
            <stop offset="0.3444" stop-color="#7A1FF8"/>
            <stop offset="0.6233" stop-color="#9D0EFC"/>
            <stop offset="0.8514" stop-color="#B204FE"/>
            <stop offset="1" stop-color="#BA00FF"/>
        </linearGradient>
        <linearGradient id="paint113_linear" x1="317.381" y1="383.13" x2="434.28" y2="313.222" gradientUnits="userSpaceOnUse">
            <stop stop-color="#4538F3"/>
            <stop offset="0.027806" stop-color="#4A36F3"/>
            <stop offset="0.3444" stop-color="#7A1FF8"/>
            <stop offset="0.6233" stop-color="#9D0EFC"/>
            <stop offset="0.8514" stop-color="#B204FE"/>
            <stop offset="1" stop-color="#BA00FF"/>
        </linearGradient>
        <linearGradient id="paint114_linear" x1="313.979" y1="379.143" x2="432.115" y2="308.495" gradientUnits="userSpaceOnUse">
            <stop stop-color="#4538F3"/>
            <stop offset="0.027806" stop-color="#4A36F3"/>
            <stop offset="0.3444" stop-color="#7A1FF8"/>
            <stop offset="0.6233" stop-color="#9D0EFC"/>
            <stop offset="0.8514" stop-color="#B204FE"/>
            <stop offset="1" stop-color="#BA00FF"/>
        </linearGradient>
        <linearGradient id="paint115_linear" x1="-40.9587" y1="566.091" x2="35.8864" y2="402.617" gradientUnits="userSpaceOnUse">
            <stop stop-color="#9A00FF"/>
            <stop offset="0.2766" stop-color="#9702FF"/>
            <stop offset="0.4783" stop-color="#8E08FD"/>
            <stop offset="0.6563" stop-color="#7E13FB"/>
            <stop offset="0.8204" stop-color="#6721F8"/>
            <stop offset="0.9738" stop-color="#4B34F4"/>
            <stop offset="1" stop-color="#4538F3"/>
        </linearGradient>
        <linearGradient id="paint116_linear" x1="-21.7124" y1="501.414" x2="-9.84453" y2="400.469" gradientUnits="userSpaceOnUse">
            <stop stop-color="#BA00FF"/>
            <stop offset="0.2448" stop-color="#B701FF"/>
            <stop offset="0.4234" stop-color="#AE06FE"/>
            <stop offset="0.5809" stop-color="#9E0DFC"/>
            <stop offset="0.7263" stop-color="#8718FA"/>
            <stop offset="0.8631" stop-color="#6A26F7"/>
            <stop offset="0.9922" stop-color="#4737F3"/>
            <stop offset="1" stop-color="#4538F3"/>
        </linearGradient>
        <linearGradient id="paint117_linear" x1="23.4483" y1="587.758" x2="100.293" y2="424.283" gradientUnits="userSpaceOnUse">
            <stop stop-color="#9A00FF"/>
            <stop offset="0.2766" stop-color="#9702FF"/>
            <stop offset="0.4783" stop-color="#8E08FD"/>
            <stop offset="0.6563" stop-color="#7E13FB"/>
            <stop offset="0.8204" stop-color="#6721F8"/>
            <stop offset="0.9738" stop-color="#4B34F4"/>
            <stop offset="1" stop-color="#4538F3"/>
        </linearGradient>
        <linearGradient id="paint118_linear" x1="42.6944" y1="523.081" x2="54.5624" y2="422.135" gradientUnits="userSpaceOnUse">
            <stop stop-color="#BA00FF"/>
            <stop offset="0.2448" stop-color="#B701FF"/>
            <stop offset="0.4234" stop-color="#AE06FE"/>
            <stop offset="0.5809" stop-color="#9E0DFC"/>
            <stop offset="0.7263" stop-color="#8718FA"/>
            <stop offset="0.8631" stop-color="#6A26F7"/>
            <stop offset="0.9922" stop-color="#4737F3"/>
            <stop offset="1" stop-color="#4538F3"/>
        </linearGradient>
        <linearGradient id="paint119_linear" x1="23.1484" y1="541.831" x2="99.9935" y2="378.356" gradientUnits="userSpaceOnUse">
            <stop stop-color="#9A00FF"/>
            <stop offset="0.2766" stop-color="#9702FF"/>
            <stop offset="0.4783" stop-color="#8E08FD"/>
            <stop offset="0.6563" stop-color="#7E13FB"/>
            <stop offset="0.8204" stop-color="#6721F8"/>
            <stop offset="0.9738" stop-color="#4B34F4"/>
            <stop offset="1" stop-color="#4538F3"/>
        </linearGradient>
        <linearGradient id="paint120_linear" x1="42.3947" y1="477.154" x2="54.2626" y2="376.209" gradientUnits="userSpaceOnUse">
            <stop stop-color="#BA00FF"/>
            <stop offset="0.2448" stop-color="#B701FF"/>
            <stop offset="0.4234" stop-color="#AE06FE"/>
            <stop offset="0.5809" stop-color="#9E0DFC"/>
            <stop offset="0.7263" stop-color="#8718FA"/>
            <stop offset="0.8631" stop-color="#6A26F7"/>
            <stop offset="0.9922" stop-color="#4737F3"/>
            <stop offset="1" stop-color="#4538F3"/>
        </linearGradient>
    </defs>
</svg>
