<svg width="320" height="365" viewBox="0 0 320 365" fill="none" xmlns="http://www.w3.org/2000/svg">
<g opacity="0.1">
<path opacity="0.3" d="M-121 -126V318.138C-121 318.138 -24.8329 405.206 54.4301 340.285C133.693 275.364 147.256 248.494 224.946 241.275C454.514 193.03 420.18 -126 420.18 -126H-121Z" fill="url(#paint0_linear)"/>
<path opacity="0.1" d="M299.044 241.359L262.394 248.001C261.86 248.123 261.385 248.611 261.385 249.159C261.385 249.708 261.8 250.074 262.394 250.013L299.044 243.37C299.578 243.248 300.053 242.76 300.053 242.212C300.053 241.663 299.578 241.298 299.044 241.359Z" fill="black"/>
<path d="M205.198 224.827L30.9417 252.403C27.5168 252.935 24.7415 250.632 24.7415 247.207V128.457C24.7415 125.033 27.5168 121.844 30.9417 121.312L205.198 93.736C209.45 93.0274 213.465 96.6295 213.465 100.054L211.339 217.682C211.339 221.048 208.564 224.296 205.198 224.827Z" fill="#989999"/>
<path d="M207.265 225.949L33.0084 253.525C29.5835 254.057 26.8081 251.754 26.8081 248.329V129.579C26.8081 126.154 29.5835 122.966 33.0084 122.434L207.265 94.8579C210.69 94.3265 213.465 96.6294 213.465 100.054V218.804C213.465 222.17 210.69 225.417 207.265 225.949Z" fill="#1B1B1B"/>
<path d="M207.265 216.383L33.0081 243.959V133.182C33.0081 130.82 34.8977 128.635 37.2597 128.28L203.013 102.003C205.375 101.649 207.265 103.243 207.265 105.546V216.383Z" fill="url(#paint1_linear)"/>
<path opacity="0.3" d="M51.3728 133.89L45.6449 134.776L45.4087 134.067C45.2906 133.772 44.9954 133.595 44.6411 133.654L41.3933 134.185C41.039 134.244 40.7438 134.481 40.6847 134.835L40.3895 135.662H40.3304C39.5037 135.78 38.9132 136.547 38.9132 137.315V143.102C38.9132 143.929 39.5628 144.46 40.3304 144.342L51.3728 142.57C52.1995 142.452 52.79 141.685 52.79 140.917V135.13C52.79 134.303 52.1404 133.772 51.3728 133.89Z" fill="white"/>
<path opacity="0.3" d="M51.3728 149.007L45.6449 149.893L45.4087 149.184C45.2906 148.889 44.9954 148.712 44.6411 148.771L41.3933 149.302C41.039 149.361 40.7438 149.597 40.6847 149.952L40.3895 150.778H40.3304C39.5037 150.896 38.9132 151.664 38.9132 152.432V158.219C38.9132 159.045 39.5628 159.577 40.3304 159.459L51.3728 157.687C52.1995 157.569 52.79 156.801 52.79 156.034V150.247C52.79 149.42 52.1404 148.889 51.3728 149.007Z" fill="white"/>
<path opacity="0.3" d="M51.3728 164.123L45.6449 165.009L45.4087 164.301C45.2906 164.005 44.9954 163.828 44.6411 163.887L41.3933 164.419C41.039 164.478 40.7438 164.714 40.6847 165.068L40.3895 165.895H40.3304C39.5037 166.013 38.9132 166.781 38.9132 167.548V173.335C38.9132 174.162 39.5628 174.693 40.3304 174.575L51.3728 172.804C52.1995 172.686 52.79 171.918 52.79 171.15V165.364C52.79 164.537 52.1404 164.005 51.3728 164.123Z" fill="white"/>
<path opacity="0.3" d="M69.6784 146.113L63.9506 146.999L63.7144 146.29C63.5963 145.995 63.301 145.818 62.9467 145.877L59.699 146.408C59.3447 146.468 59.0494 146.704 58.9904 147.058L58.6951 147.885H58.6361C57.8094 148.003 57.2189 148.77 57.2189 149.538V155.325C57.2189 156.152 57.8684 156.683 58.6361 156.565L69.6784 154.794C70.5051 154.675 71.0956 153.908 71.0956 153.14V147.353C71.0956 146.527 70.5051 145.995 69.6784 146.113Z" fill="white"/>
<path opacity="0.2" d="M308.661 263.988C308.661 265.124 307.834 266.08 306.77 266.26L128.111 297.044C124.623 297.642 119.775 297.343 117.233 296.447L29.145 264.048C28.0809 263.629 27.3715 262.613 27.3715 261.478V257.353L308.721 259.625L308.661 263.988Z" fill="black"/>
<path d="M309.328 261.936C309.328 263.053 308.498 263.993 307.432 264.17L128.35 294.383C124.853 294.97 119.994 294.676 117.446 293.795L29.1492 261.936C28.0826 261.525 27.3715 260.525 27.3715 259.409V255.353L309.387 257.586L309.328 261.936Z" fill="#989999"/>
<path d="M306.221 258.729L128.556 288.385C125.059 288.968 120.2 288.676 117.652 287.802L28.8781 256.049C26.3299 255.116 27.1003 253.951 30.5374 253.369L208.203 223.654C211.699 223.072 216.559 223.363 219.107 224.237L307.881 256.049C310.429 256.923 309.658 258.146 306.221 258.729Z" fill="url(#paint2_linear)"/>
<path d="M60.5845 256.419L53.0261 257.718C52.1994 257.836 51.0184 257.777 50.4279 257.6L44.8773 255.592C44.2868 255.356 44.4639 255.061 45.2906 254.943L52.849 253.643C53.6757 253.525 54.8567 253.584 55.4472 253.762L60.9979 255.769C61.5884 256.005 61.4112 256.301 60.5845 256.419Z" fill="url(#paint3_linear)"/>
<path d="M74.9342 253.998L67.3758 255.297C66.5491 255.415 65.3681 255.356 64.7776 255.179L59.2269 253.171C58.6364 252.935 58.8135 252.64 59.6402 252.521L67.1986 251.222C68.0253 251.104 69.2063 251.163 69.7968 251.34L75.3475 253.348C75.938 253.584 75.7609 253.88 74.9342 253.998Z" fill="url(#paint4_linear)"/>
<path d="M88.9285 251.636L81.3701 252.935C80.5434 253.053 79.3624 252.994 78.7719 252.817L73.2212 250.809C72.6307 250.573 72.8079 250.278 73.6346 250.16L81.193 248.861C82.0197 248.742 83.2007 248.801 83.7912 248.979L89.3419 250.986C89.9324 251.163 89.7552 251.459 88.9285 251.636Z" fill="url(#paint5_linear)"/>
<path d="M103.278 249.215L95.7195 250.514C94.8928 250.632 93.7118 250.573 93.1213 250.396L87.5706 248.388C86.9801 248.152 87.1573 247.857 87.984 247.738L95.5424 246.439C96.3691 246.321 97.5501 246.38 98.1406 246.557L103.691 248.565C104.282 248.742 104.105 249.038 103.278 249.215Z" fill="url(#paint6_linear)"/>
<path d="M117.273 246.794L109.715 248.093C108.888 248.211 107.707 248.152 107.116 247.975L101.566 245.967C100.975 245.731 101.152 245.435 101.979 245.317L109.537 244.018C110.364 243.9 111.545 243.959 112.136 244.136L117.686 246.144C118.277 246.38 118.1 246.675 117.273 246.794Z" fill="url(#paint7_linear)"/>
<path d="M131.622 244.373L124.064 245.672C123.237 245.79 122.056 245.731 121.465 245.554L115.915 243.546C115.324 243.31 115.501 243.015 116.328 242.896L123.886 241.597C124.713 241.479 125.894 241.538 126.485 241.715L132.035 243.723C132.626 243.959 132.449 244.255 131.622 244.373Z" fill="url(#paint8_linear)"/>
<path d="M145.616 242.011L138.058 243.31C137.231 243.428 136.05 243.369 135.46 243.192L129.909 241.184C129.319 240.948 129.496 240.652 130.322 240.534L137.881 239.235C138.708 239.117 139.889 239.176 140.479 239.353L146.03 241.361C146.62 241.538 146.443 241.833 145.616 242.011Z" fill="url(#paint9_linear)"/>
<path d="M159.966 239.589L152.408 240.889C151.581 241.007 150.4 240.948 149.809 240.77L144.259 238.763C143.668 238.527 143.845 238.231 144.672 238.113L152.23 236.814C153.057 236.696 154.238 236.755 154.829 236.932L160.379 238.94C160.97 239.117 160.793 239.412 159.966 239.589Z" fill="url(#paint10_linear)"/>
<path d="M174.374 237.11L166.816 238.409C165.989 238.527 164.808 238.468 164.217 238.291L158.667 236.283C158.076 236.047 158.253 235.751 159.08 235.633L166.638 234.334C167.465 234.216 168.646 234.275 169.237 234.452L174.787 236.46C175.378 236.696 175.201 236.991 174.374 237.11Z" fill="url(#paint11_linear)"/>
<path d="M188.723 234.688L181.164 235.987C180.338 236.106 179.157 236.047 178.566 235.869L173.016 233.862C172.425 233.625 172.602 233.33 173.429 233.212L180.987 231.913C181.814 231.795 182.995 231.854 183.586 232.031L189.136 234.039C189.727 234.275 189.55 234.57 188.723 234.688Z" fill="url(#paint12_linear)"/>
<path d="M202.718 232.326L195.16 233.625C194.333 233.744 193.152 233.684 192.561 233.507L187.011 231.5C186.42 231.263 186.597 230.968 187.424 230.85L194.982 229.551C195.809 229.433 196.99 229.492 197.581 229.669L203.131 231.677C203.722 231.854 203.545 232.149 202.718 232.326Z" fill="url(#paint13_linear)"/>
<path d="M217.067 229.905L209.509 231.204C208.682 231.323 207.501 231.264 206.911 231.086L201.36 229.079C200.77 228.842 200.947 228.547 201.773 228.429L209.332 227.13C210.158 227.012 211.339 227.071 211.93 227.248L217.481 229.256C218.071 229.433 217.894 229.728 217.067 229.905Z" fill="url(#paint14_linear)"/>
<path d="M99.617 270.65L92.0586 271.949C91.2319 272.067 90.0509 272.008 89.4604 271.831L83.9097 269.823C83.3192 269.587 83.4964 269.292 84.3231 269.174L91.8815 267.874C92.7082 267.756 93.8892 267.815 94.4797 267.993L100.03 270C100.621 270.236 100.444 270.532 99.617 270.65Z" fill="url(#paint15_linear)"/>
<path d="M113.966 268.229L106.408 269.528C105.581 269.646 104.4 269.587 103.809 269.41L98.2588 267.402C97.6683 267.166 97.8454 266.871 98.6721 266.753L106.231 265.454C107.057 265.335 108.238 265.394 108.829 265.572L114.379 267.579C114.97 267.756 114.793 268.052 113.966 268.229Z" fill="url(#paint16_linear)"/>
<path d="M127.961 265.808L120.402 267.107C119.576 267.225 118.395 267.166 117.804 266.989L112.253 264.981C111.663 264.745 111.84 264.45 112.667 264.331L120.225 263.032C121.052 262.914 122.233 262.973 122.823 263.15L128.374 265.158C128.965 265.394 128.787 265.69 127.961 265.808Z" fill="url(#paint17_linear)"/>
<path d="M199.588 253.702L134.811 264.686C133.984 264.804 132.803 264.745 132.212 264.568L126.662 262.56C126.071 262.324 126.248 262.029 127.075 261.91L191.853 250.868C192.68 250.75 193.861 250.809 194.451 250.986L200.002 252.994C200.592 253.23 200.415 253.525 199.588 253.702Z" fill="url(#paint18_linear)"/>
<path d="M213.406 251.34L205.848 252.64C205.021 252.758 203.84 252.699 203.249 252.521L197.699 250.514C197.108 250.278 197.285 249.982 198.112 249.864L205.671 248.565C206.497 248.447 207.678 248.506 208.269 248.683L213.819 250.691C214.41 250.868 214.233 251.163 213.406 251.34Z" fill="url(#paint19_linear)"/>
<path d="M227.755 248.92L220.197 250.219C219.37 250.337 218.189 250.278 217.599 250.101L212.048 248.093C211.457 247.857 211.635 247.561 212.461 247.443L220.02 246.144C220.846 246.026 222.027 246.085 222.618 246.262L228.169 248.27C228.759 248.447 228.582 248.742 227.755 248.92Z" fill="url(#paint20_linear)"/>
<path d="M241.75 246.498L234.192 247.798C233.365 247.916 232.184 247.857 231.593 247.679L226.043 245.672C225.452 245.436 225.629 245.14 226.456 245.022L234.014 243.723C234.841 243.605 236.022 243.664 236.613 243.841L242.163 245.849C242.754 246.085 242.577 246.38 241.75 246.498Z" fill="url(#paint21_linear)"/>
<path d="M256.099 244.077L248.541 245.376C247.714 245.494 246.533 245.435 245.943 245.258L240.392 243.251C239.801 243.014 239.979 242.719 240.805 242.601L248.364 241.302C249.19 241.184 250.371 241.243 250.962 241.42L256.513 243.428C257.103 243.664 256.926 243.959 256.099 244.077Z" fill="url(#paint22_linear)"/>
<path d="M94.952 261.025L72.8673 264.804C72.0406 264.922 70.8596 264.863 70.2691 264.686L64.7184 262.678C64.1279 262.442 64.3051 262.147 65.1318 262.029L87.2165 258.249C88.0432 258.131 89.2242 258.19 89.8147 258.368L95.3654 260.375C95.9559 260.611 95.7787 260.907 94.952 261.025Z" fill="url(#paint23_linear)"/>
<path d="M109.301 258.604L101.742 259.903C100.916 260.021 99.7348 259.962 99.1443 259.785L93.5936 257.777C93.0031 257.541 93.1802 257.245 94.0069 257.127L101.565 255.828C102.392 255.71 103.573 255.769 104.164 255.946L109.714 257.954C110.305 258.131 110.128 258.426 109.301 258.604Z" fill="url(#paint24_linear)"/>
<path d="M123.296 256.182L115.737 257.482C114.911 257.6 113.73 257.541 113.139 257.363L107.589 255.356C106.998 255.12 107.175 254.824 108.002 254.706L115.56 253.407C116.387 253.289 117.568 253.348 118.159 253.525L123.709 255.533C124.3 255.769 124.123 256.064 123.296 256.182Z" fill="url(#paint25_linear)"/>
<path d="M137.645 253.762L130.087 255.061C129.26 255.179 128.079 255.12 127.488 254.943L121.938 252.935C121.347 252.699 121.524 252.403 122.351 252.285L129.909 250.986C130.736 250.868 131.917 250.927 132.508 251.104L138.058 253.112C138.649 253.348 138.472 253.643 137.645 253.762Z" fill="url(#paint26_linear)"/>
<path d="M151.64 251.4L144.081 252.699C143.255 252.817 142.074 252.758 141.483 252.581L135.933 250.573C135.342 250.337 135.519 250.041 136.346 249.923L143.904 248.624C144.731 248.506 145.912 248.565 146.503 248.742L152.053 250.75C152.644 250.986 152.467 251.281 151.64 251.4Z" fill="url(#paint27_linear)"/>
<path d="M165.989 248.978L158.431 250.277C157.604 250.396 156.423 250.337 155.832 250.159L150.282 248.152C149.691 247.915 149.868 247.62 150.695 247.502L158.253 246.203C159.08 246.085 160.261 246.144 160.852 246.321L166.402 248.329C166.993 248.506 166.816 248.801 165.989 248.978Z" fill="url(#paint28_linear)"/>
<path d="M180.397 246.498L172.839 247.798C172.012 247.916 170.831 247.857 170.24 247.679L164.69 245.672C164.099 245.436 164.276 245.14 165.103 245.022L172.661 243.723C173.488 243.605 174.669 243.664 175.26 243.841L180.81 245.849C181.401 246.085 181.224 246.38 180.397 246.498Z" fill="url(#paint29_linear)"/>
<path d="M194.746 244.077L187.188 245.376C186.361 245.494 185.18 245.435 184.59 245.258L179.039 243.251C178.448 243.014 178.626 242.719 179.452 242.601L187.011 241.302C187.837 241.184 189.018 241.243 189.609 241.42L195.16 243.428C195.75 243.664 195.573 243.959 194.746 244.077Z" fill="url(#paint30_linear)"/>
<path d="M208.741 241.715L201.183 243.014C200.356 243.132 199.175 243.073 198.584 242.896L193.034 240.889C192.443 240.652 192.62 240.357 193.447 240.239L201.005 238.94C201.832 238.822 203.013 238.881 203.604 239.058L209.154 241.066C209.745 241.302 209.568 241.597 208.741 241.715Z" fill="url(#paint31_linear)"/>
<path d="M223.09 239.294L215.532 240.593C214.705 240.712 213.524 240.652 212.934 240.475L207.383 238.468C206.792 238.231 206.97 237.936 207.796 237.818L215.355 236.519C216.181 236.401 217.362 236.46 217.953 236.637L223.504 238.645C224.094 238.822 223.917 239.117 223.09 239.294Z" fill="url(#paint32_linear)"/>
<path d="M79.3623 258.427L62.7693 261.261C61.9426 261.379 60.7616 261.32 60.1711 261.143L54.6204 259.135C54.0299 258.899 54.2071 258.604 55.0338 258.486L71.6268 255.651C72.4535 255.533 73.6345 255.592 74.225 255.769L79.7757 257.777C80.3662 258.013 80.189 258.309 79.3623 258.427Z" fill="url(#paint33_linear)"/>
<path d="M219.075 230.614L206.024 232.858C205.198 232.976 205.021 233.271 205.611 233.507L211.162 235.515C211.752 235.751 212.933 235.81 213.76 235.633L216.594 235.161C217.244 235.043 218.13 235.102 218.602 235.279L226.22 238.054C226.81 238.29 227.991 238.349 228.818 238.172L236.376 236.873C237.203 236.755 237.38 236.46 236.79 236.224L221.673 230.732C221.082 230.555 219.901 230.496 219.075 230.614Z" fill="url(#paint34_linear)"/>
<path d="M93.2396 256.124L85.6812 257.423C84.8545 257.541 83.6735 257.482 83.083 257.305L77.5323 255.297C76.9418 255.061 77.1189 254.765 77.9456 254.647L85.504 253.348C86.3307 253.23 87.5117 253.289 88.1022 253.466L93.6529 255.474C94.2434 255.651 94.0663 255.946 93.2396 256.124Z" fill="url(#paint35_linear)"/>
<path d="M107.234 253.703L99.6757 255.002C98.849 255.12 97.668 255.061 97.0775 254.884L91.5269 252.876C90.9364 252.64 91.1135 252.344 91.9402 252.226L99.4986 250.927C100.325 250.809 101.506 250.868 102.097 251.045L107.647 253.053C108.238 253.289 108.061 253.584 107.234 253.703Z" fill="url(#paint36_linear)"/>
<path d="M121.583 251.281L114.025 252.58C113.198 252.699 112.017 252.64 111.427 252.462L105.876 250.455C105.285 250.218 105.463 249.923 106.289 249.805L113.848 248.506C114.674 248.388 115.855 248.447 116.446 248.624L121.997 250.632C122.587 250.868 122.41 251.163 121.583 251.281Z" fill="url(#paint37_linear)"/>
<path d="M135.578 248.92L128.02 250.219C127.193 250.337 126.012 250.278 125.422 250.101L119.871 248.093C119.281 247.857 119.458 247.561 120.284 247.443L127.843 246.144C128.669 246.026 129.85 246.085 130.441 246.262L135.992 248.27C136.582 248.506 136.405 248.801 135.578 248.92Z" fill="url(#paint38_linear)"/>
<path d="M149.927 246.498L142.369 247.798C141.542 247.916 140.361 247.857 139.771 247.679L134.22 245.672C133.63 245.436 133.807 245.14 134.634 245.022L142.192 243.723C143.019 243.605 144.2 243.664 144.79 243.841L150.341 245.849C150.931 246.026 150.754 246.321 149.927 246.498Z" fill="url(#paint39_linear)"/>
<path d="M163.922 244.077L156.364 245.376C155.537 245.494 154.356 245.435 153.766 245.258L148.215 243.251C147.624 243.014 147.802 242.719 148.628 242.601L156.187 241.302C157.013 241.184 158.194 241.243 158.785 241.42L164.336 243.428C164.926 243.664 164.749 243.959 163.922 244.077Z" fill="url(#paint40_linear)"/>
<path d="M178.271 241.656L170.713 242.955C169.886 243.074 168.705 243.015 168.115 242.837L162.564 240.83C161.974 240.593 162.151 240.298 162.977 240.18L170.536 238.881C171.363 238.763 172.544 238.822 173.134 238.999L178.685 241.007C179.275 241.243 179.098 241.538 178.271 241.656Z" fill="url(#paint41_linear)"/>
<path d="M192.679 239.235L185.121 240.534C184.294 240.652 183.113 240.593 182.523 240.416L176.972 238.409C176.381 238.172 176.559 237.877 177.385 237.759L184.944 236.46C185.77 236.342 186.951 236.401 187.542 236.578L193.093 238.586C193.683 238.763 193.506 239.058 192.679 239.235Z" fill="url(#paint42_linear)"/>
<path d="M207.029 236.814L199.47 238.113C198.644 238.231 197.463 238.172 196.872 237.995L191.321 235.987C190.731 235.751 190.908 235.456 191.735 235.338L199.293 234.039C200.12 233.921 201.301 233.98 201.891 234.157L207.442 236.165C208.033 236.342 207.855 236.637 207.029 236.814Z" fill="url(#paint43_linear)"/>
<path d="M99.3805 265.453L82.7875 268.288C81.9608 268.406 80.7798 268.347 80.1893 268.17L74.6386 266.162C74.0481 265.926 74.2253 265.631 75.052 265.513L91.645 262.678C92.4717 262.56 93.6527 262.619 94.2432 262.796L99.7939 264.804C100.384 265.04 100.207 265.335 99.3805 265.453Z" fill="url(#paint44_linear)"/>
<path d="M246.12 240.593L233.542 242.719C232.716 242.837 231.535 242.778 230.944 242.601L225.393 240.593C224.803 240.357 224.98 240.062 225.807 239.944L238.384 237.818C239.211 237.7 240.392 237.759 240.983 237.936L246.533 239.944C247.124 240.121 246.947 240.416 246.12 240.593Z" fill="url(#paint45_linear)"/>
<path d="M113.257 263.151L105.699 264.45C104.872 264.568 103.691 264.509 103.101 264.332L97.55 262.324C96.9595 262.088 97.1366 261.792 97.9633 261.674L105.522 260.375C106.348 260.257 107.529 260.316 108.12 260.493L113.671 262.501C114.261 262.678 114.084 262.973 113.257 263.151Z" fill="url(#paint46_linear)"/>
<path d="M127.252 260.729L119.694 262.028C118.867 262.147 117.686 262.088 117.095 261.91L111.545 259.903C110.954 259.666 111.131 259.371 111.958 259.253L119.516 257.954C120.343 257.836 121.524 257.895 122.115 258.072L127.665 260.08C128.256 260.316 128.079 260.611 127.252 260.729Z" fill="url(#paint47_linear)"/>
<path d="M141.601 258.308L134.043 259.608C133.216 259.726 132.035 259.667 131.445 259.489L125.894 257.482C125.304 257.246 125.481 256.95 126.308 256.832L133.866 255.533C134.693 255.415 135.874 255.474 136.464 255.651L142.015 257.659C142.605 257.895 142.428 258.19 141.601 258.308Z" fill="url(#paint48_linear)"/>
<path d="M155.596 255.946L148.038 257.246C147.211 257.364 146.03 257.305 145.439 257.127L139.889 255.12C139.298 254.884 139.475 254.588 140.302 254.47L147.86 253.171C148.687 253.053 149.868 253.112 150.459 253.289L156.009 255.297C156.6 255.474 156.423 255.769 155.596 255.946Z" fill="url(#paint49_linear)"/>
<path d="M169.945 253.525L162.387 254.824C161.56 254.942 160.379 254.883 159.789 254.706L154.238 252.699C153.647 252.462 153.825 252.167 154.651 252.049L162.21 250.75C163.036 250.632 164.217 250.691 164.808 250.868L170.359 252.876C170.949 253.053 170.772 253.348 169.945 253.525Z" fill="url(#paint50_linear)"/>
<path d="M183.94 251.104L176.382 252.403C175.555 252.522 174.374 252.463 173.784 252.285L168.233 250.278C167.642 250.041 167.82 249.746 168.646 249.628L176.205 248.329C177.031 248.211 178.212 248.27 178.803 248.447L184.354 250.455C184.944 250.691 184.767 250.986 183.94 251.104Z" fill="url(#paint51_linear)"/>
<path d="M198.289 248.683L190.731 249.982C189.904 250.1 188.723 250.041 188.132 249.864L182.582 247.857C181.991 247.62 182.168 247.325 182.995 247.207L190.553 245.908C191.38 245.79 192.561 245.849 193.152 246.026L198.702 248.034C199.293 248.27 199.116 248.565 198.289 248.683Z" fill="url(#paint52_linear)"/>
<path d="M212.698 246.262L205.139 247.561C204.312 247.679 203.131 247.62 202.541 247.443L196.99 245.435C196.4 245.199 196.577 244.904 197.404 244.786L204.962 243.487C205.789 243.369 206.97 243.428 207.56 243.605L213.111 245.613C213.701 245.79 213.524 246.085 212.698 246.262Z" fill="url(#paint53_linear)"/>
<path d="M227.047 243.782L219.489 245.081C218.662 245.199 217.481 245.14 216.89 244.963L211.34 242.955C210.749 242.719 210.926 242.424 211.753 242.306L219.311 241.007C220.138 240.889 221.319 240.948 221.91 241.125L227.46 243.133C228.051 243.369 227.874 243.664 227.047 243.782Z" fill="url(#paint54_linear)"/>
<path d="M215.001 252.403L138.649 265.394C138.118 265.453 137.822 266.044 138.118 266.516L249.899 264.627C250.135 264.331 250.017 263.859 249.663 263.741L219.252 252.699C218.189 252.285 216.359 252.167 215.001 252.403Z" fill="#989999"/>
<path d="M215.237 252.876L139.298 265.749C137.999 265.985 137.704 266.457 138.649 266.812L168.646 277.736C169.591 278.09 171.481 278.208 172.78 277.972L248.718 265.099C250.017 264.863 250.312 264.391 249.368 264.036L219.37 253.112C218.366 252.758 216.536 252.699 215.237 252.876Z" fill="url(#paint55_linear)"/>
<path d="M60.5845 255.769L53.0261 257.068C52.1994 257.186 51.0184 257.127 50.4279 256.95L44.8773 254.942C44.2868 254.706 44.4639 254.411 45.2906 254.293L52.849 252.994C53.6757 252.876 54.8567 252.935 55.4472 253.112L60.9979 255.12C61.5884 255.297 61.4112 255.592 60.5845 255.769Z" fill="url(#paint56_linear)"/>
<path d="M74.9342 253.289L67.3758 254.588C66.5491 254.706 65.3681 254.647 64.7776 254.47L59.2269 252.462C58.6364 252.226 58.8135 251.931 59.6402 251.813L67.1986 250.514C68.0253 250.395 69.2063 250.455 69.7968 250.632L75.3475 252.639C75.938 252.876 75.7609 253.171 74.9342 253.289Z" fill="url(#paint57_linear)"/>
<path d="M88.9285 250.927L81.3701 252.226C80.5434 252.344 79.3624 252.285 78.7719 252.108L73.2212 250.1C72.6307 249.864 72.8079 249.569 73.6346 249.451L81.193 248.152C82.0197 248.034 83.2007 248.093 83.7912 248.27L89.3419 250.278C89.9914 250.514 89.7552 250.809 88.9285 250.927Z" fill="url(#paint58_linear)"/>
<path d="M103.278 248.506L95.7195 249.805C94.8928 249.923 93.7118 249.864 93.1213 249.687L87.5706 247.679C86.9801 247.443 87.1573 247.148 87.984 247.03L95.5424 245.731C96.3691 245.613 97.55 245.672 98.1405 245.849L103.691 247.856C104.341 248.034 104.105 248.329 103.278 248.506Z" fill="url(#paint59_linear)"/>
<path d="M117.332 246.144L109.773 247.384C108.947 247.502 107.766 247.443 107.175 247.266L101.625 245.258C101.034 245.022 101.211 244.727 102.038 244.609L109.596 243.309C110.423 243.191 111.604 243.25 112.195 243.428L117.745 245.435C118.336 245.671 118.159 245.967 117.332 246.144Z" fill="url(#paint60_linear)"/>
<path d="M131.681 243.664L124.122 244.963C123.296 245.081 122.115 245.022 121.524 244.845L115.974 242.837C115.383 242.601 115.56 242.306 116.387 242.188L123.945 240.889C124.772 240.77 125.953 240.83 126.544 241.007L132.094 243.014C132.685 243.251 132.508 243.546 131.681 243.664Z" fill="url(#paint61_linear)"/>
<path d="M145.676 241.302L138.118 242.601C137.291 242.719 136.11 242.66 135.519 242.483L129.969 240.475C129.378 240.239 129.555 239.944 130.382 239.826L137.94 238.527C138.767 238.408 139.948 238.467 140.539 238.645L146.089 240.652C146.68 240.889 146.503 241.184 145.676 241.302Z" fill="url(#paint62_linear)"/>
<path d="M160.024 238.881L152.466 240.18C151.639 240.298 150.458 240.239 149.868 240.062L144.317 238.054C143.727 237.818 143.904 237.523 144.731 237.404L152.289 236.105C153.116 235.987 154.297 236.046 154.887 236.223L160.438 238.231C161.028 238.408 160.851 238.763 160.024 238.881Z" fill="url(#paint63_linear)"/>
<path d="M174.374 236.46L166.816 237.759C165.989 237.877 164.808 237.818 164.217 237.641L158.667 235.633C158.076 235.397 158.253 235.102 159.08 234.984L166.638 233.684C167.465 233.566 168.646 233.625 169.237 233.803L174.787 235.81C175.378 235.987 175.201 236.283 174.374 236.46Z" fill="url(#paint64_linear)"/>
<path d="M188.723 233.98L181.164 235.279C180.338 235.397 179.157 235.338 178.566 235.161L173.016 233.153C172.425 232.917 172.602 232.621 173.429 232.503L180.987 231.204C181.814 231.086 182.995 231.145 183.586 231.322L189.136 233.33C189.727 233.566 189.55 233.862 188.723 233.98Z" fill="url(#paint65_linear)"/>
<path d="M202.718 231.618L195.16 232.917C194.333 233.035 193.152 232.976 192.561 232.799L187.011 230.791C186.42 230.555 186.597 230.26 187.424 230.142L194.982 228.842C195.809 228.724 196.99 228.783 197.581 228.961L203.131 230.968C203.722 231.204 203.545 231.5 202.718 231.618Z" fill="url(#paint66_linear)"/>
<path d="M217.067 229.197L209.509 230.496C208.682 230.614 207.501 230.555 206.911 230.378L201.36 228.37C200.77 228.134 200.947 227.839 201.773 227.72L209.332 226.421C210.158 226.303 211.339 226.362 211.93 226.539L217.481 228.547C218.13 228.724 217.894 229.02 217.067 229.197Z" fill="url(#paint67_linear)"/>
<path d="M99.617 269.941L92.0586 271.24C91.2319 271.358 90.0509 271.299 89.4604 271.122L83.9097 269.114C83.3192 268.878 83.4964 268.583 84.3231 268.465L91.8815 267.166C92.7082 267.048 93.8892 267.107 94.4797 267.284L100.03 269.291C100.68 269.528 100.503 269.823 99.617 269.941Z" fill="url(#paint68_linear)"/>
<path d="M113.966 267.52L106.408 268.819C105.581 268.937 104.4 268.878 103.809 268.701L98.2588 266.693C97.6683 266.457 97.8454 266.162 98.6721 266.044L106.231 264.745C107.057 264.627 108.238 264.686 108.829 264.863L114.379 266.871C115.029 267.107 114.852 267.402 113.966 267.52Z" fill="url(#paint69_linear)"/>
<path d="M128.02 265.158L120.461 266.457C119.635 266.575 118.454 266.516 117.863 266.339L112.313 264.331C111.722 264.095 111.899 263.8 112.726 263.682L120.284 262.383C121.111 262.265 122.292 262.324 122.883 262.501L128.433 264.509C129.024 264.686 128.847 264.981 128.02 265.158Z" fill="url(#paint70_linear)"/>
<path d="M199.588 252.994L134.811 263.977C133.984 264.095 132.803 264.036 132.212 263.859L126.662 261.851C126.071 261.615 126.248 261.32 127.075 261.202L191.853 250.159C192.68 250.041 193.861 250.1 194.451 250.277L200.002 252.285C200.592 252.58 200.415 252.876 199.588 252.994Z" fill="url(#paint71_linear)"/>
<path d="M213.406 250.632L205.848 251.931C205.021 252.049 203.84 251.99 203.25 251.813L197.758 249.746C197.167 249.51 197.345 249.214 198.171 249.096L205.73 247.797C206.556 247.679 207.737 247.738 208.328 247.915L213.879 249.923C214.469 250.218 214.292 250.514 213.406 250.632Z" fill="url(#paint72_linear)"/>
<path d="M227.755 248.211L220.197 249.51C219.37 249.628 218.189 249.569 217.599 249.392L212.048 247.384C211.457 247.148 211.635 246.853 212.461 246.735L220.02 245.435C220.846 245.317 222.027 245.376 222.618 245.554L228.169 247.561C228.818 247.797 228.641 248.093 227.755 248.211Z" fill="url(#paint73_linear)"/>
<path d="M241.809 245.849L234.251 247.148C233.424 247.266 232.243 247.207 231.652 247.03L226.102 245.022C225.511 244.786 225.688 244.491 226.515 244.372L234.073 243.073C234.9 242.955 236.081 243.014 236.672 243.191L242.222 245.199C242.813 245.376 242.636 245.672 241.809 245.849Z" fill="url(#paint74_linear)"/>
<path d="M256.158 243.369L248.6 244.668C247.773 244.786 246.592 244.727 246.002 244.55L240.451 242.542C239.861 242.306 240.038 242.01 240.864 241.892L248.423 240.593C249.25 240.475 250.431 240.534 251.021 240.711L256.572 242.719C257.162 242.955 256.985 243.25 256.158 243.369Z" fill="url(#paint75_linear)"/>
<path d="M94.952 260.316L72.8673 264.095C72.0406 264.213 70.8596 264.154 70.2691 263.977L64.7184 261.969C64.1279 261.733 64.3051 261.438 65.1318 261.32L87.2165 257.541C88.0432 257.423 89.2242 257.482 89.8147 257.659L95.3654 259.666C95.9559 259.903 95.7787 260.198 94.952 260.316Z" fill="url(#paint76_linear)"/>
<path d="M109.301 257.895L101.742 259.194C100.916 259.312 99.7348 259.253 99.1443 259.076L93.5936 257.068C93.0031 256.832 93.1802 256.537 94.0069 256.419L101.565 255.12C102.392 255.001 103.573 255.06 104.164 255.238L109.714 257.245C110.305 257.482 110.128 257.777 109.301 257.895Z" fill="url(#paint77_linear)"/>
<path d="M123.296 255.533L115.737 256.832C114.911 256.95 113.73 256.891 113.139 256.714L107.589 254.706C106.998 254.47 107.175 254.175 108.002 254.057L115.56 252.757C116.387 252.639 117.568 252.698 118.159 252.876L123.709 254.883C124.359 255.06 124.123 255.356 123.296 255.533Z" fill="url(#paint78_linear)"/>
<path d="M137.645 253.053L130.087 254.352C129.26 254.47 128.079 254.411 127.488 254.234L121.938 252.226C121.347 251.99 121.524 251.695 122.351 251.577L129.909 250.278C130.736 250.159 131.917 250.218 132.508 250.396L138.058 252.403C138.708 252.64 138.472 252.935 137.645 253.053Z" fill="url(#paint79_linear)"/>
<path d="M151.64 250.691L144.081 251.99C143.255 252.108 142.074 252.049 141.483 251.872L135.933 249.864C135.342 249.628 135.519 249.333 136.346 249.215L143.904 247.915C144.731 247.797 145.912 247.856 146.503 248.034L152.053 250.041C152.703 250.277 152.467 250.573 151.64 250.691Z" fill="url(#paint80_linear)"/>
<path d="M165.989 248.27L158.431 249.569C157.604 249.687 156.423 249.628 155.832 249.451L150.282 247.443C149.691 247.207 149.868 246.912 150.695 246.794L158.253 245.495C159.08 245.376 160.261 245.436 160.852 245.613L166.402 247.62C167.052 247.857 166.816 248.152 165.989 248.27Z" fill="url(#paint81_linear)"/>
<path d="M180.397 245.849L172.839 247.148C172.012 247.266 170.831 247.207 170.24 247.03L164.69 245.022C164.099 244.786 164.276 244.491 165.103 244.372L172.661 243.073C173.488 242.955 174.669 243.014 175.26 243.191L180.81 245.199C181.401 245.376 181.224 245.672 180.397 245.849Z" fill="url(#paint82_linear)"/>
<path d="M194.746 243.369L187.188 244.668C186.361 244.786 185.18 244.727 184.59 244.55L179.039 242.542C178.448 242.306 178.626 242.01 179.452 241.892L187.011 240.593C187.837 240.475 189.018 240.534 189.609 240.711L195.16 242.719C195.75 242.955 195.573 243.25 194.746 243.369Z" fill="url(#paint83_linear)"/>
<path d="M208.741 241.007L201.183 242.306C200.356 242.424 199.175 242.365 198.584 242.188L193.034 240.18C192.443 239.944 192.62 239.649 193.447 239.53L201.005 238.231C201.832 238.113 203.013 238.172 203.604 238.349L209.154 240.357C209.745 240.593 209.568 240.889 208.741 241.007Z" fill="url(#paint84_linear)"/>
<path d="M223.09 238.586L215.532 239.885C214.705 240.003 213.524 239.944 212.934 239.767L207.383 237.759C206.792 237.523 206.97 237.227 207.796 237.109L215.355 235.81C216.181 235.692 217.362 235.751 217.953 235.928L223.504 237.936C224.094 238.172 223.917 238.467 223.09 238.586Z" fill="url(#paint85_linear)"/>
<path d="M79.4216 257.777L62.8285 260.611C62.0018 260.729 60.8208 260.67 60.2303 260.493L54.6796 258.485C54.0891 258.249 54.2663 257.954 55.093 257.836L71.686 255.001C72.5127 254.883 73.6937 254.942 74.2842 255.119L79.8349 257.127C80.4254 257.304 80.2483 257.6 79.4216 257.777Z" fill="url(#paint86_linear)"/>
<path d="M219.075 229.905L206.024 232.149C205.198 232.267 205.021 232.562 205.611 232.799L211.162 234.806C211.752 235.043 212.933 235.102 213.76 234.924L216.594 234.452C217.244 234.334 218.13 234.393 218.602 234.57L226.22 237.345C226.81 237.582 227.991 237.641 228.818 237.464L236.376 236.164C237.203 236.046 237.38 235.751 236.79 235.515L221.673 230.023C221.082 229.846 219.901 229.787 219.075 229.905Z" fill="url(#paint87_linear)"/>
<path d="M93.2396 255.415L85.6812 256.714C84.8545 256.832 83.6735 256.773 83.083 256.596L77.5323 254.588C76.9418 254.352 77.1189 254.057 77.9456 253.939L85.504 252.64C86.3307 252.521 87.5117 252.581 88.1022 252.758L93.6529 254.765C94.2434 255.002 94.0663 255.297 93.2396 255.415Z" fill="url(#paint88_linear)"/>
<path d="M107.234 253.053L99.6757 254.352C98.849 254.47 97.668 254.411 97.0775 254.234L91.5269 252.226C90.9364 251.99 91.1135 251.695 91.9402 251.577L99.4986 250.278C100.325 250.159 101.506 250.218 102.097 250.396L107.647 252.403C108.238 252.58 108.061 252.876 107.234 253.053Z" fill="url(#paint89_linear)"/>
<path d="M121.583 250.573L114.025 251.872C113.198 251.99 112.017 251.931 111.427 251.754L105.876 249.746C105.285 249.51 105.463 249.214 106.289 249.096L113.848 247.797C114.674 247.679 115.855 247.738 116.446 247.915L121.997 249.923C122.587 250.159 122.41 250.455 121.583 250.573Z" fill="url(#paint90_linear)"/>
<path d="M135.578 248.211L128.02 249.51C127.193 249.628 126.012 249.569 125.422 249.392L119.871 247.384C119.281 247.148 119.458 246.853 120.284 246.735L127.843 245.435C128.669 245.317 129.85 245.376 130.441 245.554L135.992 247.561C136.641 247.797 136.405 248.093 135.578 248.211Z" fill="url(#paint91_linear)"/>
<path d="M149.927 245.79L142.369 247.089C141.542 247.207 140.361 247.148 139.771 246.971L134.22 244.963C133.63 244.727 133.807 244.432 134.634 244.313L142.192 243.014C143.019 242.896 144.2 242.955 144.79 243.132L150.341 245.14C150.99 245.376 150.754 245.672 149.927 245.79Z" fill="url(#paint92_linear)"/>
<path d="M163.922 243.428L156.364 244.727C155.537 244.845 154.356 244.786 153.766 244.609L148.215 242.601C147.624 242.365 147.802 242.069 148.628 241.951L156.187 240.652C157.013 240.534 158.194 240.593 158.785 240.77L164.336 242.778C164.985 242.955 164.808 243.25 163.922 243.428Z" fill="url(#paint93_linear)"/>
<path d="M178.271 241.007L170.713 242.306C169.886 242.424 168.705 242.365 168.115 242.188L162.564 240.18C161.974 239.944 162.151 239.649 162.977 239.53L170.536 238.231C171.363 238.113 172.544 238.172 173.134 238.349L178.685 240.357C179.334 240.534 179.157 240.83 178.271 241.007Z" fill="url(#paint94_linear)"/>
<path d="M192.679 238.526L185.121 239.826C184.294 239.944 183.113 239.885 182.523 239.707L176.972 237.7C176.381 237.464 176.559 237.168 177.385 237.05L184.944 235.751C185.77 235.633 186.951 235.692 187.542 235.869L193.093 237.877C193.683 238.113 193.506 238.408 192.679 238.526Z" fill="url(#paint95_linear)"/>
<path d="M207.029 236.106L199.47 237.405C198.644 237.523 197.463 237.464 196.872 237.287L191.321 235.279C190.731 235.043 190.908 234.747 191.735 234.629L199.293 233.33C200.12 233.212 201.301 233.271 201.891 233.448L207.442 235.456C208.033 235.692 207.855 235.987 207.029 236.106Z" fill="url(#paint96_linear)"/>
<path d="M99.44 264.804L82.8469 267.638C82.0202 267.756 80.8392 267.697 80.2487 267.52L74.6981 265.512C74.1076 265.276 74.2847 264.981 75.1114 264.863L91.7044 262.028C92.5311 261.91 93.7121 261.969 94.3026 262.147L99.8533 264.154C100.444 264.331 100.267 264.627 99.44 264.804Z" fill="url(#paint97_linear)"/>
<path d="M246.12 239.885L233.542 242.01C232.716 242.129 231.535 242.069 230.944 241.892L225.393 239.885C224.803 239.648 224.98 239.353 225.807 239.235L238.384 237.109C239.211 236.991 240.392 237.05 240.983 237.227L246.533 239.235C247.183 239.471 246.947 239.767 246.12 239.885Z" fill="url(#paint98_linear)"/>
<path d="M113.257 262.442L105.699 263.741C104.872 263.859 103.691 263.8 103.101 263.623L97.55 261.615C96.9595 261.379 97.1366 261.084 97.9633 260.966L105.522 259.666C106.348 259.548 107.529 259.607 108.12 259.785L113.671 261.792C114.261 261.969 114.084 262.265 113.257 262.442Z" fill="url(#paint99_linear)"/>
<path d="M127.252 260.08L119.694 261.379C118.867 261.497 117.686 261.438 117.095 261.261L111.545 259.253C110.954 259.017 111.131 258.722 111.958 258.603L119.516 257.304C120.343 257.186 121.524 257.245 122.115 257.422L127.665 259.43C128.256 259.607 128.079 259.903 127.252 260.08Z" fill="url(#paint100_linear)"/>
<path d="M141.601 257.6L134.043 258.899C133.216 259.017 132.035 258.958 131.445 258.781L125.894 256.773C125.304 256.537 125.481 256.242 126.308 256.123L133.866 254.824C134.693 254.706 135.874 254.765 136.464 254.942L142.015 256.95C142.605 257.186 142.428 257.482 141.601 257.6Z" fill="url(#paint101_linear)"/>
<path d="M155.596 255.238L148.038 256.537C147.211 256.655 146.03 256.596 145.439 256.419L139.889 254.411C139.298 254.175 139.475 253.88 140.302 253.761L147.86 252.462C148.687 252.344 149.868 252.403 150.459 252.58L156.009 254.588C156.659 254.824 156.482 255.12 155.596 255.238Z" fill="url(#paint102_linear)"/>
<path d="M170.004 252.817L162.446 254.116C161.619 254.234 160.438 254.175 159.848 253.998L154.297 251.99C153.707 251.754 153.884 251.458 154.71 251.34L162.269 250.041C163.096 249.923 164.277 249.982 164.867 250.159L170.418 252.167C171.008 252.344 170.831 252.639 170.004 252.817Z" fill="url(#paint103_linear)"/>
<path d="M183.999 250.455L176.441 251.754C175.614 251.872 174.433 251.813 173.842 251.636L168.292 249.628C167.701 249.392 167.878 249.097 168.705 248.978L176.264 247.679C177.09 247.561 178.271 247.62 178.862 247.797L184.412 249.805C185.003 249.982 184.826 250.278 183.999 250.455Z" fill="url(#paint104_linear)"/>
<path d="M198.348 247.974L190.79 249.274C189.963 249.392 188.782 249.333 188.191 249.155L182.641 247.148C182.05 246.912 182.227 246.616 183.054 246.498L190.613 245.199C191.439 245.081 192.62 245.14 193.211 245.317L198.761 247.325C199.352 247.561 199.175 247.856 198.348 247.974Z" fill="url(#paint105_linear)"/>
<path d="M212.698 245.554L205.139 246.853C204.312 246.971 203.131 246.912 202.541 246.735L196.99 244.727C196.4 244.491 196.577 244.195 197.404 244.077L204.962 242.778C205.789 242.66 206.97 242.719 207.56 242.896L213.111 244.904C213.701 245.14 213.524 245.435 212.698 245.554Z" fill="url(#paint106_linear)"/>
<path d="M227.047 243.132L219.489 244.432C218.662 244.55 217.481 244.491 216.89 244.313L211.34 242.306C210.749 242.07 210.926 241.774 211.753 241.656L219.311 240.357C220.138 240.239 221.319 240.298 221.91 240.475L227.46 242.483C228.051 242.66 227.874 242.955 227.047 243.132Z" fill="url(#paint107_linear)"/>
<path d="M38.1771 263.271L33.9001 261.773C33.2082 261.533 32.7051 260.814 32.7051 260.154C32.7051 259.495 33.2711 259.195 33.9001 259.435L38.1771 260.934C38.8689 261.173 39.3721 261.893 39.3721 262.552C39.3721 263.211 38.8689 263.511 38.1771 263.271Z" fill="#383838"/>
<path d="M32.9644 260.274C32.9644 259.67 33.3273 259.368 33.8459 259.489L33.6903 259.429C33.1199 259.187 32.7051 259.549 32.7051 260.153C32.7051 260.757 33.1718 261.542 33.6903 261.783L37.2164 263.293C37.2683 263.293 37.3202 263.353 37.372 263.353L34.0014 261.904C33.431 261.663 32.9644 260.938 32.9644 260.274Z" fill="#5D5D5D"/>
<path d="M46.7203 266.605L42.019 265.106C41.2585 264.866 40.7054 264.147 40.7054 263.488C40.7054 262.828 41.3277 262.529 42.019 262.769L46.7203 264.267C47.4808 264.507 48.0339 265.226 48.0339 265.885C48.1031 266.545 47.4808 266.844 46.7203 266.605Z" fill="#383838"/>
<path d="M41.0018 263.454C41.0018 262.951 41.4166 262.699 42.0092 262.8L41.8314 262.75C41.1796 262.548 40.7054 262.85 40.7054 263.353C40.7054 263.856 41.2388 264.511 41.8314 264.712L45.8613 265.97C45.9205 265.97 45.9798 266.02 46.0391 266.02L42.187 264.812C41.5351 264.611 41.0018 264.007 41.0018 263.454Z" fill="#5D5D5D"/>
<path opacity="0.85" d="M261.79 191.743L94.9699 218.61C91.5437 219.139 88.7083 216.787 88.7083 213.26V110.966C88.7083 107.498 91.4847 104.205 94.9699 103.617L261.79 76.7505C265.216 76.2214 268.052 78.573 268.052 82.1004V184.394C268.052 187.922 265.275 191.155 261.79 191.743Z" fill="white"/>
<path opacity="0.8" d="M319.817 121.466L279.623 127.938C276.21 128.467 273.385 126.114 273.385 122.584V80.576C273.385 77.1048 276.151 73.81 279.623 73.2217L319.817 66.7499C323.23 66.2203 326.055 68.5737 326.055 72.1038V114.112C326.055 117.642 323.23 120.937 319.817 121.466Z" fill="white"/>
<path opacity="0.8" d="M319.817 182.136L279.623 188.608C276.21 189.138 273.385 186.784 273.385 183.254V141.246C273.385 137.775 276.151 134.48 279.623 133.892L319.817 127.42C323.23 126.891 326.055 129.244 326.055 132.774V174.782C326.055 178.312 323.23 181.548 319.817 182.136Z" fill="white"/>
<path opacity="0.6" d="M232.597 121.345L182.31 186L158.377 172.398L144.314 183.645L123.809 173.222L88.7083 204.49V213.558C88.7083 216.855 91.3674 219.093 94.6174 218.622L262.142 191.653C265.393 191.123 268.052 188.002 268.052 184.705V159.09L232.597 121.345Z" fill="url(#paint108_linear)"/>
<path d="M268.052 157.19L235.75 122.384C235.927 121.911 236.045 121.439 236.045 120.907C236.045 119.016 234.569 117.716 232.679 118.07C230.848 118.366 229.313 120.139 229.313 122.03C229.313 122.502 229.431 122.916 229.549 123.33L184.905 182.245C184.315 181.831 183.547 181.595 182.72 181.713C181.598 181.89 180.594 182.6 180.004 183.545L161.638 172.967C161.757 172.613 161.816 172.258 161.816 171.904C161.816 170.013 160.339 168.713 158.45 169.067C156.619 169.363 155.084 171.136 155.084 173.027C155.084 173.322 155.143 173.558 155.202 173.795L147.23 180.649C146.639 179.999 145.694 179.704 144.69 179.881C143.686 180.059 142.801 180.649 142.151 181.477L127.034 173.677C127.093 173.499 127.093 173.322 127.093 173.086C127.093 171.195 125.616 169.895 123.727 170.249C121.896 170.545 120.361 172.317 120.361 174.208C120.361 174.445 120.361 174.681 120.42 174.858L88.7083 202.986V205.35L121.305 176.395C121.896 176.927 122.782 177.163 123.727 177.045C124.73 176.868 125.557 176.336 126.207 175.508L141.324 183.309C141.324 183.486 141.265 183.663 141.265 183.781C141.265 185.672 142.742 186.972 144.631 186.618C146.462 186.322 147.997 184.55 147.997 182.659C147.997 182.481 147.997 182.363 147.938 182.245L156.028 175.272C156.619 175.745 157.446 175.981 158.332 175.863C159.158 175.745 159.867 175.331 160.457 174.74L179.236 185.554C179.236 185.613 179.236 185.613 179.236 185.672C179.236 187.563 180.713 188.863 182.602 188.509C184.433 188.213 185.968 186.441 185.968 184.55C185.968 184.254 185.909 183.959 185.85 183.722L230.73 124.571C231.262 124.866 231.911 124.984 232.62 124.866C233.27 124.748 233.919 124.452 234.392 124.039L267.934 160.203V157.19H268.052Z" fill="url(#paint109_linear)"/>
<path opacity="0.5" d="M320.721 95.5796C320.721 107.767 311.154 119.184 299.387 121.078C287.62 122.971 278.052 114.629 278.052 102.442C278.052 90.2552 287.62 78.8373 299.387 76.9442C311.154 75.0511 320.721 83.3926 320.721 95.5796Z" fill="url(#paint110_linear)"/>
<path opacity="0.5" d="M299.053 98.6775L284.052 116.989C287.891 120.412 293.206 122.033 299.053 121.072C304.9 120.111 310.215 116.689 314.054 112.006L299.053 98.6775Z" fill="white"/>
<path opacity="0.2" d="M318.878 86.01L300.053 98.2935L314.676 111.345C318.015 107.329 320.778 101.246 320.72 94.6912C320.72 91.4431 320.03 88.5494 318.878 86.01Z" fill="black"/>
<g opacity="0.6">
<path opacity="0.6" d="M287.986 162.884L281.55 163.946V178.532L287.986 177.469V162.884Z" fill="url(#paint111_linear)"/>
<path opacity="0.6" d="M297.729 153.731L291.293 154.735V176.938L297.729 175.934V153.731Z" fill="url(#paint112_linear)"/>
<path opacity="0.6" d="M307.295 164.95L300.859 166.013V175.402L307.295 174.398V164.95Z" fill="url(#paint113_linear)"/>
<path opacity="0.6" d="M317.275 141.803L310.838 142.807V173.808L317.275 172.745V141.803Z" fill="url(#paint114_linear)"/>
</g>
<path opacity="0.2" d="M45.7042 273.012V254.824H-47.1223V294.152C-47.1223 300.116 -42.5755 306.021 -33.5408 310.568C-22.2623 316.177 -7.73598 317.595 6.79031 316.236C8.50277 320.547 13.8763 325.448 20.549 328.755C38.6773 337.849 68.0842 337.849 86.2125 328.755C95.3062 324.208 99.794 318.303 99.794 312.339V273.012H45.7042Z" fill="black"/>
<path d="M-47.2992 251.931V291.258C-47.2992 297.222 -42.7523 303.127 -33.7177 307.674C-15.5894 316.768 13.8175 316.768 31.9459 307.674C41.0396 303.127 45.5274 297.222 45.5274 291.258V251.931H-47.2992Z" fill="url(#paint115_linear)"/>
<path d="M-0.885914 276.2C24.7474 276.2 45.5274 265.81 45.5274 252.994C45.5274 240.177 24.7474 229.787 -0.885914 229.787C-26.5193 229.787 -47.2992 240.177 -47.2992 252.994C-47.2992 265.81 -26.5193 276.2 -0.885914 276.2Z" fill="url(#paint116_linear)"/>
<path opacity="0.6" d="M16.1204 246.735C13.8765 246.557 11.6327 246.794 9.3297 247.384C9.9202 246.439 10.0383 245.495 9.56591 244.55C9.09351 243.605 8.1487 242.778 6.73151 242.07C4.31046 240.889 1.41701 240.416 -1.94884 240.652C-4.42894 240.83 -7.02714 241.479 -9.68439 242.542L-13.995 240.416L-18.9552 242.896L-14.8217 244.963L-16.4751 245.79L-20.6086 243.723L-25.5688 246.203L-21.4353 248.27L-27.3403 251.222L2.77516 266.28L8.68016 263.328L13.1089 265.572L18.0691 263.091L13.6404 260.848L15.2938 260.021L19.7225 262.265L24.6827 259.785L20.1949 257.541C23.0293 255.946 24.7417 254.411 25.2732 252.935C25.9227 251.222 24.9189 249.687 22.2617 248.329C20.4311 247.443 18.3643 246.912 16.1204 246.735ZM0.649355 246.085C1.83035 246.676 2.24371 247.325 2.00751 248.093C1.71226 248.86 0.708405 249.628 -1.00405 250.514L-7.91289 253.998L-14.9989 250.455L-8.09004 246.971C-6.37759 246.085 -4.78324 245.613 -3.30699 245.436C-1.83074 245.258 -0.531645 245.495 0.649355 246.085ZM15.9433 253.584C15.589 254.352 14.5261 255.179 12.6956 256.124L4.54666 260.198L-2.89364 256.478L5.25526 252.403C8.97541 250.573 12.046 250.278 14.5261 251.518C15.8252 252.167 16.2976 252.817 15.9433 253.584Z" fill="white"/>
<path opacity="0.6" d="M29.1706 268.288C12.7547 276.496 -13.995 276.496 -30.4109 268.288C-46.8268 260.08 -46.8268 246.675 -30.4109 238.467C-13.995 230.26 12.7547 230.26 29.1706 238.467C45.5865 246.675 45.5865 260.021 29.1706 268.288ZM-28.7575 239.294C-44.2876 247.03 -44.2876 259.666 -28.7575 267.402C-13.2273 275.138 11.987 275.138 27.4581 267.402C42.9292 259.666 42.9883 247.03 27.4581 239.294C11.928 231.559 -13.2273 231.559 -28.7575 239.294Z" fill="white"/>
<path opacity="0.2" d="M32.2411 300.765C14.1128 309.859 -15.4122 309.859 -33.5405 300.765C-37.9693 298.581 -41.3942 295.982 -43.6971 293.148C-45.4686 290.963 -46.9449 288.188 -47.2992 285.885V288.247C-45.7639 293.266 -41.158 297.872 -33.8949 301.474C-24.7421 306.08 -12.6959 308.324 -0.649712 308.324C11.3965 308.324 23.4427 306.021 32.5954 301.474C39.2681 298.108 43.6968 293.975 45.5864 289.369V286.416C45.2321 288.719 44.1692 290.963 42.3977 293.089C40.0357 295.982 36.6108 298.521 32.2411 300.765Z" fill="white"/>
<path opacity="0.2" d="M32.2411 293.089C14.1128 302.183 -15.4122 302.183 -33.5405 293.089C-37.9693 290.904 -41.3942 288.306 -43.6971 285.471C-45.4686 283.287 -46.9449 280.511 -47.2992 278.208V280.57C-45.7639 285.589 -41.158 290.195 -33.8949 293.797C-24.7421 298.403 -12.6959 300.647 -0.649712 300.647C11.3965 300.647 23.4427 298.344 32.5954 293.797C39.2681 290.432 43.6968 286.298 45.5864 281.692V278.74C45.2321 281.043 44.1692 283.287 42.3977 285.412C40.0357 288.306 36.6108 290.904 32.2411 293.089Z" fill="white"/>
<path opacity="0.2" d="M32.2411 284.29C14.1128 293.384 -15.4122 293.384 -33.5405 284.29C-37.9693 282.105 -41.3942 279.507 -43.6971 276.673C-45.4686 274.488 -46.9449 271.713 -47.2992 269.41V271.772C-45.7639 276.791 -41.158 281.397 -33.8949 284.999C-24.7421 289.605 -12.6959 291.849 -0.649712 291.849C11.3965 291.849 23.4427 289.546 32.5954 284.999C39.2681 281.633 43.6968 277.5 45.5864 272.894V269.941C45.2321 272.244 44.1692 274.488 42.3977 276.614C40.0357 279.507 36.6108 282.046 32.2411 284.29Z" fill="white"/>
<path opacity="0.2" d="M32.2411 275.138C14.1128 284.231 -15.4122 284.231 -33.5405 275.138C-37.9693 272.953 -41.3942 270.355 -43.6971 267.52C-45.4686 265.335 -46.9449 262.56 -47.2992 260.257V262.619C-45.7639 267.638 -41.158 272.244 -33.8949 275.846C-24.7421 280.452 -12.6959 282.696 -0.649712 282.696C11.3965 282.696 23.4427 280.393 32.5954 275.846C39.2681 272.48 43.6968 268.347 45.5864 263.741V260.789C45.2321 263.091 44.1692 265.335 42.3977 267.461C40.0357 270.355 36.6108 272.894 32.2411 275.138Z" fill="white"/>
<path d="M6.84973 270.118V309.446C6.84973 315.41 11.3966 321.315 20.4312 325.862C38.5596 334.955 67.9664 334.955 86.0948 325.862C95.1885 321.315 99.6763 315.41 99.6763 309.446V270.118H6.84973Z" fill="url(#paint117_linear)"/>
<path d="M53.263 294.447C78.8964 294.447 99.6763 284.057 99.6763 271.24C99.6763 258.424 78.8964 248.034 53.263 248.034C27.6297 248.034 6.84973 258.424 6.84973 271.24C6.84973 284.057 27.6297 294.447 53.263 294.447Z" fill="url(#paint118_linear)"/>
<path opacity="0.6" d="M70.2689 264.922C68.025 264.745 65.7811 264.981 63.4781 265.572C64.0686 264.627 64.1867 263.682 63.7143 262.737C63.2419 261.792 62.2971 260.966 60.8799 260.257C58.4589 259.076 55.5654 258.604 52.1996 258.84C49.7195 259.017 47.1213 259.667 44.464 260.73L40.1534 258.604L35.1932 261.084L39.3267 263.151L37.6733 263.977L33.5398 261.911L28.5796 264.391L32.7131 266.457L26.8081 269.41L56.9236 284.468L62.8286 281.515L67.2573 283.759L72.2175 281.279L67.7888 279.035L69.4422 278.208L73.8709 280.452L78.8311 277.972L74.3433 275.728C77.1777 274.134 78.8902 272.599 79.4216 271.122C80.0712 269.41 79.0673 267.875 76.4101 266.516C74.5795 265.631 72.5128 265.099 70.2689 264.922ZM54.7978 264.273C55.9788 264.863 56.3921 265.513 56.1559 266.28C55.8607 267.048 54.8568 267.816 53.1444 268.701L46.2355 272.185L39.1495 268.642L46.0584 265.158C47.7708 264.273 49.3652 263.8 50.8414 263.623C52.2586 263.446 53.6168 263.682 54.7978 264.273ZM70.0917 271.831C69.7374 272.599 68.6745 273.425 66.844 274.37L58.6951 278.445L51.2548 274.724L59.4037 270.65C63.1238 268.819 66.1944 268.524 68.6745 269.764C69.9736 270.355 70.446 271.063 70.0917 271.831Z" fill="white"/>
<path opacity="0.6" d="M83.3191 286.475C66.9032 294.683 40.1536 294.683 23.7377 286.475C7.32181 278.267 7.32181 264.863 23.7377 256.655C40.1536 248.447 66.9032 248.447 83.3191 256.655C99.735 264.863 99.735 278.267 83.3191 286.475ZM25.3911 257.541C9.86096 265.276 9.86096 277.913 25.3911 285.649C40.9212 293.384 66.1356 293.384 81.6067 285.649C97.1368 277.913 97.1368 265.276 81.6067 257.541C66.0765 249.805 40.9212 249.746 25.3911 257.541Z" fill="white"/>
<path opacity="0.2" d="M86.39 318.953C68.2617 328.046 38.7367 328.046 20.6084 318.953C16.1796 316.768 12.7547 314.17 10.4518 311.335C8.68028 309.15 7.20403 306.375 6.84973 304.072V306.434C8.38503 311.453 12.9909 316.059 20.2541 319.661C29.4068 324.267 41.453 326.511 53.4992 326.511C65.5454 326.511 77.5916 324.208 86.7444 319.661C93.417 316.295 97.8457 312.162 99.7353 307.556V304.603C99.381 306.906 98.3181 309.15 96.5467 311.276C94.1847 314.17 90.7597 316.768 86.39 318.953Z" fill="white"/>
<path opacity="0.2" d="M86.39 311.335C68.2617 320.429 38.7367 320.429 20.6084 311.335C16.1796 309.15 12.7547 306.552 10.4518 303.718C8.68028 301.533 7.20403 298.758 6.84973 296.455V298.817C8.38503 303.836 12.9909 308.442 20.2541 312.044C29.4068 316.65 41.453 318.894 53.4992 318.894C65.5454 318.894 77.5916 316.591 86.7444 312.044C93.417 308.678 97.8457 304.544 99.7353 299.939V296.986C99.381 299.289 98.3181 301.533 96.5467 303.659C94.1847 306.552 90.7597 309.091 86.39 311.335Z" fill="white"/>
<path opacity="0.2" d="M86.39 302.478C68.2617 311.571 38.7367 311.571 20.6084 302.478C16.1796 300.293 12.7547 297.695 10.4518 294.86C8.68028 292.675 7.20403 289.9 6.84973 287.597V289.959C8.38503 294.978 12.9909 299.584 20.2541 303.186C29.4068 307.792 41.453 310.036 53.4992 310.036C65.5454 310.036 77.5916 307.733 86.7444 303.186C93.417 299.821 97.8457 295.687 99.7353 291.081V288.129C99.381 290.432 98.3181 292.675 96.5467 294.801C94.1847 297.695 90.7597 300.293 86.39 302.478Z" fill="white"/>
<path opacity="0.2" d="M86.39 293.325C68.2617 302.419 38.7367 302.419 20.6084 293.325C16.1796 291.14 12.7547 288.542 10.4518 285.707C8.68028 283.523 7.20403 280.747 6.84973 278.444V280.806C8.38503 285.826 12.9909 290.431 20.2541 294.034C29.4068 298.639 41.453 300.883 53.4992 300.883C65.5454 300.883 77.5916 298.58 86.7444 294.034C93.417 290.668 97.8457 286.534 99.7353 281.928V278.976C99.381 281.279 98.3181 283.523 96.5467 285.648C94.1847 288.542 90.7597 291.14 86.39 293.325Z" fill="white"/>
<path d="M6.61365 231.559V270.886C6.61365 276.85 11.1605 282.755 20.1951 287.302C38.3235 296.396 67.7304 296.396 85.8587 287.302C94.9524 282.755 99.4402 276.85 99.4402 270.886V231.559H6.61365Z" fill="url(#paint119_linear)"/>
<path d="M53.0269 255.828C78.6603 255.828 99.4402 245.438 99.4402 232.622C99.4402 219.805 78.6603 209.415 53.0269 209.415C27.3936 209.415 6.61365 219.805 6.61365 232.622C6.61365 245.438 27.3936 255.828 53.0269 255.828Z" fill="url(#paint120_linear)"/>
<path opacity="0.6" d="M70.0329 226.362C67.789 226.185 65.5451 226.421 63.2422 227.012C63.8327 226.067 63.9508 225.122 63.4784 224.177C63.006 223.233 62.0612 222.406 60.644 221.697C58.2229 220.516 55.3295 220.044 51.9636 220.28C49.4835 220.457 46.8853 221.107 44.2281 222.17L39.9174 220.044L34.9572 222.524L39.0907 224.591L37.4373 225.417L33.3038 223.351L28.3436 225.831L32.4771 227.898L26.5721 230.85L56.6876 245.908L62.5926 242.955L67.0214 245.199L71.9816 242.719L67.5528 240.475L69.2062 239.649L73.635 241.892L78.5952 239.412L74.1074 237.168C76.9418 235.574 78.6542 234.039 79.1857 232.563C79.8352 230.85 78.8314 229.315 76.1741 227.957C74.3436 227.012 72.2768 226.48 70.0329 226.362ZM54.5618 225.654C55.7428 226.244 56.1562 226.894 55.92 227.661C55.6247 228.429 54.6209 229.197 52.9084 230.082L45.9996 233.566L38.9136 230.023L45.8224 226.539C47.5349 225.654 49.1292 225.181 50.6055 225.004C52.0227 224.886 53.3808 225.063 54.5618 225.654ZM69.8558 233.212C69.5015 233.98 68.4386 234.806 66.608 235.751L58.4591 239.826L51.0188 236.106L59.1677 232.031C62.8879 230.201 65.9585 229.905 68.4386 231.145C69.6786 231.736 70.151 232.444 69.8558 233.212Z" fill="white"/>
<path opacity="0.6" d="M83.0829 247.857C66.667 256.065 39.9174 256.065 23.5015 247.857C7.0856 239.649 7.0856 226.244 23.5015 218.036C39.9174 209.828 66.667 209.828 83.0829 218.036C99.4988 226.303 99.4988 239.649 83.0829 247.857ZM25.1549 218.922C9.62475 226.658 9.62475 239.294 25.1549 247.03C40.685 254.765 65.8994 254.765 81.3705 247.03C96.8416 239.294 96.9006 226.658 81.3705 218.922C65.8403 211.187 40.626 211.187 25.1549 218.922Z" fill="white"/>
<path opacity="0.2" d="M86.0945 280.334C67.9662 289.428 38.4412 289.428 20.3128 280.334C15.8841 278.149 12.4592 275.551 10.1563 272.717C8.38475 270.532 6.9085 267.756 6.5542 265.453V267.815C8.0895 272.835 12.6954 277.441 19.9585 281.043C29.1113 285.648 41.1575 287.892 53.2037 287.892C65.2499 287.892 77.2961 285.589 86.4488 281.043C93.1215 277.677 97.5502 273.543 99.4398 268.937V265.985C99.0855 268.288 98.0226 270.532 96.2511 272.657C93.9482 275.61 90.5233 278.149 86.0945 280.334Z" fill="white"/>
<path opacity="0.2" d="M86.0945 272.717C67.9662 281.81 38.4412 281.81 20.3128 272.717C15.8841 270.532 12.4592 267.933 10.1563 265.099C8.38475 262.914 6.9085 260.139 6.5542 257.836V260.198C8.0895 265.217 12.6954 269.823 19.9585 273.425C29.1113 278.031 41.1575 280.275 53.2037 280.275C65.2499 280.275 77.2961 277.972 86.4488 273.425C93.1215 270.059 97.5502 265.926 99.4398 261.32V258.367C99.0855 260.67 98.0226 262.914 96.2511 265.04C93.9482 267.933 90.5233 270.532 86.0945 272.717Z" fill="white"/>
<path opacity="0.2" d="M86.0945 263.859C67.9662 272.953 38.4412 272.953 20.3128 263.859C15.8841 261.674 12.4592 259.076 10.1563 256.242C8.38475 254.057 6.9085 251.281 6.5542 248.979V251.341C8.0895 256.36 12.6954 260.966 19.9585 264.568C29.1113 269.174 41.1575 271.418 53.2037 271.418C65.2499 271.418 77.2961 269.115 86.4488 264.568C93.1215 261.202 97.5502 257.068 99.4398 252.462V249.51C99.0855 251.813 98.0226 254.057 96.2511 256.183C93.9482 259.135 90.5233 261.674 86.0945 263.859Z" fill="white"/>
<path opacity="0.2" d="M86.0945 254.706C67.9662 263.8 38.4412 263.8 20.3128 254.706C15.8841 252.521 12.4592 249.923 10.1563 247.089C8.38475 244.904 6.9085 242.129 6.5542 239.826V242.188C8.0895 247.207 12.6954 251.813 19.9585 255.415C29.1113 260.021 41.1575 262.265 53.2037 262.265C65.2499 262.265 77.2961 259.962 86.4488 255.415C93.1215 252.049 97.5502 247.916 99.4398 243.31V240.357C99.0855 242.66 98.0226 244.904 96.2511 247.03C93.9482 249.982 90.5233 252.521 86.0945 254.706Z" fill="white"/>
<path opacity="0.1" d="M249.053 248.042L105.04 274.033C104.512 274.153 104.042 274.634 104.042 275.174C104.042 275.714 104.453 276.074 105.04 276.014L249.053 250.023C249.581 249.903 250.051 249.423 250.051 248.882C250.051 248.282 249.64 247.922 249.053 248.042Z" fill="black"/>
<path opacity="0.1" d="M273.134 244.019L258.384 246.302C257.855 246.405 257.384 246.82 257.384 247.287C257.384 247.754 257.796 248.066 258.384 248.014L276.719 245.16L273.134 244.019Z" fill="black"/>
</g>
<defs>
<linearGradient id="paint0_linear" x1="-121" y1="154.568" x2="420.188" y2="154.568" gradientUnits="userSpaceOnUse">
<stop stop-color="#9A00FF"/>
<stop offset="0.2766" stop-color="#9702FF"/>
<stop offset="0.4783" stop-color="#8E08FD"/>
<stop offset="0.6563" stop-color="#7E13FB"/>
<stop offset="0.8204" stop-color="#6721F8"/>
<stop offset="0.9738" stop-color="#4B34F4"/>
<stop offset="1" stop-color="#4538F3"/>
</linearGradient>
<linearGradient id="paint1_linear" x1="4.77242" y1="261.949" x2="225.856" y2="92.5965" gradientUnits="userSpaceOnUse">
<stop stop-color="#4538F3"/>
<stop offset="0.027806" stop-color="#4A36F3"/>
<stop offset="0.3444" stop-color="#7A1FF8"/>
<stop offset="0.6233" stop-color="#9D0EFC"/>
<stop offset="0.8514" stop-color="#B204FE"/>
<stop offset="1" stop-color="#BA00FF"/>
</linearGradient>
<linearGradient id="paint2_linear" x1="27.3411" y1="256.028" x2="309.39" y2="256.028" gradientUnits="userSpaceOnUse">
<stop stop-color="white"/>
<stop offset="0.0410243" stop-color="#F9F9F9"/>
<stop offset="0.306" stop-color="#D9D9D9"/>
<stop offset="0.5604" stop-color="#C2C1C1"/>
<stop offset="0.7975" stop-color="#B4B3B3"/>
<stop offset="1" stop-color="#AFAEAE"/>
</linearGradient>
<linearGradient id="paint3_linear" x1="45.6699" y1="257.802" x2="222.798" y2="205.885" gradientUnits="userSpaceOnUse">
<stop stop-color="#969594"/>
<stop offset="1" stop-color="#48443E"/>
</linearGradient>
<linearGradient id="paint4_linear" x1="46.1482" y1="259.432" x2="223.277" y2="207.515" gradientUnits="userSpaceOnUse">
<stop stop-color="#969594"/>
<stop offset="1" stop-color="#48443E"/>
</linearGradient>
<linearGradient id="paint5_linear" x1="46.6139" y1="261.023" x2="223.742" y2="209.106" gradientUnits="userSpaceOnUse">
<stop stop-color="#969594"/>
<stop offset="1" stop-color="#48443E"/>
</linearGradient>
<linearGradient id="paint6_linear" x1="47.092" y1="262.653" x2="224.221" y2="210.736" gradientUnits="userSpaceOnUse">
<stop stop-color="#969594"/>
<stop offset="1" stop-color="#48443E"/>
</linearGradient>
<linearGradient id="paint7_linear" x1="47.5586" y1="264.244" x2="224.687" y2="212.327" gradientUnits="userSpaceOnUse">
<stop stop-color="#969594"/>
<stop offset="1" stop-color="#48443E"/>
</linearGradient>
<linearGradient id="paint8_linear" x1="48.0363" y1="265.875" x2="225.165" y2="213.958" gradientUnits="userSpaceOnUse">
<stop stop-color="#969594"/>
<stop offset="1" stop-color="#48443E"/>
</linearGradient>
<linearGradient id="paint9_linear" x1="48.5021" y1="267.465" x2="225.631" y2="215.548" gradientUnits="userSpaceOnUse">
<stop stop-color="#969594"/>
<stop offset="1" stop-color="#48443E"/>
</linearGradient>
<linearGradient id="paint10_linear" x1="48.9804" y1="269.095" x2="226.109" y2="217.178" gradientUnits="userSpaceOnUse">
<stop stop-color="#969594"/>
<stop offset="1" stop-color="#48443E"/>
</linearGradient>
<linearGradient id="paint11_linear" x1="49.4594" y1="270.731" x2="226.588" y2="218.814" gradientUnits="userSpaceOnUse">
<stop stop-color="#969594"/>
<stop offset="1" stop-color="#48443E"/>
</linearGradient>
<linearGradient id="paint12_linear" x1="49.9371" y1="272.361" x2="227.066" y2="220.444" gradientUnits="userSpaceOnUse">
<stop stop-color="#969594"/>
<stop offset="1" stop-color="#48443E"/>
</linearGradient>
<linearGradient id="paint13_linear" x1="50.4034" y1="273.951" x2="227.532" y2="222.034" gradientUnits="userSpaceOnUse">
<stop stop-color="#969594"/>
<stop offset="1" stop-color="#48443E"/>
</linearGradient>
<linearGradient id="paint14_linear" x1="50.8815" y1="275.582" x2="228.01" y2="223.665" gradientUnits="userSpaceOnUse">
<stop stop-color="#969594"/>
<stop offset="1" stop-color="#48443E"/>
</linearGradient>
<linearGradient id="paint15_linear" x1="52.5941" y1="281.424" x2="229.723" y2="229.507" gradientUnits="userSpaceOnUse">
<stop stop-color="#969594"/>
<stop offset="1" stop-color="#48443E"/>
</linearGradient>
<linearGradient id="paint16_linear" x1="53.0719" y1="283.055" x2="230.2" y2="231.138" gradientUnits="userSpaceOnUse">
<stop stop-color="#969594"/>
<stop offset="1" stop-color="#48443E"/>
</linearGradient>
<linearGradient id="paint17_linear" x1="53.5378" y1="284.645" x2="230.666" y2="232.728" gradientUnits="userSpaceOnUse">
<stop stop-color="#969594"/>
<stop offset="1" stop-color="#48443E"/>
</linearGradient>
<linearGradient id="paint18_linear" x1="54.9691" y1="289.527" x2="232.098" y2="237.61" gradientUnits="userSpaceOnUse">
<stop stop-color="#969594"/>
<stop offset="1" stop-color="#48443E"/>
</linearGradient>
<linearGradient id="paint19_linear" x1="56.3832" y1="294.353" x2="233.512" y2="242.436" gradientUnits="userSpaceOnUse">
<stop stop-color="#969594"/>
<stop offset="1" stop-color="#48443E"/>
</linearGradient>
<linearGradient id="paint20_linear" x1="56.8613" y1="295.983" x2="233.99" y2="244.066" gradientUnits="userSpaceOnUse">
<stop stop-color="#969594"/>
<stop offset="1" stop-color="#48443E"/>
</linearGradient>
<linearGradient id="paint21_linear" x1="57.3273" y1="297.574" x2="234.456" y2="245.657" gradientUnits="userSpaceOnUse">
<stop stop-color="#969594"/>
<stop offset="1" stop-color="#48443E"/>
</linearGradient>
<linearGradient id="paint22_linear" x1="57.8053" y1="299.204" x2="234.934" y2="247.287" gradientUnits="userSpaceOnUse">
<stop stop-color="#969594"/>
<stop offset="1" stop-color="#48443E"/>
</linearGradient>
<linearGradient id="paint23_linear" x1="49.3839" y1="270.472" x2="226.512" y2="218.555" gradientUnits="userSpaceOnUse">
<stop stop-color="#969594"/>
<stop offset="1" stop-color="#48443E"/>
</linearGradient>
<linearGradient id="paint24_linear" x1="50.104" y1="272.93" x2="227.233" y2="221.013" gradientUnits="userSpaceOnUse">
<stop stop-color="#969594"/>
<stop offset="1" stop-color="#48443E"/>
</linearGradient>
<linearGradient id="paint25_linear" x1="50.5705" y1="274.521" x2="227.699" y2="222.604" gradientUnits="userSpaceOnUse">
<stop stop-color="#969594"/>
<stop offset="1" stop-color="#48443E"/>
</linearGradient>
<linearGradient id="paint26_linear" x1="51.0484" y1="276.151" x2="228.177" y2="224.234" gradientUnits="userSpaceOnUse">
<stop stop-color="#969594"/>
<stop offset="1" stop-color="#48443E"/>
</linearGradient>
<linearGradient id="paint27_linear" x1="51.5145" y1="277.741" x2="228.643" y2="225.824" gradientUnits="userSpaceOnUse">
<stop stop-color="#969594"/>
<stop offset="1" stop-color="#48443E"/>
</linearGradient>
<linearGradient id="paint28_linear" x1="51.9924" y1="279.372" x2="229.121" y2="227.455" gradientUnits="userSpaceOnUse">
<stop stop-color="#969594"/>
<stop offset="1" stop-color="#48443E"/>
</linearGradient>
<linearGradient id="paint29_linear" x1="52.4715" y1="281.007" x2="229.6" y2="229.09" gradientUnits="userSpaceOnUse">
<stop stop-color="#969594"/>
<stop offset="1" stop-color="#48443E"/>
</linearGradient>
<linearGradient id="paint30_linear" x1="52.9495" y1="282.637" x2="230.078" y2="230.72" gradientUnits="userSpaceOnUse">
<stop stop-color="#969594"/>
<stop offset="1" stop-color="#48443E"/>
</linearGradient>
<linearGradient id="paint31_linear" x1="53.4156" y1="284.228" x2="230.544" y2="232.311" gradientUnits="userSpaceOnUse">
<stop stop-color="#969594"/>
<stop offset="1" stop-color="#48443E"/>
</linearGradient>
<linearGradient id="paint32_linear" x1="53.8935" y1="285.858" x2="231.022" y2="233.941" gradientUnits="userSpaceOnUse">
<stop stop-color="#969594"/>
<stop offset="1" stop-color="#48443E"/>
</linearGradient>
<linearGradient id="paint33_linear" x1="47.5513" y1="264.221" x2="224.68" y2="212.304" gradientUnits="userSpaceOnUse">
<stop stop-color="#969594"/>
<stop offset="1" stop-color="#48443E"/>
</linearGradient>
<linearGradient id="paint34_linear" x1="53.3671" y1="284.063" x2="230.496" y2="232.146" gradientUnits="userSpaceOnUse">
<stop stop-color="#969594"/>
<stop offset="1" stop-color="#48443E"/>
</linearGradient>
<linearGradient id="paint35_linear" x1="48.1634" y1="266.308" x2="225.292" y2="214.391" gradientUnits="userSpaceOnUse">
<stop stop-color="#969594"/>
<stop offset="1" stop-color="#48443E"/>
</linearGradient>
<linearGradient id="paint36_linear" x1="48.6293" y1="267.898" x2="225.758" y2="215.981" gradientUnits="userSpaceOnUse">
<stop stop-color="#969594"/>
<stop offset="1" stop-color="#48443E"/>
</linearGradient>
<linearGradient id="paint37_linear" x1="49.1071" y1="269.529" x2="226.236" y2="217.611" gradientUnits="userSpaceOnUse">
<stop stop-color="#969594"/>
<stop offset="1" stop-color="#48443E"/>
</linearGradient>
<linearGradient id="paint38_linear" x1="49.5737" y1="271.12" x2="226.702" y2="219.203" gradientUnits="userSpaceOnUse">
<stop stop-color="#969594"/>
<stop offset="1" stop-color="#48443E"/>
</linearGradient>
<linearGradient id="paint39_linear" x1="50.0516" y1="272.75" x2="227.18" y2="220.833" gradientUnits="userSpaceOnUse">
<stop stop-color="#969594"/>
<stop offset="1" stop-color="#48443E"/>
</linearGradient>
<linearGradient id="paint40_linear" x1="50.5177" y1="274.34" x2="227.646" y2="222.423" gradientUnits="userSpaceOnUse">
<stop stop-color="#969594"/>
<stop offset="1" stop-color="#48443E"/>
</linearGradient>
<linearGradient id="paint41_linear" x1="50.9955" y1="275.971" x2="228.124" y2="224.054" gradientUnits="userSpaceOnUse">
<stop stop-color="#969594"/>
<stop offset="1" stop-color="#48443E"/>
</linearGradient>
<linearGradient id="paint42_linear" x1="51.4745" y1="277.606" x2="228.603" y2="225.689" gradientUnits="userSpaceOnUse">
<stop stop-color="#969594"/>
<stop offset="1" stop-color="#48443E"/>
</linearGradient>
<linearGradient id="paint43_linear" x1="51.9527" y1="279.236" x2="229.081" y2="227.319" gradientUnits="userSpaceOnUse">
<stop stop-color="#969594"/>
<stop offset="1" stop-color="#48443E"/>
</linearGradient>
<linearGradient id="paint44_linear" x1="51.0301" y1="276.089" x2="228.159" y2="224.172" gradientUnits="userSpaceOnUse">
<stop stop-color="#969594"/>
<stop offset="1" stop-color="#48443E"/>
</linearGradient>
<linearGradient id="paint45_linear" x1="55.9834" y1="292.988" x2="233.112" y2="241.071" gradientUnits="userSpaceOnUse">
<stop stop-color="#969594"/>
<stop offset="1" stop-color="#48443E"/>
</linearGradient>
<linearGradient id="paint46_linear" x1="51.6417" y1="278.176" x2="228.77" y2="226.259" gradientUnits="userSpaceOnUse">
<stop stop-color="#969594"/>
<stop offset="1" stop-color="#48443E"/>
</linearGradient>
<linearGradient id="paint47_linear" x1="52.1078" y1="279.766" x2="229.236" y2="227.849" gradientUnits="userSpaceOnUse">
<stop stop-color="#969594"/>
<stop offset="1" stop-color="#48443E"/>
</linearGradient>
<linearGradient id="paint48_linear" x1="52.5859" y1="281.397" x2="229.715" y2="229.48" gradientUnits="userSpaceOnUse">
<stop stop-color="#969594"/>
<stop offset="1" stop-color="#48443E"/>
</linearGradient>
<linearGradient id="paint49_linear" x1="53.0521" y1="282.988" x2="230.181" y2="231.071" gradientUnits="userSpaceOnUse">
<stop stop-color="#969594"/>
<stop offset="1" stop-color="#48443E"/>
</linearGradient>
<linearGradient id="paint50_linear" x1="53.53" y1="284.618" x2="230.659" y2="232.701" gradientUnits="userSpaceOnUse">
<stop stop-color="#969594"/>
<stop offset="1" stop-color="#48443E"/>
</linearGradient>
<linearGradient id="paint51_linear" x1="53.9964" y1="286.209" x2="231.125" y2="234.292" gradientUnits="userSpaceOnUse">
<stop stop-color="#969594"/>
<stop offset="1" stop-color="#48443E"/>
</linearGradient>
<linearGradient id="paint52_linear" x1="54.4737" y1="287.839" x2="231.602" y2="235.922" gradientUnits="userSpaceOnUse">
<stop stop-color="#969594"/>
<stop offset="1" stop-color="#48443E"/>
</linearGradient>
<linearGradient id="paint53_linear" x1="54.9535" y1="289.474" x2="232.082" y2="237.557" gradientUnits="userSpaceOnUse">
<stop stop-color="#969594"/>
<stop offset="1" stop-color="#48443E"/>
</linearGradient>
<linearGradient id="paint54_linear" x1="55.4317" y1="291.105" x2="232.56" y2="239.188" gradientUnits="userSpaceOnUse">
<stop stop-color="#969594"/>
<stop offset="1" stop-color="#48443E"/>
</linearGradient>
<linearGradient id="paint55_linear" x1="138.06" y1="265.438" x2="249.927" y2="265.438" gradientUnits="userSpaceOnUse">
<stop stop-color="white"/>
<stop offset="0.0410243" stop-color="#F9F9F9"/>
<stop offset="0.306" stop-color="#D9D9D9"/>
<stop offset="0.5604" stop-color="#C2C1C1"/>
<stop offset="0.7975" stop-color="#B4B3B3"/>
<stop offset="1" stop-color="#AFAEAE"/>
</linearGradient>
<linearGradient id="paint56_linear" x1="72.7518" y1="248.514" x2="213.533" y2="202.516" gradientUnits="userSpaceOnUse">
<stop stop-color="#969594"/>
<stop offset="1" stop-color="#676562"/>
</linearGradient>
<linearGradient id="paint57_linear" x1="73.4174" y1="250.549" x2="214.198" y2="204.552" gradientUnits="userSpaceOnUse">
<stop stop-color="#969594"/>
<stop offset="1" stop-color="#676562"/>
</linearGradient>
<linearGradient id="paint58_linear" x1="74.0657" y1="252.535" x2="214.847" y2="206.538" gradientUnits="userSpaceOnUse">
<stop stop-color="#969594"/>
<stop offset="1" stop-color="#676562"/>
</linearGradient>
<linearGradient id="paint59_linear" x1="74.7311" y1="254.571" x2="215.512" y2="208.573" gradientUnits="userSpaceOnUse">
<stop stop-color="#969594"/>
<stop offset="1" stop-color="#676562"/>
</linearGradient>
<linearGradient id="paint60_linear" x1="75.3803" y1="256.558" x2="216.161" y2="210.56" gradientUnits="userSpaceOnUse">
<stop stop-color="#969594"/>
<stop offset="1" stop-color="#676562"/>
</linearGradient>
<linearGradient id="paint61_linear" x1="76.0453" y1="258.594" x2="216.826" y2="212.596" gradientUnits="userSpaceOnUse">
<stop stop-color="#969594"/>
<stop offset="1" stop-color="#676562"/>
</linearGradient>
<linearGradient id="paint62_linear" x1="76.6945" y1="260.579" x2="217.475" y2="214.581" gradientUnits="userSpaceOnUse">
<stop stop-color="#969594"/>
<stop offset="1" stop-color="#676562"/>
</linearGradient>
<linearGradient id="paint63_linear" x1="77.3589" y1="262.615" x2="218.14" y2="216.617" gradientUnits="userSpaceOnUse">
<stop stop-color="#969594"/>
<stop offset="1" stop-color="#676562"/>
</linearGradient>
<linearGradient id="paint64_linear" x1="78.0262" y1="264.657" x2="218.807" y2="218.659" gradientUnits="userSpaceOnUse">
<stop stop-color="#969594"/>
<stop offset="1" stop-color="#676562"/>
</linearGradient>
<linearGradient id="paint65_linear" x1="78.6911" y1="266.692" x2="219.472" y2="220.694" gradientUnits="userSpaceOnUse">
<stop stop-color="#969594"/>
<stop offset="1" stop-color="#676562"/>
</linearGradient>
<linearGradient id="paint66_linear" x1="79.3401" y1="268.678" x2="220.121" y2="222.68" gradientUnits="userSpaceOnUse">
<stop stop-color="#969594"/>
<stop offset="1" stop-color="#676562"/>
</linearGradient>
<linearGradient id="paint67_linear" x1="80.0055" y1="270.714" x2="220.787" y2="224.716" gradientUnits="userSpaceOnUse">
<stop stop-color="#969594"/>
<stop offset="1" stop-color="#676562"/>
</linearGradient>
<linearGradient id="paint68_linear" x1="80.7126" y1="272.877" x2="221.493" y2="226.879" gradientUnits="userSpaceOnUse">
<stop stop-color="#969594"/>
<stop offset="1" stop-color="#676562"/>
</linearGradient>
<linearGradient id="paint69_linear" x1="81.3776" y1="274.913" x2="222.159" y2="228.915" gradientUnits="userSpaceOnUse">
<stop stop-color="#969594"/>
<stop offset="1" stop-color="#676562"/>
</linearGradient>
<linearGradient id="paint70_linear" x1="82.0263" y1="276.899" x2="222.807" y2="230.901" gradientUnits="userSpaceOnUse">
<stop stop-color="#969594"/>
<stop offset="1" stop-color="#676562"/>
</linearGradient>
<linearGradient id="paint71_linear" x1="84.0183" y1="282.995" x2="224.799" y2="236.997" gradientUnits="userSpaceOnUse">
<stop stop-color="#969594"/>
<stop offset="1" stop-color="#676562"/>
</linearGradient>
<linearGradient id="paint72_linear" x1="85.9869" y1="289.02" x2="226.768" y2="243.022" gradientUnits="userSpaceOnUse">
<stop stop-color="#969594"/>
<stop offset="1" stop-color="#676562"/>
</linearGradient>
<linearGradient id="paint73_linear" x1="86.6519" y1="291.056" x2="227.433" y2="245.058" gradientUnits="userSpaceOnUse">
<stop stop-color="#969594"/>
<stop offset="1" stop-color="#676562"/>
</linearGradient>
<linearGradient id="paint74_linear" x1="87.3006" y1="293.041" x2="228.081" y2="247.044" gradientUnits="userSpaceOnUse">
<stop stop-color="#969594"/>
<stop offset="1" stop-color="#676562"/>
</linearGradient>
<linearGradient id="paint75_linear" x1="87.9659" y1="295.077" x2="228.747" y2="249.079" gradientUnits="userSpaceOnUse">
<stop stop-color="#969594"/>
<stop offset="1" stop-color="#676562"/>
</linearGradient>
<linearGradient id="paint76_linear" x1="77.0827" y1="261.768" x2="217.864" y2="215.77" gradientUnits="userSpaceOnUse">
<stop stop-color="#969594"/>
<stop offset="1" stop-color="#676562"/>
</linearGradient>
<linearGradient id="paint77_linear" x1="78.085" y1="264.837" x2="218.866" y2="218.839" gradientUnits="userSpaceOnUse">
<stop stop-color="#969594"/>
<stop offset="1" stop-color="#676562"/>
</linearGradient>
<linearGradient id="paint78_linear" x1="78.7343" y1="266.823" x2="219.515" y2="220.826" gradientUnits="userSpaceOnUse">
<stop stop-color="#969594"/>
<stop offset="1" stop-color="#676562"/>
</linearGradient>
<linearGradient id="paint79_linear" x1="79.3995" y1="268.859" x2="220.18" y2="222.861" gradientUnits="userSpaceOnUse">
<stop stop-color="#969594"/>
<stop offset="1" stop-color="#676562"/>
</linearGradient>
<linearGradient id="paint80_linear" x1="80.0482" y1="270.845" x2="220.829" y2="224.847" gradientUnits="userSpaceOnUse">
<stop stop-color="#969594"/>
<stop offset="1" stop-color="#676562"/>
</linearGradient>
<linearGradient id="paint81_linear" x1="80.7134" y1="272.881" x2="221.494" y2="226.883" gradientUnits="userSpaceOnUse">
<stop stop-color="#969594"/>
<stop offset="1" stop-color="#676562"/>
</linearGradient>
<linearGradient id="paint82_linear" x1="81.3803" y1="274.922" x2="222.161" y2="228.924" gradientUnits="userSpaceOnUse">
<stop stop-color="#969594"/>
<stop offset="1" stop-color="#676562"/>
</linearGradient>
<linearGradient id="paint83_linear" x1="82.0455" y1="276.958" x2="222.827" y2="230.96" gradientUnits="userSpaceOnUse">
<stop stop-color="#969594"/>
<stop offset="1" stop-color="#676562"/>
</linearGradient>
<linearGradient id="paint84_linear" x1="82.6944" y1="278.944" x2="223.475" y2="232.946" gradientUnits="userSpaceOnUse">
<stop stop-color="#969594"/>
<stop offset="1" stop-color="#676562"/>
</linearGradient>
<linearGradient id="paint85_linear" x1="83.3595" y1="280.979" x2="224.14" y2="234.982" gradientUnits="userSpaceOnUse">
<stop stop-color="#969594"/>
<stop offset="1" stop-color="#676562"/>
</linearGradient>
<linearGradient id="paint86_linear" x1="74.9515" y1="255.246" x2="215.732" y2="209.248" gradientUnits="userSpaceOnUse">
<stop stop-color="#969594"/>
<stop offset="1" stop-color="#676562"/>
</linearGradient>
<linearGradient id="paint87_linear" x1="82.8406" y1="279.392" x2="223.622" y2="233.395" gradientUnits="userSpaceOnUse">
<stop stop-color="#969594"/>
<stop offset="1" stop-color="#676562"/>
</linearGradient>
<linearGradient id="paint88_linear" x1="75.8031" y1="257.852" x2="216.584" y2="211.854" gradientUnits="userSpaceOnUse">
<stop stop-color="#969594"/>
<stop offset="1" stop-color="#676562"/>
</linearGradient>
<linearGradient id="paint89_linear" x1="76.4516" y1="259.837" x2="217.233" y2="213.84" gradientUnits="userSpaceOnUse">
<stop stop-color="#969594"/>
<stop offset="1" stop-color="#676562"/>
</linearGradient>
<linearGradient id="paint90_linear" x1="77.1167" y1="261.873" x2="217.898" y2="215.875" gradientUnits="userSpaceOnUse">
<stop stop-color="#969594"/>
<stop offset="1" stop-color="#676562"/>
</linearGradient>
<linearGradient id="paint91_linear" x1="77.7661" y1="263.86" x2="218.547" y2="217.862" gradientUnits="userSpaceOnUse">
<stop stop-color="#969594"/>
<stop offset="1" stop-color="#676562"/>
</linearGradient>
<linearGradient id="paint92_linear" x1="78.4312" y1="265.895" x2="219.212" y2="219.898" gradientUnits="userSpaceOnUse">
<stop stop-color="#969594"/>
<stop offset="1" stop-color="#676562"/>
</linearGradient>
<linearGradient id="paint93_linear" x1="79.08" y1="267.881" x2="219.861" y2="221.883" gradientUnits="userSpaceOnUse">
<stop stop-color="#969594"/>
<stop offset="1" stop-color="#676562"/>
</linearGradient>
<linearGradient id="paint94_linear" x1="79.7451" y1="269.917" x2="220.526" y2="223.919" gradientUnits="userSpaceOnUse">
<stop stop-color="#969594"/>
<stop offset="1" stop-color="#676562"/>
</linearGradient>
<linearGradient id="paint95_linear" x1="80.4118" y1="271.959" x2="221.193" y2="225.961" gradientUnits="userSpaceOnUse">
<stop stop-color="#969594"/>
<stop offset="1" stop-color="#676562"/>
</linearGradient>
<linearGradient id="paint96_linear" x1="81.0773" y1="273.994" x2="221.858" y2="227.997" gradientUnits="userSpaceOnUse">
<stop stop-color="#969594"/>
<stop offset="1" stop-color="#676562"/>
</linearGradient>
<linearGradient id="paint97_linear" x1="78.9554" y1="267.499" x2="219.736" y2="221.501" gradientUnits="userSpaceOnUse">
<stop stop-color="#969594"/>
<stop offset="1" stop-color="#676562"/>
</linearGradient>
<linearGradient id="paint98_linear" x1="85.8491" y1="288.598" x2="226.63" y2="242.601" gradientUnits="userSpaceOnUse">
<stop stop-color="#969594"/>
<stop offset="1" stop-color="#676562"/>
</linearGradient>
<linearGradient id="paint99_linear" x1="79.8063" y1="270.105" x2="220.587" y2="224.107" gradientUnits="userSpaceOnUse">
<stop stop-color="#969594"/>
<stop offset="1" stop-color="#676562"/>
</linearGradient>
<linearGradient id="paint100_linear" x1="80.4551" y1="272.09" x2="221.236" y2="226.093" gradientUnits="userSpaceOnUse">
<stop stop-color="#969594"/>
<stop offset="1" stop-color="#676562"/>
</linearGradient>
<linearGradient id="paint101_linear" x1="81.1204" y1="274.126" x2="221.901" y2="228.128" gradientUnits="userSpaceOnUse">
<stop stop-color="#969594"/>
<stop offset="1" stop-color="#676562"/>
</linearGradient>
<linearGradient id="paint102_linear" x1="81.7693" y1="276.113" x2="222.55" y2="230.115" gradientUnits="userSpaceOnUse">
<stop stop-color="#969594"/>
<stop offset="1" stop-color="#676562"/>
</linearGradient>
<linearGradient id="paint103_linear" x1="82.4346" y1="278.148" x2="223.216" y2="232.151" gradientUnits="userSpaceOnUse">
<stop stop-color="#969594"/>
<stop offset="1" stop-color="#676562"/>
</linearGradient>
<linearGradient id="paint104_linear" x1="83.0833" y1="280.134" x2="223.864" y2="234.136" gradientUnits="userSpaceOnUse">
<stop stop-color="#969594"/>
<stop offset="1" stop-color="#676562"/>
</linearGradient>
<linearGradient id="paint105_linear" x1="83.7482" y1="282.17" x2="224.529" y2="236.172" gradientUnits="userSpaceOnUse">
<stop stop-color="#969594"/>
<stop offset="1" stop-color="#676562"/>
</linearGradient>
<linearGradient id="paint106_linear" x1="84.4157" y1="284.212" x2="225.197" y2="238.214" gradientUnits="userSpaceOnUse">
<stop stop-color="#969594"/>
<stop offset="1" stop-color="#676562"/>
</linearGradient>
<linearGradient id="paint107_linear" x1="85.0812" y1="286.247" x2="225.862" y2="240.25" gradientUnits="userSpaceOnUse">
<stop stop-color="#969594"/>
<stop offset="1" stop-color="#676562"/>
</linearGradient>
<linearGradient id="paint108_linear" x1="178.092" y1="212.744" x2="168.164" y2="142.553" gradientUnits="userSpaceOnUse">
<stop stop-color="#4538F3" stop-opacity="0"/>
<stop offset="0.1829" stop-color="#5431F5" stop-opacity="0.1829"/>
<stop offset="0.5371" stop-color="#7D1DF9" stop-opacity="0.5371"/>
<stop offset="1" stop-color="#BA00FF"/>
</linearGradient>
<linearGradient id="paint109_linear" x1="84.7149" y1="213.019" x2="279.845" y2="154.373" gradientUnits="userSpaceOnUse">
<stop stop-color="#4538F3"/>
<stop offset="0.027806" stop-color="#4A36F3"/>
<stop offset="0.3444" stop-color="#7A1FF8"/>
<stop offset="0.6233" stop-color="#9D0EFC"/>
<stop offset="0.8514" stop-color="#B204FE"/>
<stop offset="1" stop-color="#BA00FF"/>
</linearGradient>
<linearGradient id="paint110_linear" x1="278.09" y1="102.378" x2="320.747" y2="102.378" gradientUnits="userSpaceOnUse">
<stop stop-color="#4538F3"/>
<stop offset="0.027806" stop-color="#4A36F3"/>
<stop offset="0.3444" stop-color="#7A1FF8"/>
<stop offset="0.6233" stop-color="#9D0EFC"/>
<stop offset="0.8514" stop-color="#B204FE"/>
<stop offset="1" stop-color="#BA00FF"/>
</linearGradient>
<linearGradient id="paint111_linear" x1="257.276" y1="190.104" x2="355.938" y2="131.102" gradientUnits="userSpaceOnUse">
<stop stop-color="#4538F3"/>
<stop offset="0.027806" stop-color="#4A36F3"/>
<stop offset="0.3444" stop-color="#7A1FF8"/>
<stop offset="0.6233" stop-color="#9D0EFC"/>
<stop offset="0.8514" stop-color="#B204FE"/>
<stop offset="1" stop-color="#BA00FF"/>
</linearGradient>
<linearGradient id="paint112_linear" x1="257.63" y1="191.333" x2="356.664" y2="132.108" gradientUnits="userSpaceOnUse">
<stop stop-color="#4538F3"/>
<stop offset="0.027806" stop-color="#4A36F3"/>
<stop offset="0.3444" stop-color="#7A1FF8"/>
<stop offset="0.6233" stop-color="#9D0EFC"/>
<stop offset="0.8514" stop-color="#B204FE"/>
<stop offset="1" stop-color="#BA00FF"/>
</linearGradient>
<linearGradient id="paint113_linear" x1="262.615" y1="199.405" x2="360.874" y2="140.643" gradientUnits="userSpaceOnUse">
<stop stop-color="#4538F3"/>
<stop offset="0.027806" stop-color="#4A36F3"/>
<stop offset="0.3444" stop-color="#7A1FF8"/>
<stop offset="0.6233" stop-color="#9D0EFC"/>
<stop offset="0.8514" stop-color="#B204FE"/>
<stop offset="1" stop-color="#BA00FF"/>
</linearGradient>
<linearGradient id="paint114_linear" x1="259.755" y1="196.054" x2="359.055" y2="136.67" gradientUnits="userSpaceOnUse">
<stop stop-color="#4538F3"/>
<stop offset="0.027806" stop-color="#4A36F3"/>
<stop offset="0.3444" stop-color="#7A1FF8"/>
<stop offset="0.6233" stop-color="#9D0EFC"/>
<stop offset="0.8514" stop-color="#B204FE"/>
<stop offset="1" stop-color="#BA00FF"/>
</linearGradient>
<linearGradient id="paint115_linear" x1="-38.5905" y1="353.194" x2="26.0022" y2="215.785" gradientUnits="userSpaceOnUse">
<stop stop-color="#9A00FF"/>
<stop offset="0.2766" stop-color="#9702FF"/>
<stop offset="0.4783" stop-color="#8E08FD"/>
<stop offset="0.6563" stop-color="#7E13FB"/>
<stop offset="0.8204" stop-color="#6721F8"/>
<stop offset="0.9738" stop-color="#4B34F4"/>
<stop offset="1" stop-color="#4538F3"/>
</linearGradient>
<linearGradient id="paint116_linear" x1="-22.4129" y1="298.83" x2="-12.4372" y2="213.979" gradientUnits="userSpaceOnUse">
<stop stop-color="#BA00FF"/>
<stop offset="0.2448" stop-color="#B701FF"/>
<stop offset="0.4234" stop-color="#AE06FE"/>
<stop offset="0.5809" stop-color="#9E0DFC"/>
<stop offset="0.7263" stop-color="#8718FA"/>
<stop offset="0.8631" stop-color="#6A26F7"/>
<stop offset="0.9922" stop-color="#4737F3"/>
<stop offset="1" stop-color="#4538F3"/>
</linearGradient>
<linearGradient id="paint117_linear" x1="15.5471" y1="371.407" x2="80.1399" y2="233.997" gradientUnits="userSpaceOnUse">
<stop stop-color="#9A00FF"/>
<stop offset="0.2766" stop-color="#9702FF"/>
<stop offset="0.4783" stop-color="#8E08FD"/>
<stop offset="0.6563" stop-color="#7E13FB"/>
<stop offset="0.8204" stop-color="#6721F8"/>
<stop offset="0.9738" stop-color="#4B34F4"/>
<stop offset="1" stop-color="#4538F3"/>
</linearGradient>
<linearGradient id="paint118_linear" x1="31.7247" y1="317.042" x2="41.7003" y2="232.191" gradientUnits="userSpaceOnUse">
<stop stop-color="#BA00FF"/>
<stop offset="0.2448" stop-color="#B701FF"/>
<stop offset="0.4234" stop-color="#AE06FE"/>
<stop offset="0.5809" stop-color="#9E0DFC"/>
<stop offset="0.7263" stop-color="#8718FA"/>
<stop offset="0.8631" stop-color="#6A26F7"/>
<stop offset="0.9922" stop-color="#4737F3"/>
<stop offset="1" stop-color="#4538F3"/>
</linearGradient>
<linearGradient id="paint119_linear" x1="15.2952" y1="332.802" x2="79.8879" y2="195.392" gradientUnits="userSpaceOnUse">
<stop stop-color="#9A00FF"/>
<stop offset="0.2766" stop-color="#9702FF"/>
<stop offset="0.4783" stop-color="#8E08FD"/>
<stop offset="0.6563" stop-color="#7E13FB"/>
<stop offset="0.8204" stop-color="#6721F8"/>
<stop offset="0.9738" stop-color="#4B34F4"/>
<stop offset="1" stop-color="#4538F3"/>
</linearGradient>
<linearGradient id="paint120_linear" x1="31.4729" y1="278.438" x2="41.4485" y2="193.587" gradientUnits="userSpaceOnUse">
<stop stop-color="#BA00FF"/>
<stop offset="0.2448" stop-color="#B701FF"/>
<stop offset="0.4234" stop-color="#AE06FE"/>
<stop offset="0.5809" stop-color="#9E0DFC"/>
<stop offset="0.7263" stop-color="#8718FA"/>
<stop offset="0.8631" stop-color="#6A26F7"/>
<stop offset="0.9922" stop-color="#4737F3"/>
<stop offset="1" stop-color="#4538F3"/>
</linearGradient>
</defs>
</svg>
