<svg width="20" height="20" viewBox="0 0 20 20" fill="none" xmlns="http://www.w3.org/2000/svg">
    <path d="M10 0C4.47059 0 0 4.47059 0 10C0 15.5294 4.47059 20 10 20C15.5294 20 20 15.5294 20 10C20 4.47059 15.5294 0 10 0ZM13.1765 13.3333C12.7451 13.6471 12.1176 13.8039 11.3333 13.8431V14.7451C11.3333 15.1373 10.9804 15.4118 10.6275 15.3726C10.3137 15.3333 10.1176 15.0196 10.1176 14.7451V13.9216H9.4902V14.7843C9.4902 15.1765 9.13726 15.451 8.78431 15.4118C8.43137 15.2941 8.2353 15.0196 8.2353 14.7059V13.8824H7.37255C7.17647 13.8824 7.05882 13.7255 7.05882 13.5686V6.62745C7.05882 6.43137 7.21569 6.31373 7.37255 6.31373H8.2353V5.52941C8.2353 5.17647 8.5098 4.90196 8.86275 4.90196C9.21569 4.90196 9.4902 5.17647 9.4902 5.52941V6.31373H10.1176V5.52941C10.1176 5.17647 10.3922 4.90196 10.7451 4.90196C11.098 4.90196 11.3726 5.17647 11.3726 5.52941V6.35294C12.2745 6.43137 12.9412 6.7451 13.2941 7.29412C13.4902 7.56863 13.5686 7.88235 13.5686 8.19608C13.5686 8.58824 13.4902 8.98039 13.2941 9.29412C13.1373 9.56863 12.8627 9.80392 12.549 9.96078C12.9804 10.0784 13.3333 10.3137 13.5686 10.6275C13.8039 10.9412 13.9216 11.3333 13.9216 11.8039C13.9608 12.4706 13.6863 12.9804 13.1765 13.3333Z" fill="url(#paint0_linear)"/>
    <path d="M11.4903 9.17648C11.7256 9.01961 11.8432 8.78432 11.8432 8.50981C11.8432 8.2353 11.7256 8.00001 11.4903 7.84314C11.255 7.68628 10.9413 7.60785 10.5099 7.60785H8.78442V9.41177H10.5099C10.9413 9.41177 11.255 9.33334 11.4903 9.17648Z" fill="url(#paint1_linear)"/>
    <path d="M10.7843 10.6667H8.74512V12.549H10.7843C11.2549 12.549 11.6079 12.4706 11.8432 12.3137C12.0784 12.1569 12.1961 11.9216 12.1961 11.6079C12.1961 10.9804 11.7255 10.6667 10.7843 10.6667Z" fill="url(#paint2_linear)"/>
    <defs>
        <linearGradient id="paint0_linear" x1="-3.75" y1="10" x2="25.75" y2="10" gradientUnits="userSpaceOnUse">
            <stop stop-color="#4538F3"/>
            <stop offset="1" stop-color="#BA00FF"/>
        </linearGradient>
        <linearGradient id="paint1_linear" x1="8.21089" y1="8.50981" x2="12.7227" y2="8.50981" gradientUnits="userSpaceOnUse">
            <stop stop-color="#4538F3"/>
            <stop offset="1" stop-color="#BA00FF"/>
        </linearGradient>
        <linearGradient id="paint2_linear" x1="8.09806" y1="11.6079" x2="13.1883" y2="11.6079" gradientUnits="userSpaceOnUse">
            <stop stop-color="#4538F3"/>
            <stop offset="1" stop-color="#BA00FF"/>
        </linearGradient>
    </defs>
</svg>
