<svg width="109" height="66" viewBox="0 0 109 66" fill="none" xmlns="http://www.w3.org/2000/svg">
    <path d="M53.4831 16.2362L57.3937 24.1437C57.6237 24.6037 58.055 24.8913 58.5439 24.9775L67.2852 26.2427C68.5217 26.4153 69.0392 27.968 68.1191 28.8306L61.7931 34.9841C61.4481 35.3291 61.2755 35.8467 61.3618 36.3356L62.857 45.0194C63.0583 46.2558 61.7644 47.2047 60.6429 46.6296L52.8217 42.5465C52.3904 42.3165 51.8441 42.3165 51.4128 42.5465L43.5916 46.6584C42.4701 47.2335 41.1762 46.2846 41.3775 45.0481L42.8727 36.3643C42.959 35.8755 42.7864 35.3579 42.4414 35.0128L36.1154 28.8594C35.224 27.968 35.7128 26.444 36.9493 26.2715L45.6906 25.0063C46.1795 24.92 46.6108 24.6325 46.8408 24.1724L50.7514 16.2649C51.3265 15.1148 52.9368 15.1148 53.4831 16.2362Z" fill="url(#paint0_linear)"/>
    <path d="M59.0904 23.0222L64.3813 23.7986L67.1129 20.2905C69.442 17.3001 72.9501 15.6036 76.7457 15.6036H95.091V21.5557C95.091 22.5334 96.2412 23.051 96.96 22.4184L108.577 12.1818C109.094 11.7217 109.094 10.9453 108.577 10.4853L96.96 0.27744C96.2412 -0.355158 95.091 0.162422 95.091 1.14007V7.00598H76.7457C70.3047 7.00598 64.3237 9.91018 60.3269 14.9997L57.1351 19.0828L59.0904 23.0222Z" fill="#6065CD"/>
    <path d="M44.5407 48.4411C44.0231 48.6999 43.4768 48.8437 42.9017 48.8437C41.8666 48.8437 40.8601 48.3836 40.1988 47.5785C39.5374 46.7734 39.2499 45.7382 39.4224 44.7031L40.0838 40.8787L36.5757 45.3644C34.2466 48.3549 30.7386 50.0514 26.943 50.0514H0.948975V58.6777H26.943C33.384 58.6777 39.3937 55.7735 43.3618 50.684L45.5184 47.9236L44.5407 48.4411Z" fill="#6065CD"/>
    <path d="M96.9602 43.5529C96.2413 42.9203 95.0911 43.4378 95.0911 44.4155V50.2526H78.0397C74.2442 50.2526 70.7649 48.5561 68.407 45.5657L64.0076 39.9586L64.8127 44.703C64.9852 45.7382 64.6977 46.7734 64.0363 47.5785C63.3462 48.3836 62.3686 48.8437 61.3334 48.8437C60.7583 48.8437 60.212 48.6999 59.6944 48.4411H59.6656L61.5922 50.8852C65.5603 55.9748 71.5412 58.879 78.011 58.879H95.0624V64.8599C95.0624 65.8376 96.2125 66.3551 96.9314 65.7225L108.548 55.486C109.066 55.0259 109.066 54.2495 108.548 53.7894L96.9602 43.5529Z" fill="#6065CD"/>
    <path d="M37.8409 20.4918L40.3712 23.7123L45.1732 23.0222L47.3298 18.6228L44.6269 15.1723C40.6588 10.0827 34.6779 7.17853 28.2081 7.17853H0V15.8049H28.2081C32.0037 15.8049 35.5117 17.5301 37.8409 20.4918Z" fill="#6065CD"/>
    <defs>
        <linearGradient id="paint0_linear" x1="32.4832" y1="54.1428" x2="69.5498" y2="15.257" gradientUnits="userSpaceOnUse">
            <stop stop-color="#BA00FF"/>
            <stop offset="0.2448" stop-color="#B701FF"/>
            <stop offset="0.4234" stop-color="#AE06FE"/>
            <stop offset="0.5809" stop-color="#9E0DFC"/>
            <stop offset="0.7263" stop-color="#8718FA"/>
            <stop offset="0.8631" stop-color="#6A26F7"/>
            <stop offset="0.9922" stop-color="#4737F3"/>
            <stop offset="1" stop-color="#4538F3"/>
        </linearGradient>
    </defs>
</svg>
