<svg width="33" height="34" viewBox="0 0 33 34" fill="none" xmlns="http://www.w3.org/2000/svg">
    <path d="M16.3442 0.2771C7.31382 0.2771 0 7.67323 0 16.8053C0 25.9373 7.31382 33.3335 16.3442 33.3335C25.3747 33.3335 32.6885 25.9373 32.6885 16.8053C32.6885 7.67323 25.3747 0.2771 16.3442 0.2771ZM19.9966 14.1645L19.8231 16.5006H17.4582V24.6169H14.4633V16.5006H12.8654V14.1645H14.4633V13.435V12.7148V12.5947C14.4633 11.9022 14.4816 10.8404 14.9746 10.1755C15.4951 9.47378 16.2164 9.00287 17.4491 9.00287C19.4579 9.00287 20.307 9.28911 20.307 9.28911L19.9053 11.6806C19.9053 11.6806 19.2387 11.4867 18.6178 11.4867C17.9969 11.4867 17.4399 11.7083 17.4399 12.3362V12.5947V13.435V14.1645H19.9966Z" fill="black"/>
</svg>
