<svg width="12" height="15" viewBox="0 0 12 15" fill="none" xmlns="http://www.w3.org/2000/svg">
    <path d="M10.3286 6.3687H9.64286V3.28609C9.64286 2.05305 8.95714 0.943309 7.8 0.408991C5.05714 -0.865154 2.35714 1.02551 2.35714 3.4916V6.3687H1.67143C0.728571 6.3687 0 7.10852 0 7.97165V13.397C0 14.3013 0.771429 15 1.67143 15H10.3286C11.2714 15 12 14.2602 12 13.397V7.97165C12 7.10852 11.2286 6.3687 10.3286 6.3687ZM6.47143 10.8077V12.5339H5.52857V10.8077C5.05714 10.6432 4.71429 10.1911 4.71429 9.65681C4.71429 8.95809 5.27143 8.42377 6 8.42377C6.72857 8.42377 7.28571 8.95809 7.28571 9.65681C7.28571 10.1911 6.94286 10.6021 6.47143 10.8077ZM8.35714 6.3687H3.64286V3.4916C3.64286 1.80644 5.61429 0.532295 7.45714 1.64203C8.01429 2.01195 8.35714 2.62847 8.35714 3.28609V6.3687Z" fill="#233878"/>
</svg>
