<svg width="114" height="87" viewBox="0 0 114 87" fill="none" xmlns="http://www.w3.org/2000/svg">
    <g opacity="0.15">
        <path d="M13.3277 84.4088C12.6423 85.0942 11.8299 85.5512 10.8907 85.9066C9.95137 86.2366 8.93592 86.3889 7.71739 86.3889C5.28032 86.3889 3.37636 85.7035 2.03089 84.358C0.685426 83.0126 0 81.1086 0 78.6715C0 76.2345 0.685426 74.3305 2.03089 72.9851C3.37636 71.6396 5.28032 70.9542 7.71739 70.9542C9.74828 70.9542 11.373 71.4365 12.6423 72.4519L11.4999 74.0005C10.5606 73.2643 9.26594 72.9089 7.71739 72.9089C5.81343 72.9089 4.3918 73.3912 3.45252 74.4067C2.51323 75.4221 1.95473 76.8437 1.95473 78.6715C1.95473 80.5755 2.43707 81.9971 3.45252 82.9364C4.3918 83.8757 5.81343 84.4342 7.71739 84.4342C9.54519 84.4342 10.9668 83.9519 11.9061 83.0126L13.3277 84.4088ZM17.2372 78.7223C17.2372 76.2853 17.8465 74.3813 19.1412 73.0358C20.4358 71.6904 22.1113 71.0049 24.3453 71.0049V72.9597C22.6444 72.9597 21.3751 73.442 20.4866 74.4574C19.5981 75.4729 19.1919 76.8945 19.1919 78.7223V86.2366H17.2372V78.7223ZM34.9059 71.0049C37.343 71.0049 39.247 71.6904 40.5924 73.0358C41.9379 74.3813 42.6233 76.2853 42.6233 78.7223V82.0987C42.6233 82.4287 42.5472 82.8349 42.4202 83.3172C42.2933 83.7996 41.9379 84.2565 41.4048 84.7388C40.8717 85.2212 40.1101 85.6273 39.0947 85.8812C38.0792 86.2112 36.7337 86.3636 34.9567 86.3636C33.2051 86.3636 31.8342 86.2366 30.8188 85.8812C29.8033 85.5512 29.0671 85.145 28.5086 84.7388C27.9755 84.2565 27.6201 83.7996 27.4932 83.3172C27.3663 82.8349 27.2901 82.4287 27.2901 82.0987C27.2901 80.9563 27.4932 80.0678 27.8232 79.3824C28.1532 78.6969 28.6356 78.24 29.2448 77.8846C29.8541 77.5546 30.5395 77.3515 31.3519 77.2753C32.1642 77.1991 33.0528 77.1484 33.992 77.1484H40.5417C40.2624 75.8029 39.6532 74.7875 38.7139 74.0259C37.7746 73.2897 36.556 72.9343 34.9313 72.9343C33.3066 72.9343 32.0119 73.3405 30.9965 74.0767L29.7779 72.5281C31.098 71.5634 32.7989 71.0049 34.9059 71.0049ZM40.5671 79.0523H34.8298C33.5351 79.0523 32.5958 79.0523 31.7834 79.1285C31.0473 79.2047 30.438 79.3316 30.0318 79.5347C29.6256 79.7378 29.3464 80.017 29.2194 80.4232C29.0925 80.8294 29.0164 81.3625 29.0164 81.9717C29.0164 82.3779 29.1433 82.7841 29.4987 83.0634C29.8287 83.3426 30.2349 83.5965 30.7934 83.7995C31.3265 84.0026 31.9358 84.1296 32.6212 84.2057C33.3066 84.2819 33.9667 84.3327 34.6521 84.3327C35.3375 84.3327 35.9976 84.2565 36.683 84.2057C37.3684 84.1296 37.9777 84.0026 38.5108 83.7995C39.0439 83.5965 39.5262 83.3934 39.8055 83.0634C40.1355 82.7841 40.2878 82.3779 40.2878 81.9717V79.0523H40.5671ZM51.8639 77.783C52.4732 77.91 53.0824 78.0623 53.7679 78.1892C54.4533 78.3161 54.9864 78.5954 55.4687 78.8746C55.9511 79.1539 56.408 79.6108 56.6873 80.0932C57.0173 80.5755 57.1696 81.2355 57.1696 82.0479C57.1696 83.3934 56.6873 84.485 55.6718 85.2212C54.6564 85.9574 53.3109 86.3636 51.61 86.3636C49.9092 86.3636 48.5637 85.9574 47.5482 85.2212C46.5328 84.485 46.0505 83.3934 46.0505 82.0479H48.0814C48.0814 82.5302 48.2083 82.9364 48.4114 83.2664C48.6145 83.5965 48.8937 83.7995 49.2237 84.0026C49.5537 84.2057 49.9599 84.2819 50.3661 84.3327C50.7723 84.3834 51.2546 84.4088 51.6608 84.4088C52.067 84.4088 52.4732 84.4088 52.8793 84.3327C53.2855 84.2565 53.6917 84.1296 54.0217 84.0026C54.3517 83.7995 54.631 83.5965 54.9102 83.2664C55.1133 82.9364 55.2402 82.581 55.2402 82.0479C55.2402 81.7179 55.1641 81.4386 55.1133 81.2355C54.9864 81.0325 54.8341 80.8294 54.5802 80.6263C54.3263 80.4232 53.8948 80.2963 53.4378 80.1439C52.9809 79.9916 52.2955 79.8647 51.5339 79.6616C50.9246 79.5347 50.3153 79.3824 49.6299 79.1793C48.9445 78.9762 48.4114 78.7731 47.929 78.4431C47.4467 78.1131 46.9897 77.7069 46.7105 77.2245C46.3805 76.7422 46.2282 76.0822 46.2282 75.2698C46.2282 73.9243 46.7105 72.8327 47.7259 72.0965C48.7414 71.3603 50.0869 70.9542 51.7877 70.9542C53.4886 70.9542 54.8341 71.3603 55.8495 72.0965C56.865 72.8327 57.3473 73.9243 57.3473 75.2698H55.3926C55.3926 74.7875 55.2656 74.3813 55.0625 74.0513C54.8595 73.7213 54.5294 73.5182 54.174 73.3151C53.844 73.1881 53.4378 73.0358 53.0317 72.9851C52.6255 72.9089 52.2193 72.9089 51.8131 72.9089C51.4069 72.9089 51.0008 72.9089 50.5184 72.9851C50.0361 73.0612 49.7061 73.1881 49.376 73.3151C49.046 73.442 48.7668 73.7213 48.5637 74.0513C48.3606 74.3813 48.2337 74.7367 48.2337 75.2698C48.2337 75.5998 48.3098 75.8791 48.3606 76.0822C48.4114 76.2853 48.6399 76.4883 48.8937 76.6914C49.173 76.8945 49.5791 77.0215 50.0361 77.2245C50.5184 77.4276 51.0515 77.5799 51.8639 77.783ZM65.7247 77.783C66.334 77.91 66.9433 78.0623 67.6287 78.1892C68.3141 78.3161 68.8472 78.5954 69.3296 78.8746C69.8119 79.1539 70.2688 79.6108 70.5481 80.0932C70.8781 80.5755 71.0304 81.2355 71.0304 82.0479C71.0304 83.3934 70.5481 84.485 69.5326 85.2212C68.5172 85.9574 67.1717 86.3636 65.4709 86.3636C63.77 86.3636 62.4245 85.9574 61.4091 85.2212C60.3936 84.485 59.9113 83.3934 59.9113 82.0479H61.866C61.866 82.5302 61.993 82.9364 62.196 83.2664C62.3991 83.5965 62.6784 83.7995 63.0084 84.0026C63.3384 84.2057 63.7446 84.2819 64.1508 84.3327C64.557 84.4088 65.0393 84.4088 65.4455 84.4088C65.8517 84.4088 66.2578 84.4088 66.664 84.3327C67.0702 84.2565 67.4764 84.1296 67.8064 84.0026C68.1364 83.7995 68.4157 83.5965 68.6949 83.2664C68.898 82.9364 69.0249 82.581 69.0249 82.0479C69.0249 81.7179 68.9488 81.4386 68.898 81.2355C68.8218 81.0325 68.6187 80.8294 68.3649 80.6263C68.111 80.4232 67.6795 80.2963 67.2225 80.1439C66.7402 80.017 66.0801 79.8647 65.3185 79.6616C64.7093 79.5347 64.1 79.3824 63.4146 79.1793C62.7292 78.9762 62.1961 78.7731 61.7137 78.4431C61.2314 78.1131 60.7744 77.7069 60.4952 77.2245C60.1652 76.7422 60.0128 76.0822 60.0128 75.2698C60.0128 73.9243 60.4952 72.8327 61.5106 72.0965C62.5261 71.3603 63.8715 70.9542 65.5724 70.9542C67.2733 70.9542 68.6187 71.3603 69.6342 72.0965C70.6496 72.8327 71.132 73.9243 71.132 75.2698H69.1772C69.1772 74.7875 69.0503 74.3813 68.8472 74.0513C68.6441 73.7213 68.3141 73.5182 67.9587 73.3151C67.6287 73.112 67.2225 73.0358 66.8163 72.9851C66.4102 72.9089 66.004 72.9089 65.5978 72.9089C65.1916 72.9089 64.7854 72.9089 64.3031 72.9851C63.8969 73.0612 63.4907 73.1881 63.1607 73.3151C62.8307 73.442 62.5515 73.7213 62.3484 74.0513C62.1453 74.3813 62.0183 74.7367 62.0183 75.2698C62.0183 75.5998 62.0945 75.8791 62.1453 76.0822C62.196 76.2853 62.4245 76.4883 62.6784 76.6914C62.9576 76.8945 63.3638 77.0215 63.8208 77.2245C64.2777 77.4276 64.9378 77.5799 65.7247 77.783ZM80.8802 86.3636C78.9255 86.3636 77.3516 85.6781 76.2854 84.3327C75.1938 82.9872 74.6606 81.0832 74.6606 78.6462V71.2842H76.6154V78.6462C76.6154 79.1793 76.6915 79.7885 76.7423 80.474C76.8185 81.1594 77.0216 81.7687 77.3516 82.3779C77.6816 82.9872 78.0878 83.4695 78.6463 83.8757C79.2048 84.2819 79.9917 84.485 80.8802 84.485C81.8195 84.485 82.5811 84.2819 83.1142 83.8757C83.6473 83.4695 84.1297 82.9872 84.4089 82.3779C84.7389 81.7687 84.942 81.1594 85.0182 80.474C85.0943 79.7885 85.1451 79.1793 85.1451 78.6462V71.2842H87.0999V78.6462C87.0999 81.0832 86.5667 82.9872 85.4751 84.3327C84.3835 85.6781 82.8604 86.3636 80.8802 86.3636ZM93.9287 86.2366H91.974V64.3792H93.9287V86.2366ZM106.038 71.0049C108.475 71.0049 110.379 71.6904 111.724 73.0358C113.07 74.3813 113.755 76.2853 113.755 78.7223V82.0987C113.755 82.4287 113.679 82.8349 113.552 83.3172C113.425 83.7996 113.07 84.2565 112.537 84.7388C112.004 85.2212 111.242 85.6273 110.227 85.8812C109.211 86.2112 107.866 86.3636 106.089 86.3636C104.337 86.3636 102.966 86.2366 101.951 85.8812C100.935 85.5512 100.199 85.145 99.6406 84.7388C99.1075 84.2565 98.7521 83.7996 98.6252 83.3172C98.4982 82.8349 98.4221 82.4287 98.4221 82.0987C98.4221 80.9563 98.6252 80.0678 98.9552 79.3824C99.2852 78.6969 99.7675 78.24 100.377 77.8846C100.986 77.5546 101.672 77.3515 102.484 77.2753C103.296 77.1991 104.185 77.1484 105.124 77.1484H111.674C111.394 75.8029 110.785 74.7875 109.846 74.0259C108.907 73.2897 107.688 72.9343 106.063 72.9343C104.439 72.9343 103.144 73.3405 102.128 74.0767L100.91 72.5281C102.255 71.5634 103.956 71.0049 106.038 71.0049ZM111.724 79.0523H105.987C104.692 79.0523 103.753 79.0523 102.941 79.1285C102.205 79.2047 101.595 79.3316 101.189 79.5347C100.783 79.7378 100.504 80.017 100.377 80.4232C100.25 80.8294 100.174 81.3625 100.174 81.9717C100.174 82.3779 100.301 82.7841 100.656 83.0634C100.986 83.3426 101.392 83.5965 101.951 83.7995C102.484 84.0026 103.093 84.1296 103.779 84.2057C104.464 84.2819 105.124 84.3327 105.809 84.3327C106.495 84.3327 107.155 84.2565 107.84 84.2057C108.526 84.1296 109.135 84.0026 109.668 83.7995C110.201 83.5965 110.684 83.3934 110.963 83.0634C111.293 82.7841 111.445 82.3779 111.445 81.9717V79.0523H111.724Z" fill="black"/>
        <path d="M78.367 7.71739C73.239 2.564 66.0547 0 56.8649 0C56.7888 0 56.738 0 56.738 0C47.4721 0 40.237 2.64016 35.1598 7.76816C30.0826 12.8962 27.5186 20.0804 27.5186 29.2702C27.5186 38.46 30.1587 45.6443 35.2359 50.7723C37.5207 53.0824 40.2116 54.8595 43.3341 56.1288V50.2138C41.9633 49.8584 40.9732 48.6145 40.9732 47.0659C40.9732 45.2381 42.3948 43.8165 44.1465 43.8165C45.8981 43.8165 47.3197 45.2381 47.3197 47.0659C47.3197 48.5891 46.3805 49.8076 45.0096 50.1884V56.738C46.4566 57.2204 48.0052 57.6012 49.6045 57.8804V43.0041L46.7612 40.694V30.8188C45.4412 30.438 44.4511 29.2194 44.4511 27.6963C44.4511 25.8685 45.8727 24.523 47.6244 24.523C49.376 24.523 50.7976 25.9446 50.7976 27.7724C50.7976 29.2956 49.8584 30.4888 48.4875 30.8442V39.8816L51.3308 42.1156V58.1343C52.8539 58.312 54.4279 58.4135 56.0526 58.4389V32.0373C54.7325 31.6565 53.7424 30.438 53.7424 28.9148C53.7424 27.087 55.1641 25.6654 56.9157 25.6654C58.6673 25.6654 60.089 27.087 60.089 28.9148C60.089 30.438 59.1497 31.6565 57.7788 32.0373V58.4897C59.4543 58.4643 61.0536 58.3374 62.5768 58.1343V42.1664L65.4201 39.9324V30.8695C64.1 30.4888 63.1099 29.2702 63.1099 27.7471C63.1099 25.9193 64.4554 24.5738 66.2832 24.5738C68.0348 24.5738 69.4565 25.9954 69.4565 27.8232C69.4565 29.321 68.4918 30.5141 67.1463 30.8695V40.7194L64.3031 43.0295V57.8296C65.9024 57.525 67.4002 57.1442 68.8218 56.6365V50.2138C67.5017 49.833 66.5117 48.6145 66.5117 47.0913C66.5117 45.2635 67.9333 43.8419 69.6849 43.8419C71.4366 43.8419 72.8582 45.2635 72.8582 47.0913C72.8582 48.6145 71.9189 49.833 70.5481 50.2138V55.9511C73.4929 54.6818 76.0569 52.9555 78.2147 50.7723C83.2919 45.6443 85.8559 38.46 85.8559 29.1941C86.0082 20.0297 83.5204 12.8454 78.367 7.71739Z" fill="black"/>
        <path d="M69.8118 48.386C70.5268 48.386 71.1065 47.8064 71.1065 47.0913C71.1065 46.3763 70.5268 45.7966 69.8118 45.7966C69.0967 45.7966 68.5171 46.3763 68.5171 47.0913C68.5171 47.8064 69.0967 48.386 69.8118 48.386Z" fill="black"/>
        <path d="M58.261 28.9656C58.261 28.2802 57.6517 27.6709 56.9663 27.6709C56.2809 27.6709 55.6716 28.2802 55.6716 28.9656C55.6716 29.651 56.2809 30.2603 56.9663 30.2603C57.6517 30.2603 58.261 29.651 58.261 28.9656Z" fill="black"/>
        <path d="M44.1211 48.386C44.8361 48.386 45.4158 47.8064 45.4158 47.0913C45.4158 46.3763 44.8361 45.7966 44.1211 45.7966C43.4061 45.7966 42.8264 46.3763 42.8264 47.0913C42.8264 47.8064 43.4061 48.386 44.1211 48.386Z" fill="black"/>
        <path d="M47.6243 29.1179C48.3393 29.1179 48.919 28.5383 48.919 27.8233C48.919 27.1082 48.3393 26.5286 47.6243 26.5286C46.9092 26.5286 46.3296 27.1082 46.3296 27.8233C46.3296 28.5383 46.9092 29.1179 47.6243 29.1179Z" fill="black"/>
        <path d="M66.3594 29.1179C67.0744 29.1179 67.6541 28.5383 67.6541 27.8233C67.6541 27.1082 67.0744 26.5286 66.3594 26.5286C65.6444 26.5286 65.0647 27.1082 65.0647 27.8233C65.0647 28.5383 65.6444 29.1179 66.3594 29.1179Z" fill="black"/>
    </g>
</svg>
