<svg width="34" height="34" viewBox="0 0 34 34" fill="none" xmlns="http://www.w3.org/2000/svg">
    <path d="M16.9359 0C7.91462 0 0.591675 7.39613 0.591675 16.5282C0.591675 25.651 7.90549 33.0564 16.9359 33.0564C25.9572 33.0564 33.2801 25.6602 33.2801 16.5282C33.271 7.39613 25.9572 0 16.9359 0ZM23.2271 13.8966C23.2362 14.0259 23.2362 14.1551 23.2362 14.2936C23.2362 18.3287 20.1956 22.9825 14.6441 22.9825C12.9366 22.9825 11.357 22.4746 10.0147 21.6067C10.2521 21.6344 10.4895 21.6528 10.7361 21.6528C12.1513 21.6528 13.4479 21.1635 14.4888 20.3417C13.1649 20.314 12.0509 19.4368 11.6674 18.2179C11.85 18.2549 12.0418 18.2733 12.2335 18.2733C12.5074 18.2733 12.7722 18.2364 13.0279 18.1625C11.6491 17.8855 10.6082 16.6482 10.6082 15.1708C10.6082 15.1616 10.6082 15.1431 10.6082 15.1339C11.0191 15.3647 11.4848 15.5032 11.9779 15.5125C11.1652 14.9677 10.6356 14.0351 10.6356 12.9732C10.6356 12.41 10.7817 11.8929 11.0465 11.4405C12.5348 13.2872 14.7628 14.506 17.2646 14.6261C17.2098 14.4044 17.1824 14.1736 17.1824 13.9335C17.1824 12.2438 18.5338 10.8772 20.2048 10.8772C21.0722 10.8772 21.8574 11.2465 22.4053 11.8375C23.0901 11.699 23.7384 11.4497 24.3228 11.0988C24.0945 11.8098 23.6197 12.41 22.9988 12.7886C23.6106 12.7147 24.1949 12.5485 24.7337 12.3084C24.3319 12.9271 23.8206 13.4626 23.2271 13.8966Z" fill="black"/>
</svg>
