<svg width="121" height="69" viewBox="0 0 121 69" fill="none" xmlns="http://www.w3.org/2000/svg">
    <path d="M50.8158 26.3046L48.4474 25.4305C48.079 25.298 47.7632 24.8742 47.7632 24.5033C47.7632 24.1324 48.079 23.9205 48.4474 24.053L50.8158 24.9271C51.1842 25.0596 51.5 25.4834 51.5 25.8543C51.5 26.2517 51.1842 26.4371 50.8158 26.3046Z" fill="#383838"/>
    <path d="M47.7369 24.4768C47.7369 24.1325 48.0001 23.947 48.3158 24L48.2106 23.9735C47.8422 23.8411 47.5264 24.0265 47.5264 24.4238C47.5264 24.7947 47.8422 25.2185 48.2106 25.351L50.579 26.2252C50.6053 26.2252 50.6579 26.2517 50.6843 26.2517L48.4211 25.4305C48.0527 25.298 47.7369 24.8742 47.7369 24.4768Z" fill="#5D5D5D"/>
    <path d="M0 19.3907V43.0199C0 46.596 2.71053 50.1457 8.10526 52.8742C18.9211 58.3047 36.4474 58.3047 47.2368 52.8742C52.6316 50.1457 55.3421 46.596 55.3421 43.0199V19.3907H0Z" fill="#6065CD"/>
    <path d="M27.6842 33.9603C42.9738 33.9603 55.3684 27.7219 55.3684 20.0265C55.3684 12.3311 42.9738 6.09271 27.6842 6.09271C12.3946 6.09271 0 12.3311 0 20.0265C0 27.7219 12.3946 33.9603 27.6842 33.9603Z" fill="#888FE2"/>
    <path opacity="0.6" d="M37.8157 16.2649C36.4736 16.1854 35.1315 16.3179 33.7631 16.6622C34.1315 16.0795 34.1578 15.5232 33.8946 14.9669C33.6315 14.4106 33.0525 13.9073 32.1841 13.4834C30.7367 12.7682 29.0262 12.4768 26.9999 12.6622C25.5262 12.7947 23.9736 13.1655 22.3946 13.8013L19.842 12.5033L16.8946 13.9867L19.3683 15.2318L18.421 15.7086L15.9473 14.4636L12.9999 15.947L15.4736 17.192L11.9473 18.9669L29.921 28.0265L33.4473 26.2516L36.1052 27.5761L39.0525 26.0927L36.3946 24.7682L37.3683 24.2649L40.0262 25.5894L42.9736 24.1059L40.2894 22.7549C41.9736 21.7748 42.9736 20.8742 43.2894 20C43.6578 18.9669 43.0789 18.0397 41.4999 17.245C40.3946 16.6622 39.1578 16.3444 37.8157 16.2649ZM28.5788 15.841C29.2894 16.1854 29.5525 16.5828 29.3683 17.0331C29.1841 17.4834 28.6052 17.9602 27.5788 18.49L23.4473 20.5828L19.2104 18.4636L23.342 16.3708C24.3683 15.841 25.3157 15.5497 26.2104 15.4702C27.1052 15.3642 27.8946 15.4967 28.5788 15.841ZM37.7104 20.3708C37.5262 20.8212 36.8683 21.351 35.7631 21.8808L30.921 24.3179L26.4736 22.0927L31.3157 19.6556C33.5262 18.543 35.3683 18.3576 36.8683 19.1258C37.6315 19.4967 37.921 19.9205 37.7104 20.3708Z" fill="white"/>
    <path opacity="0.6" d="M45.6053 29.1921C35.8158 34.1192 19.8685 34.1192 10.079 29.1921C0.263213 24.2384 0.263213 16.2119 10.0527 11.2848C19.8422 6.35763 35.7895 6.35763 45.579 11.2848C55.3948 16.2119 55.3948 24.2384 45.6053 29.1921ZM11.079 11.7881C1.84216 16.4503 1.84216 24 11.079 28.6623C20.3158 33.3245 35.3685 33.3245 44.6053 28.6623C53.8422 24 53.8422 16.4503 44.6053 11.7881C35.3685 7.12584 20.3158 7.15233 11.079 11.7881Z" fill="white"/>
    <path opacity="0.2" d="M47.4211 48.6887C36.6053 54.1457 19 54.1457 8.18421 48.6887C5.55263 47.3642 3.52632 45.8278 2.13158 44.106C1.07895 42.808 0.210526 41.1126 0 39.7351V41.1656C0.894737 44.1854 3.65789 46.9404 7.97368 49.1126C13.4474 51.8676 20.6316 53.245 27.7895 53.245C34.9737 53.245 42.1579 51.8676 47.6053 49.1126C51.5789 47.0993 54.2368 44.6093 55.3421 41.8543V40.0795C55.1053 41.457 54.4737 42.7815 53.4474 44.0795C52.079 45.8013 50.0526 47.3642 47.4211 48.6887Z" fill="white"/>
    <path opacity="0.2" d="M47.4211 44.0794C36.6053 49.5364 19 49.5364 8.18421 44.0794C5.55263 42.7549 3.52632 41.2185 2.13158 39.4967C1.07895 38.1986 0.210526 36.5033 0 35.1258V36.5563C0.894737 39.5761 3.65789 42.3311 7.97368 44.5033C13.4474 47.2582 20.6316 48.6357 27.7895 48.6357C34.9737 48.6357 42.1579 47.2582 47.6053 44.5033C51.5789 42.49 54.2368 40 55.3421 37.245V35.4967C55.1053 36.8741 54.4737 38.1986 53.4474 39.4967C52.079 41.2185 50.0526 42.7549 47.4211 44.0794Z" fill="white"/>
    <path opacity="0.2" d="M47.4211 38.7815C36.6053 44.2384 19 44.2384 8.18421 38.7815C5.55263 37.457 3.52632 35.9205 2.13158 34.1987C1.07895 32.9007 0.210526 31.2053 0 29.8278V31.2583C0.894737 34.2781 3.65789 37.0331 7.97368 39.2053C13.4474 41.9603 20.6316 43.3377 27.7895 43.3377C34.9737 43.3377 42.1579 41.9603 47.6053 39.2053C51.5789 37.1921 54.2368 34.702 55.3421 31.947V30.1987C55.1053 31.5762 54.4737 32.9007 53.4474 34.1987C52.079 35.9205 50.0526 37.457 47.4211 38.7815Z" fill="white"/>
    <path opacity="0.2" d="M47.4211 33.298C36.6053 38.755 19 38.755 8.18421 33.298C5.55263 31.9735 3.52632 30.4371 2.13158 28.7152C1.07895 27.4172 0.210526 25.7218 0 24.3444V25.7748C0.894737 28.7947 3.65789 31.5497 7.97368 33.7218C13.4474 36.4768 20.6316 37.8543 27.7895 37.8543C34.9737 37.8543 42.1579 36.4768 47.6053 33.7218C51.5789 31.7086 54.2368 29.2185 55.3421 26.4636V24.6887C55.1053 26.0662 54.4737 27.3907 53.4474 28.6887C52.079 30.4371 50.0526 31.9735 47.4211 33.298Z" fill="white"/>
    <path d="M67.4474 55.8675C66.579 54.5695 66.2632 53.1656 66.5264 51.7616C66.7369 50.6755 67.2632 49.8808 67.5527 49.404L67.579 49.351C67.7895 49.0066 68.4474 48 71.2895 46.0132C71.8948 45.5894 72.579 45.3775 73.2895 45.3775C74.1053 45.3775 74.9211 45.6689 75.5527 46.1987L83.3948 52.8212C85.5527 49.3245 89.658 42.8609 94.1317 36.3973C94.4211 35.9735 94.7369 35.5497 95.0264 35.1258V14.0662H39.658V51.2053C39.658 54.7815 42.3685 58.3311 47.7632 61.0596C54.9738 64.6887 65.1317 65.8808 74.3422 64.6887C72.3422 62.2517 68.8948 57.9867 67.4474 55.8675Z" fill="#6065CD"/>
    <path d="M67.3422 27.8675C82.6317 27.8675 95.0264 21.6292 95.0264 13.9338C95.0264 6.23836 82.6317 0 67.3422 0C52.0526 0 39.658 6.23836 39.658 13.9338C39.658 21.6292 52.0526 27.8675 67.3422 27.8675Z" fill="#888FE2"/>
    <path opacity="0.6" d="M77.5002 10.1722C76.1581 10.0927 74.816 10.2252 73.4476 10.5695C73.816 9.98674 73.8423 9.43045 73.5791 8.87416C73.316 8.31787 72.737 7.81456 71.8686 7.39072C70.4213 6.67548 68.7107 6.38409 66.6844 6.56952C65.2107 6.70197 63.6581 7.07283 62.0791 7.7086L59.5265 6.41058L56.5791 7.89403L59.0528 9.13906L58.0791 9.64237L55.6055 8.39734L52.6581 9.88078L55.1318 11.1258L51.6055 12.9006L69.5791 21.9602L73.1055 20.1854L75.7633 21.5099L78.7107 20.0265L76.0528 18.702L77.0265 18.1987L79.6844 19.5232L82.6318 18.0397L79.9476 16.6887C81.6318 15.7086 82.6318 14.8079 82.9476 13.9338C83.316 12.9006 82.737 11.9735 81.1581 11.1788C80.0528 10.5695 78.8423 10.2516 77.5002 10.1722ZM68.2634 9.74833C68.9739 10.0927 69.237 10.4901 69.0528 10.9404C68.8686 11.3907 68.2897 11.8675 67.2634 12.3973L63.1318 14.4901L58.8949 12.3708L63.0265 10.2781C64.0528 9.74833 65.0002 9.45694 65.8949 9.37747C66.7634 9.27151 67.5528 9.40396 68.2634 9.74833ZM77.3949 14.2781C77.2107 14.7285 76.5528 15.2583 75.4476 15.7881L70.6055 18.2252L66.1581 16L71.0002 13.5629C73.2107 12.4503 75.0528 12.2649 76.5528 13.0331C77.316 13.404 77.5791 13.8278 77.3949 14.2781Z" fill="white"/>
    <path opacity="0.6" d="M85.2635 23.0729C75.474 28 59.5266 28 49.7371 23.0729C39.9477 18.1457 39.9477 10.1192 49.7371 5.19207C59.5266 0.264916 75.474 0.264916 85.2635 5.19207C95.0529 10.1192 95.0529 18.1457 85.2635 23.0729ZM50.7371 5.69538C41.5003 10.3576 41.5003 17.9073 50.7371 22.5695C59.974 27.2318 75.0266 27.2318 84.2635 22.5695C93.5003 17.9073 93.5003 10.3576 84.2635 5.69538C75.0266 1.03313 59.974 1.05962 50.7371 5.69538Z" fill="white"/>
    <path opacity="0.2" d="M87.079 56.8742C76.2632 62.3311 58.658 62.3311 47.8422 56.8742C45.2106 55.5497 43.1843 54.0132 41.7895 52.2914C40.7369 50.9934 39.8685 49.298 39.658 47.9205V49.351C40.5527 52.3709 43.3159 55.1258 47.6316 57.298C53.1053 60.053 60.2895 61.4305 67.4474 61.4305C74.6317 61.4305 81.8159 60.053 87.2632 57.298C91.2369 55.2848 93.8948 52.7947 95.0001 50.0397V48.2649C94.7632 49.6424 94.1317 50.9669 93.1053 52.2649C91.7632 54.0132 89.7106 55.5497 87.079 56.8742Z" fill="white"/>
    <path opacity="0.2" d="M87.079 52.2914C76.2632 57.7484 58.658 57.7484 47.8422 52.2914C45.2106 50.9669 43.1843 49.4305 41.7895 47.7086C40.7369 46.4106 39.8685 44.7153 39.658 43.3378V44.7682C40.5527 47.7881 43.3159 50.5431 47.6316 52.7153C53.1053 55.4702 60.2895 56.8477 67.4474 56.8477C74.6317 56.8477 81.8159 55.4702 87.2632 52.7153C91.2369 50.702 93.8948 48.2119 95.0001 45.457V43.7086C94.7632 45.0861 94.1317 46.4106 93.1053 47.7086C91.7632 49.4305 89.7106 50.9669 87.079 52.2914Z" fill="white"/>
    <path opacity="0.2" d="M87.079 46.9934C76.2632 52.4503 58.658 52.4503 47.8422 46.9934C45.2106 45.6689 43.1843 44.1324 41.7895 42.4106C40.7369 41.1126 39.8685 39.4172 39.658 38.0397V39.4702C40.5527 42.4901 43.3159 45.245 47.6316 47.4172C53.1053 50.1722 60.2895 51.5497 67.4474 51.5497C74.6317 51.5497 81.8159 50.1722 87.2632 47.4172C91.2369 45.404 93.8948 42.9139 95.0001 40.1589V38.4106C94.7632 39.7881 94.1317 41.1126 93.1053 42.4106C91.7632 44.1324 89.7106 45.6689 87.079 46.9934Z" fill="white"/>
    <path opacity="0.2" d="M87.079 41.5099C76.2632 46.9669 58.658 46.9669 47.8422 41.5099C45.2106 40.1854 43.1843 38.649 41.7895 36.9271C40.7369 35.6291 39.8685 33.9338 39.658 32.5563V33.9867C40.5527 37.0066 43.3159 39.7616 47.6316 41.9338C53.1053 44.6887 60.2895 46.0662 67.4474 46.0662C74.6317 46.0662 81.8159 44.6887 87.2632 41.9338C91.2369 39.9205 93.8948 37.4304 95.0001 34.6755V32.9006C94.7632 34.2781 94.1317 35.6026 93.1053 36.9006C91.7632 38.649 89.7106 40.1854 87.079 41.5099Z" fill="white"/>
    <path opacity="0.2" d="M87.079 37.3245C76.2632 42.7814 58.658 42.7814 47.8422 37.3245C45.2106 36 43.1843 34.4636 41.7895 32.7417C40.7369 31.4437 39.8685 29.7483 39.658 28.3708V29.8013C40.5527 32.8212 43.3159 35.5761 47.6316 37.7483C53.1053 40.5033 60.2895 41.8808 67.4474 41.8808C74.6317 41.8808 81.8159 40.5033 87.2632 37.7483C91.2369 35.7351 93.8948 33.245 95.0001 30.4901V28.7152C94.7632 30.0927 94.1317 31.4172 93.1053 32.7152C91.7632 34.4636 89.7106 36 87.079 37.3245Z" fill="white"/>
    <path opacity="0.2" d="M87.079 32.7417C76.2632 38.1987 58.658 38.1987 47.8422 32.7417C45.2106 31.4172 43.1843 29.8808 41.7895 28.1589C40.7369 26.8609 39.8685 25.1656 39.658 23.7881V25.2185C40.5527 28.2384 43.3159 30.9934 47.6316 33.1656C53.1053 35.9205 60.2895 37.298 67.4474 37.298C74.6317 37.298 81.8159 35.9205 87.2632 33.1656C91.2369 31.1523 93.8948 28.6623 95.0001 25.9073V24.1325C94.7632 25.5099 94.1317 26.8344 93.1053 28.1325C91.7632 29.8808 89.7106 31.4172 87.079 32.7417Z" fill="white"/>
    <path opacity="0.2" d="M87.079 28.2384C76.2632 33.6954 58.658 33.6954 47.8422 28.2384C45.2106 26.9139 43.1843 25.3775 41.7895 23.6557C40.7369 22.3576 39.8685 20.6623 39.658 19.2848V20.7153C40.5527 23.7351 43.3159 26.4901 47.6316 28.6623C53.1053 31.4172 60.2895 32.7947 67.4474 32.7947C74.6317 32.7947 81.8159 31.4172 87.2632 28.6623C91.2369 26.649 93.8948 24.159 95.0001 21.404V19.6292C94.7632 21.0066 94.1317 22.3311 93.1053 23.6292C91.7632 25.3775 89.7106 26.9139 87.079 28.2384Z" fill="white"/>
    <path d="M73.8686 48.2119L82.9738 55.9205C83.5265 56.3974 84.3686 56.2649 84.737 55.6292C88.2107 49.9868 103.316 25.7748 110.816 20.4503C112.948 18.9404 123.053 17.5894 120.579 20.1589C118.816 21.9868 107.342 31.4172 90.158 64.3179C88.6054 67.2583 86.2896 68.053 84.1843 68.0265C81.7107 68 79.3686 66.7815 77.8422 64.8212C77.8422 64.8212 71.6054 57.3245 69.6054 54.3841C68.4738 52.7417 69.3159 51.5232 69.7896 50.808C70.3159 50.0133 71.9212 48.7947 72.7896 48.1854C73.1317 47.947 73.5791 47.947 73.8686 48.2119Z" fill="url(#paint0_linear)"/>
    <defs>
        <linearGradient id="paint0_linear" x1="125.956" y1="23.3837" x2="54.5728" y2="76.1806" gradientUnits="userSpaceOnUse">
            <stop stop-color="#BA00FF"/>
            <stop offset="0.2448" stop-color="#B701FF"/>
            <stop offset="0.4234" stop-color="#AE06FE"/>
            <stop offset="0.5809" stop-color="#9E0DFC"/>
            <stop offset="0.7263" stop-color="#8718FA"/>
            <stop offset="0.8631" stop-color="#6A26F7"/>
            <stop offset="0.9922" stop-color="#4737F3"/>
            <stop offset="1" stop-color="#4538F3"/>
        </linearGradient>
    </defs>
</svg>
