<svg width="33" height="34" viewBox="0 0 33 34" fill="none" xmlns="http://www.w3.org/2000/svg">
    <path d="M18.2355 14.4508V14.4138C18.2262 14.4231 18.2169 14.4415 18.2169 14.4508H18.2355Z" fill="black"/>
    <path d="M16.5185 0.2771C7.48813 0.2771 0.174316 7.67323 0.174316 16.8053C0.174316 25.9373 7.48813 33.3335 16.5185 33.3335C25.549 33.3335 32.8628 25.9373 32.8628 16.8053C32.8628 7.67323 25.549 0.2771 16.5185 0.2771ZM13.0032 23.2688H9.63388V12.9549H13.0032V23.2688ZM11.314 11.5513H11.2866C10.1543 11.5513 9.42387 10.7573 9.42387 9.76926C9.42387 8.75356 10.1817 7.98717 11.3322 7.98717C12.4827 7.98717 13.1949 8.75356 13.2132 9.76926C13.2223 10.7573 12.4918 11.5513 11.314 11.5513ZM25.1563 23.2688H21.787V17.7563C21.787 16.3713 21.3031 15.4295 20.0796 15.4295C19.1482 15.4295 18.5912 16.0666 18.3538 16.6852C18.2625 16.9068 18.2443 17.2116 18.2443 17.5255V23.2688H14.875C14.875 23.2688 14.9206 13.9244 14.875 12.9641H18.2443V14.423C18.6917 13.7212 19.4952 12.724 21.2848 12.724C23.5036 12.724 25.1655 14.2014 25.1655 17.3593V23.2688H25.1563Z" fill="black"/>
</svg>
