<svg width="54" height="80" viewBox="0 0 54 80" fill="none" xmlns="http://www.w3.org/2000/svg">
    <path d="M33.3912 59.6502C33.3912 57.1255 34.2373 54.8137 35.6273 52.9582H11.5434C10.5764 52.9582 9.76049 52.1673 9.76049 51.1635C9.76049 50.1597 10.5462 49.3688 11.5434 49.3688H40.2809C41.5501 48.8517 42.9401 48.5779 44.3906 48.5779C48.5003 48.5779 52.0963 50.8593 53.9698 54.2053V5.53612C53.9698 2.46388 51.4919 0 48.4701 0H12.873C10.9994 0 9.24678 0.790874 8.00783 2.19011L1.69222 9.18631C0.604365 10.403 0 11.9848 0 13.6274V63.1179C0 66.1901 2.4779 68.654 5.49972 68.654H38.0146C35.2345 66.6768 33.3912 63.3612 33.3912 59.6502ZM11.5434 13.597H44.8439C45.8109 13.597 46.6268 14.3878 46.6268 15.3916C46.6268 16.365 45.8411 17.1863 44.8439 17.1863H11.5434C10.5764 17.1863 9.76049 16.3954 9.76049 15.3916C9.76049 14.3878 10.5764 13.597 11.5434 13.597ZM11.5434 20.7452H44.8439C45.8109 20.7452 46.6268 21.5361 46.6268 22.5399C46.6268 23.5133 45.8411 24.3346 44.8439 24.3346H11.5434C10.5764 24.3346 9.76049 23.5437 9.76049 22.5399C9.76049 21.5361 10.5764 20.7452 11.5434 20.7452ZM11.5434 27.8935H44.8439C45.8109 27.8935 46.6268 28.6844 46.6268 29.6882C46.6268 30.6616 45.8411 31.4829 44.8439 31.4829H11.5434C10.5764 31.4829 9.76049 30.692 9.76049 29.6882C9.76049 28.6844 10.5764 27.8935 11.5434 27.8935ZM11.5434 35.0418H44.8439C45.8109 35.0418 46.6268 35.8327 46.6268 36.8365C46.6268 37.8099 45.8411 38.6312 44.8439 38.6312H11.5434C10.5764 38.6312 9.76049 37.8403 9.76049 36.8365C9.76049 35.8631 10.5764 35.0418 11.5434 35.0418ZM11.5434 42.2205H44.8439C45.8109 42.2205 46.6268 43.0114 46.6268 44.0152C46.6268 45.019 45.8411 45.8099 44.8439 45.8099H11.5434C10.5764 45.8099 9.76049 45.019 9.76049 44.0152C9.76049 43.0114 10.5764 42.2205 11.5434 42.2205Z" fill="#6065CD"/>
    <path d="M53.3957 59.4677C53.3957 54.4487 49.3465 50.3726 44.3605 50.3726C39.3744 50.3726 35.3252 54.4487 35.3252 59.4677C35.3252 62.7528 37.0476 65.6426 39.6464 67.2243L37.924 80L44.8439 77.019L51.7639 80L49.9508 66.5855C52.0359 64.943 53.3957 62.3574 53.3957 59.4677Z" fill="url(#paint0_linear)"/>
    <defs>
        <linearGradient id="paint0_linear" x1="61.3736" y1="32.1367" x2="34.4401" y2="86.5414" gradientUnits="userSpaceOnUse">
            <stop stop-color="#BA00FF"/>
            <stop offset="0.2448" stop-color="#B701FF"/>
            <stop offset="0.4234" stop-color="#AE06FE"/>
            <stop offset="0.5809" stop-color="#9E0DFC"/>
            <stop offset="0.7263" stop-color="#8718FA"/>
            <stop offset="0.8631" stop-color="#6A26F7"/>
            <stop offset="0.9922" stop-color="#4737F3"/>
            <stop offset="1" stop-color="#4538F3"/>
        </linearGradient>
    </defs>
</svg>
