<svg width="173" height="34" viewBox="0 0 173 34" fill="none" xmlns="http://www.w3.org/2000/svg">
    <path d="M14.2314 2.77519C15.0941 2.34963 14.6359 0.548061 13.8609 0.275391C5.81479 1.44203 0.231032 4.87865 0 5.02765L1.26531 7.27718C1.31698 7.24407 6.77303 3.85711 14.2304 2.77519H14.2314Z" fill="url(#paint0_linear)"/>
    <path d="M9.09496 23.8838C7.93103 23.7796 6.93964 24.5304 7.03128 25.3728C11.5876 31.5536 18.6248 33.5782 18.9124 33.658L19.74 31.2245C19.6766 31.2079 13.1122 29.3333 9.09496 23.8838Z" fill="url(#paint1_linear)"/>
    <path d="M33.6945 3.13255L31.1492 3.08386C31.1561 3.16274 31.4475 11.6379 28.3223 17.8285C28.7531 18.4488 29.611 19.2931 30.6072 18.9581C34.062 12.1141 33.7267 3.48508 33.6935 3.13353L33.6945 3.13255Z" fill="url(#paint2_linear)"/>
    <path d="M14.2312 2.77516C19.5957 1.99708 24.691 3.18125 26.2761 3.80547C26.4067 5.35872 26.5315 9.36892 24.9318 13.4298C23.804 16.2928 22.3953 18.108 21.4079 19.1286C20.9072 18.8815 20.3495 18.7725 19.7926 18.8131C18.0769 18.9367 16.7833 20.4179 16.9091 22.1143C17.027 23.7192 18.3937 24.9754 20.0187 24.9754C20.0938 24.9754 20.1698 24.9725 20.2478 24.9676C21.9625 24.843 23.2571 23.3608 23.1304 21.6644C23.1159 21.4739 23.0839 21.2852 23.0348 21.1006C24.2446 19.9057 25.9671 17.7642 27.3133 14.3481C29.6061 8.52461 28.7648 2.97382 28.7278 2.74108L28.6254 2.09543L28.0337 1.80524C27.7919 1.68643 21.3806 -0.81727 13.8608 0.27536C11.7291 0.587544 9.62607 1.07116 7.57227 1.72149C8.00703 2.57456 8.12109 3.5883 8.46422 4.11709C10.3464 3.51241 12.2753 3.06358 14.2312 2.77516ZM20.0607 22.4464L20.0178 22.4483C19.8762 22.4483 19.7399 22.3949 19.636 22.2989C19.5321 22.2029 19.4683 22.0712 19.4572 21.9303C19.4473 21.7821 19.4967 21.636 19.5945 21.5241C19.6922 21.4121 19.8304 21.3435 19.9788 21.3333L20.0217 21.3314C20.3141 21.3314 20.5607 21.5583 20.5832 21.8485C20.5883 21.922 20.5789 21.9957 20.5555 22.0656C20.5321 22.1355 20.4951 22.2 20.4466 22.2556C20.3982 22.3111 20.3392 22.3565 20.2732 22.3893C20.2071 22.422 20.1352 22.4414 20.0616 22.4464H20.0607Z" fill="url(#paint3_linear)"/>
    <path d="M9.0949 23.8838C5.15566 18.5404 4.14672 13.1941 3.67004 11.3536C4.9256 10.3583 8.51098 7.97246 14.5012 7.50502C17.0182 7.31026 18.2904 7.35798 18.9113 7.43004C19.0553 8.18163 19.4707 8.85418 20.0785 9.3199C20.6863 9.78561 21.4442 10.012 22.2081 9.95614C23.9238 9.83246 25.2164 8.3503 25.0907 6.65488C24.9659 4.976 23.492 3.68179 21.7519 3.80157C21.3216 3.83227 20.9023 3.95179 20.5206 4.1526C20.1389 4.35341 19.803 4.63113 19.5342 4.96821C18.4717 4.79487 16.8223 4.62835 14.3014 4.98672C5.78929 6.1962 1.51862 9.8383 1.34315 10.0165L0.871338 10.4898L0.998064 11.1423C1.05265 11.4266 1.81301 18.294 7.03121 25.3727C8.20108 26.9465 9.58088 28.3531 11.1323 29.5533C11.6645 28.8824 11.8936 28.1316 12.5896 27.4431C11.3584 26.479 10.1409 25.3026 9.0949 23.8838ZM21.9391 6.3228L21.981 6.32085C22.2754 6.32085 22.522 6.54873 22.5425 6.83893C22.5524 6.98724 22.5031 7.13343 22.4054 7.24549C22.3076 7.35756 22.1694 7.42637 22.021 7.43686L21.9781 7.4388C21.8363 7.43874 21.6997 7.38527 21.5956 7.28906C21.4916 7.19285 21.4276 7.06098 21.4166 6.91976C21.4067 6.77139 21.4562 6.62517 21.5541 6.51323C21.6521 6.40129 21.7906 6.3328 21.9391 6.3228Z" fill="url(#paint4_linear)"/>
    <path d="M30.2122 12.379C29.793 14.2195 29.1886 16.1116 28.321 17.8295C25.4794 23.4601 21.7625 26.1508 20.5878 26.8782C19.2699 26.3728 15.6182 24.728 13.1402 21.2534C11.3368 18.7234 10.6505 16.88 10.3893 15.8263C10.6323 15.6687 10.8522 15.478 11.0424 15.2596C11.5873 14.6363 11.8534 13.8397 11.793 13.0178C11.6692 11.338 10.1709 10.0467 8.45523 10.1655C8.04737 10.1935 7.64904 10.3015 7.28304 10.4835C6.91705 10.6655 6.59058 10.9178 6.32232 11.226C6.054 11.5308 5.84937 11.8862 5.72047 12.2711C5.59157 12.6561 5.54099 13.0629 5.57172 13.4677C5.6692 14.7911 6.61477 15.877 7.85474 16.2168C8.16083 17.586 8.96798 19.7859 11.0521 22.7103C14.6044 27.6933 20.1043 29.4004 20.3373 29.4715L20.811 29.6147L21.2585 29.4043C21.4651 29.3069 26.695 26.7068 30.607 18.9591C31.5799 17.0309 32.2525 14.9625 32.7155 12.9769C32.1833 10.9066 30.9258 11.4685 30.2132 12.379H30.2122ZM8.25539 12.8776C8.30394 12.8218 8.36303 12.7762 8.42927 12.7432C8.49551 12.7103 8.5676 12.6908 8.64142 12.6857L8.68528 12.6838C8.75857 12.6812 8.83165 12.6931 8.90034 12.7188C8.96903 12.7444 9.03198 12.7833 9.08562 12.8333C9.13925 12.8833 9.18251 12.9433 9.21292 13.01C9.24333 13.0766 9.2603 13.1486 9.26286 13.2218C9.26542 13.295 9.25352 13.368 9.22784 13.4367C9.20216 13.5053 9.1632 13.5682 9.11319 13.6218C9.06318 13.6753 9.00309 13.7185 8.93636 13.7489C8.86963 13.7793 8.79756 13.7963 8.72428 13.7988L8.68041 13.8008C8.53887 13.8007 8.40255 13.7473 8.29866 13.6513C8.19476 13.5553 8.13093 13.4237 8.11989 13.2827C8.11441 13.2096 8.12357 13.1361 8.14684 13.0665C8.1701 12.997 8.207 12.9327 8.25539 12.8776Z" fill="url(#paint5_linear)"/>
    <path d="M53.2863 11.7168C52.9781 11.3369 52.5838 11.0358 52.136 10.8384C51.6632 10.6212 51.207 10.5131 50.7674 10.5131C50.5402 10.5131 50.3102 10.5326 50.0772 10.5716C49.8432 10.6115 49.6337 10.6884 49.4475 10.7985C49.2622 10.9088 49.1021 11.0568 48.9776 11.2328C48.8509 11.411 48.7875 11.6379 48.7875 11.9145C48.7875 12.1511 48.8372 12.3488 48.9367 12.5056C49.0371 12.6633 49.1843 12.8016 49.3773 12.9204C49.5703 13.0392 49.8003 13.1473 50.0665 13.2457C50.3336 13.345 50.6338 13.4463 50.9662 13.5524C51.4468 13.7102 51.9459 13.8835 52.4665 14.0744C52.9733 14.2589 53.4513 14.5146 53.8858 14.834C54.3128 15.1505 54.6657 15.542 54.9454 16.0084C55.2262 16.4759 55.3656 17.0572 55.3656 17.7545C55.3656 18.5569 55.2155 19.2512 54.9162 19.8365C54.6293 20.4062 54.2154 20.9026 53.7064 21.2875C53.1846 21.6761 52.5943 21.9635 51.9664 22.1347C51.3133 22.3198 50.6406 22.4123 49.9466 22.4123C48.9337 22.4123 47.954 22.237 47.0075 21.8884C46.0609 21.5397 45.2743 21.0441 44.6475 20.3984L46.8866 18.1489C47.2337 18.5705 47.6899 18.9221 48.2572 19.2055C48.8226 19.4879 49.387 19.6301 49.9466 19.6301C50.2 19.6301 50.4467 19.6038 50.6874 19.5512C50.911 19.5045 51.1241 19.4174 51.3162 19.2941C51.4965 19.1763 51.6398 19.0185 51.7461 18.8208C51.8533 18.6231 51.906 18.3865 51.906 18.1099C51.906 17.847 51.8397 17.623 51.7061 17.4399C51.5512 17.2365 51.3578 17.0654 51.1368 16.9365C50.8464 16.7655 50.5381 16.6268 50.2176 16.5226C49.8029 16.3818 49.3863 16.2468 48.9679 16.1175C48.5146 15.9724 48.071 15.802 47.6382 15.6043C47.2143 15.413 46.8229 15.1567 46.4782 14.8447C46.1324 14.5283 45.8536 14.1458 45.6583 13.7199C45.4507 13.2798 45.3484 12.7432 45.3484 12.1122C45.3484 11.336 45.5082 10.6709 45.828 10.1187C46.1392 9.57556 46.5699 9.11006 47.0874 8.75733C47.623 8.39538 48.2188 8.13157 48.847 7.97827C49.4938 7.81434 50.1585 7.73125 50.8259 7.73092C51.6262 7.73092 52.4431 7.87602 53.2765 8.16525C54.0855 8.44087 54.8302 8.87713 55.466 9.44777L53.2863 11.7168ZM56.8054 13.5709C57.3935 13.0176 58.0917 12.5943 58.8545 12.3283C59.6215 12.0541 60.43 11.9137 61.2447 11.9135C62.084 11.9135 62.7947 12.0157 63.3737 12.2193C63.9537 12.4238 64.4236 12.7393 64.7833 13.1668C65.144 13.5943 65.4062 14.1328 65.5729 14.7843C65.7396 15.4358 65.8234 16.209 65.8234 17.102V22.0559H62.8239V21.0109H62.7635C62.51 21.419 62.1269 21.7355 61.6132 21.9585C61.0862 22.1846 60.5178 22.2987 59.9443 22.2935C59.5446 22.2935 59.1313 22.2409 58.7053 22.1357C58.2881 22.0354 57.8921 21.862 57.5355 21.6235C57.1755 21.38 56.8775 21.0558 56.665 20.6769C56.4389 20.2816 56.3248 19.7956 56.3248 19.2162C56.3248 18.5053 56.5217 17.9337 56.9146 17.4993C57.3084 17.065 57.8143 16.73 58.4353 16.4934C59.1014 16.2456 59.7972 16.0862 60.5048 16.0191C61.2652 15.9412 62.0041 15.9023 62.7245 15.9023V15.7426C62.7245 15.2557 62.551 14.8973 62.2039 14.6665C61.8569 14.4367 61.4309 14.3218 60.924 14.3218C60.458 14.3218 60.0077 14.4201 59.5739 14.6178C59.1699 14.7967 58.7957 15.0365 58.4645 15.3287L56.8054 13.5709ZM62.8239 17.774H62.4038C62.0431 17.774 61.6804 17.7915 61.3139 17.8236C60.9814 17.8501 60.6529 17.9131 60.3342 18.0116C60.07 18.0905 59.8272 18.2288 59.6246 18.4157C59.4384 18.5929 59.3448 18.8276 59.3448 19.1169C59.34 19.2841 59.3855 19.449 59.4754 19.5901C59.5612 19.7216 59.6704 19.8268 59.8049 19.9057C59.9375 19.9845 60.0905 20.041 60.264 20.0741C60.4376 20.1063 60.6043 20.1228 60.7641 20.1228C61.4309 20.1228 61.9407 19.9427 62.2946 19.5804C62.6475 19.2191 62.8239 18.7293 62.8239 18.1099V17.774ZM73.9417 9.52665C73.6507 9.43446 73.3472 9.38782 73.0419 9.38837C72.7359 9.38837 72.4883 9.44096 72.3021 9.54613C72.1209 9.64639 71.9693 9.79248 71.8624 9.96974C71.7552 10.148 71.6821 10.3486 71.6421 10.5716C71.6031 10.7955 71.5817 11.0195 71.5817 11.2435V12.23H73.8023V14.6373H71.5817V22.0568H68.3034V14.6363H66.4834V12.231H68.3034V11.2825C68.3034 10.6777 68.3696 10.1022 68.5032 9.55587C68.6358 9.01053 68.8658 8.52946 69.1924 8.11558C69.519 7.70171 69.9586 7.37256 70.5123 7.1291C71.066 6.88564 71.7552 6.76392 72.5818 6.76392C72.8626 6.76392 73.1385 6.78047 73.4124 6.81261C73.6853 6.84669 73.9349 6.89538 74.162 6.9616L73.9417 9.52665ZM84.42 17.2617V17.6561C84.42 17.7876 84.4132 17.9122 84.4005 18.031H77.181C77.2073 18.3066 77.2912 18.5569 77.4306 18.7809C77.5709 19.0049 77.7513 19.1987 77.9706 19.3632C78.19 19.5278 78.4366 19.6554 78.7105 19.7479C78.9835 19.8394 79.2662 19.8852 79.5606 19.8852C80.0801 19.8852 80.5207 19.7898 80.8805 19.5989C81.2402 19.409 81.5326 19.1626 81.7597 18.8588L84.0389 20.2806C83.5715 20.952 82.933 21.4865 82.1896 21.829C81.4225 22.1902 80.5324 22.3714 79.5196 22.3714C78.7988 22.3752 78.0825 22.2583 77.4004 22.0257C76.7564 21.8088 76.1618 21.4669 75.6506 21.0197C75.1435 20.5692 74.7409 20.0135 74.471 19.3915C74.1844 18.7478 74.0411 18.0106 74.0411 17.1809C74.0411 16.3794 74.1805 15.652 74.4603 15.0015C74.7223 14.3765 75.1106 13.8123 75.6008 13.344C76.0916 12.8832 76.6692 12.5244 77.2999 12.2884C77.9772 12.034 78.6957 11.9069 79.4192 11.9135C80.1523 11.9135 80.8259 12.0352 81.439 12.2787C82.0522 12.5221 82.5796 12.8737 83.0182 13.3343C83.4724 13.8173 83.8231 14.388 84.0486 15.0112C84.2962 15.6695 84.419 16.4194 84.419 17.2608L84.42 17.2617ZM81.401 16.0172C81.401 15.505 81.2372 15.0638 80.9107 14.6957C80.5841 14.3276 80.0928 14.1435 79.4406 14.1435C79.1209 14.1435 78.8265 14.1922 78.5604 14.2916C78.2943 14.389 78.0603 14.5253 77.8605 14.6957C77.6632 14.8635 77.5004 15.0679 77.3809 15.2975C77.2625 15.5204 77.1939 15.7662 77.18 16.0182H81.401V16.0172ZM100.776 21.8095C99.8563 22.2243 98.7966 22.4318 97.5976 22.4318C96.5029 22.4318 95.4939 22.2535 94.5679 21.8981C93.6714 21.5616 92.8518 21.0483 92.1581 20.3887C91.4707 19.7265 90.9263 18.9308 90.5584 18.0505C90.1714 17.1429 89.9784 16.1428 89.9784 15.0512C89.9784 13.9332 90.1753 12.9204 90.5682 12.0118C90.9414 11.1326 91.4969 10.3424 92.1981 9.69318C92.9054 9.04631 93.7345 8.54645 94.6371 8.2227C95.6055 7.8749 96.628 7.70147 97.6571 7.71047C98.663 7.71171 99.661 7.88869 100.606 8.23341C101.571 8.58204 102.356 9.09233 102.955 9.76232L100.635 12.0508C100.315 11.6167 99.8782 11.2819 99.3757 11.0848C98.8683 10.877 98.3253 10.7699 97.777 10.7692C97.1775 10.7692 96.6267 10.8773 96.1266 11.0945C95.6275 11.3117 95.1976 11.6106 94.8369 11.9924C94.4714 12.3836 94.1866 12.8429 93.9986 13.344C93.7933 13.8895 93.6911 14.4684 93.6974 15.0512C93.6974 15.6822 93.7978 16.2606 93.9976 16.7875C94.1974 17.3133 94.4743 17.7642 94.8272 18.1391C95.1844 18.5174 95.6172 18.8167 96.0974 19.0175C96.5906 19.2279 97.1307 19.333 97.7165 19.333C98.3969 19.333 98.9896 19.2016 99.4965 18.9377C100.003 18.6747 100.409 18.3339 100.715 17.9122L103.096 20.1228C102.452 20.845 101.661 21.4203 100.776 21.8095ZM110.434 22.0559V20.6945H110.395C110.274 20.9184 110.117 21.1288 109.924 21.3255C109.731 21.5232 109.505 21.6946 109.244 21.8387C108.984 21.9838 108.698 22.1016 108.384 22.1941C108.063 22.2872 107.73 22.3337 107.395 22.3324C106.728 22.3324 106.165 22.2136 105.705 21.977C105.268 21.7591 104.885 21.4456 104.585 21.0596C104.295 20.6775 104.084 20.2411 103.965 19.7761C103.839 19.2962 103.775 18.8019 103.776 18.3057V12.229H107.075V17.5568C107.075 17.8334 107.094 18.0963 107.135 18.3456C107.174 18.5959 107.252 18.8198 107.365 19.0175C107.477 19.2142 107.628 19.3691 107.815 19.4811C108.001 19.5921 108.247 19.6486 108.555 19.6486C109.127 19.6486 109.564 19.4382 109.864 19.0175C110.164 18.5959 110.313 18.1021 110.313 17.5373V12.23H113.592V22.0559H110.434ZM122.111 14.8934C121.971 14.8552 121.827 14.8288 121.682 14.8145C121.546 14.8015 121.41 14.7951 121.273 14.795C120.832 14.795 120.462 14.8729 120.162 15.0307C119.885 15.1697 119.64 15.3639 119.442 15.6014C119.263 15.8253 119.132 16.0668 119.052 16.3298C118.972 16.5927 118.932 16.8216 118.932 17.0183V22.0559H115.653V12.2407H118.812V13.6615H118.853C119.106 13.158 119.466 12.7481 119.933 12.4306C120.399 12.1122 120.939 11.9534 121.552 11.9534C121.685 11.9534 121.815 11.9602 121.942 11.9729C122.068 11.9856 122.172 12.005 122.252 12.0313L122.111 14.8934ZM129.53 14.8934C129.389 14.8552 129.246 14.8288 129.101 14.8145C128.964 14.8015 128.827 14.795 128.69 14.795C128.25 14.795 127.881 14.8729 127.58 15.0307C127.304 15.1698 127.059 15.3641 126.861 15.6014C126.68 15.8253 126.551 16.0668 126.471 16.3298C126.39 16.5927 126.35 16.8216 126.35 17.0183V22.0559H123.071V12.2407H126.23V13.6615H126.27C126.523 13.158 126.883 12.7481 127.35 12.4306C127.816 12.1122 128.356 11.9534 128.969 11.9534C129.102 11.9534 129.232 11.9602 129.359 11.9729C129.486 11.9856 129.589 12.005 129.669 12.0313L129.53 14.8934ZM140.008 17.2617V17.6561C140.008 17.7876 140.001 17.9122 139.989 18.031H132.77C132.795 18.3066 132.879 18.5569 133.02 18.7809C133.16 19.0049 133.339 19.1987 133.56 19.3632C133.779 19.5278 134.026 19.6554 134.299 19.7479C134.571 19.8394 134.854 19.8852 135.149 19.8852C135.669 19.8852 136.109 19.7898 136.468 19.5989C136.829 19.409 137.122 19.1626 137.348 18.8588L139.627 20.2806C139.16 20.952 138.521 21.4866 137.778 21.829C137.01 22.1902 136.12 22.3714 135.108 22.3714C134.387 22.3752 133.67 22.2583 132.988 22.0257C132.344 21.8087 131.75 21.4668 131.239 21.0197C130.731 20.5692 130.329 20.0135 130.059 19.3915C129.772 18.7478 129.629 18.0106 129.629 17.1809C129.629 16.3794 129.769 15.652 130.048 15.0015C130.31 14.3765 130.699 13.8123 131.189 13.344C131.68 12.8832 132.257 12.5243 132.888 12.2884C133.565 12.034 134.284 11.9069 135.007 11.9135C135.74 11.9135 136.414 12.0352 137.027 12.2787C137.639 12.5221 138.168 12.8737 138.606 13.3343C139.06 13.8173 139.411 14.388 139.637 15.0112C139.884 15.6695 140.007 16.4194 140.007 17.2608L140.008 17.2617ZM136.989 16.0172C136.989 15.505 136.824 15.0638 136.499 14.6957C136.172 14.3276 135.682 14.1435 135.029 14.1435C134.709 14.1435 134.415 14.1922 134.149 14.2916C133.882 14.389 133.649 14.5253 133.448 14.6957C133.251 14.8637 133.089 15.068 132.969 15.2975C132.851 15.5204 132.783 15.7663 132.769 16.0182H136.989V16.0172ZM148.086 22.0559V16.6881C148.087 16.4236 148.064 16.1596 148.016 15.8994C147.976 15.6679 147.898 15.4446 147.785 15.2381C147.68 15.0487 147.524 14.8917 147.336 14.7843C147.143 14.6723 146.9 14.6168 146.606 14.6168C146.313 14.6168 146.056 14.6723 145.836 14.7843C145.619 14.8936 145.431 15.0524 145.287 15.2479C145.139 15.4455 145.03 15.6724 144.957 15.9295C144.883 16.1892 144.845 16.458 144.846 16.7281V22.0559H141.548V12.23H144.728V13.5904H144.767C144.887 13.3801 145.044 13.1717 145.238 12.9681C145.431 12.7636 145.657 12.5903 145.917 12.4452C146.187 12.2964 146.472 12.1772 146.767 12.0898C147.073 11.9982 147.401 11.9524 147.747 11.9524C148.414 11.9524 148.98 12.0703 149.446 12.3079C149.913 12.5445 150.289 12.8503 150.577 13.2252C150.863 13.5992 151.069 14.0306 151.196 14.5175C151.323 15.0044 151.386 15.4913 151.386 15.9782V22.0549H148.087L148.086 22.0559ZM160.243 15.4066C160.04 15.1573 159.779 14.9609 159.483 14.834C159.176 14.6923 158.842 14.6183 158.504 14.6168C158.157 14.6168 157.844 14.686 157.564 14.8242C157.29 14.9585 157.045 15.1466 156.845 15.3774C156.644 15.6072 156.487 15.874 156.374 16.1759C156.26 16.4854 156.202 16.813 156.205 17.1429C156.205 17.4847 156.257 17.8071 156.364 18.1099C156.471 18.4118 156.628 18.6786 156.834 18.9085C157.041 19.1393 157.287 19.3204 157.574 19.4509C157.861 19.5833 158.183 19.6486 158.543 19.6486C158.877 19.6486 159.206 19.5862 159.534 19.4616C159.86 19.3369 160.123 19.1558 160.323 18.9182L162.143 21.1093C161.729 21.5037 161.197 21.8134 160.544 22.0364C159.874 22.2628 159.171 22.3763 158.464 22.3724C157.677 22.3724 156.944 22.2535 156.261 22.0169C155.605 21.7953 155.001 21.4431 154.485 20.9817C153.977 20.5218 153.573 19.96 153.298 19.333C153.01 18.6894 152.865 17.959 152.865 17.1429C152.865 16.3405 153.009 15.6179 153.298 14.9723C153.573 14.346 153.978 13.7848 154.485 13.3255C155.002 12.8631 155.606 12.5077 156.261 12.2796C157.304 11.9129 158.424 11.821 159.513 12.0128C159.867 12.079 160.206 12.1677 160.534 12.2796C160.86 12.3916 161.16 12.5289 161.434 12.6935C161.706 12.8591 161.943 13.0392 162.143 13.2359L160.243 15.4066Z" fill="#29469C"/>
    <path d="M168.541 23.5361C168.36 24.0125 168.136 24.4718 167.872 24.9082C167.637 25.2957 167.34 25.6421 166.992 25.9336C166.652 26.216 166.252 26.4303 165.793 26.5754C165.333 26.7205 164.789 26.7916 164.163 26.7916C163.856 26.7916 163.539 26.7721 163.213 26.7331C162.926 26.7011 162.642 26.6484 162.363 26.5754L162.723 23.8516C163.066 23.9616 163.423 24.0216 163.783 24.0298C164.289 24.0298 164.655 23.9139 164.883 23.6841C165.109 23.4543 165.302 23.129 165.462 22.7073L165.782 21.8991L161.623 12.23H165.262L167.481 18.5442H167.541L169.52 12.23H173L168.542 23.5361H168.541Z" fill="#29469C"/>
    <defs>
        <linearGradient id="paint0_linear" x1="0.22708" y1="5.75926" x2="7.5442" y2="-3.94797" gradientUnits="userSpaceOnUse">
            <stop stop-color="#BA00FF" stop-opacity="0"/>
            <stop offset="0.2903" stop-color="#BA00FF"/>
        </linearGradient>
        <linearGradient id="paint1_linear" x1="19.698" y1="32.3179" x2="9.45904" y2="22.4855" gradientUnits="userSpaceOnUse">
            <stop offset="0.0591" stop-color="#7322F8" stop-opacity="0"/>
            <stop offset="0.1538" stop-color="#5E2CF6" stop-opacity="0.289"/>
            <stop offset="0.3015" stop-color="#423AF3" stop-opacity="0.739"/>
            <stop offset="0.3871" stop-color="#373FF2"/>
            <stop offset="0.5968" stop-color="#1B4DEF"/>
        </linearGradient>
        <linearGradient id="paint2_linear" x1="31.0197" y1="3.08386" x2="31.0197" y2="19.0343" gradientUnits="userSpaceOnUse">
            <stop stop-color="#7322F8" stop-opacity="0"/>
            <stop offset="0.3148" stop-color="#5630F5" stop-opacity="0.604"/>
            <stop offset="0.5215" stop-color="#403BF3"/>
            <stop offset="0.7419" stop-color="#1B4DEF"/>
        </linearGradient>
        <linearGradient id="paint3_linear" x1="9.09696" y1="0.11139" x2="30.452" y2="14.4251" gradientUnits="userSpaceOnUse">
            <stop stop-color="#BA00FF"/>
            <stop offset="1" stop-color="#1B4DEF"/>
        </linearGradient>
        <linearGradient id="paint4_linear" x1="5.29315" y1="5.81806" x2="21.2212" y2="18.7595" gradientUnits="userSpaceOnUse">
            <stop stop-color="#BA00FF"/>
            <stop offset="1" stop-color="#1B4DEF"/>
        </linearGradient>
        <linearGradient id="paint5_linear" x1="10.2416" y1="7.0812" x2="21.4566" y2="27.1417" gradientUnits="userSpaceOnUse">
            <stop stop-color="#BA00FF"/>
            <stop offset="1" stop-color="#1B4DEF"/>
        </linearGradient>
    </defs>
</svg>
