<svg width="111" height="65" viewBox="0 0 111 65" fill="none" xmlns="http://www.w3.org/2000/svg">
    <path d="M31.2905 29.2354C31.2905 27.8946 30.8679 26.8599 30.0226 26.1166C29.1773 25.3733 27.9094 25.009 26.2479 25.009H21.73V33.4327H26.2479C27.9239 33.4327 29.1773 33.0684 30.0226 32.3397C30.8679 31.611 31.2905 30.5908 31.2905 29.2354Z" fill="#6065CD"/>
    <path d="M71.194 39.4664L78.8745 45.9081C79.3408 46.3016 80.055 46.185 80.3756 45.6749C83.2904 40.9529 96.0426 20.6659 102.353 16.2063C104.146 14.9383 112.672 13.8016 110.587 15.9439C109.116 17.4742 99.4384 25.3879 84.9372 52.9327C83.6402 55.4103 81.6727 56.0661 79.8947 56.0516C77.796 56.0224 75.8431 55.0168 74.546 53.37C74.546 53.37 69.2848 47.0886 67.5942 44.6256C66.6469 43.241 67.3464 42.2209 67.7399 41.6233C68.1772 40.9529 69.5471 39.9473 70.2758 39.4372C70.5673 39.2478 70.9316 39.2623 71.194 39.4664Z" fill="url(#paint0_linear)"/>
    <path d="M65.3643 46.5056C65.3498 46.5202 65.3206 46.5202 65.3061 46.5348C63.1928 47.4675 60.8318 47.9339 58.1939 47.9339C55.1771 47.9339 52.4809 47.2926 50.0762 46.0247C47.6861 44.7567 45.7915 42.9787 44.4361 40.7052C43.0661 38.4316 42.3812 35.852 42.3812 32.9809C42.3812 30.1099 43.0661 27.5303 44.4361 25.2567C45.8061 22.9832 47.6861 21.2052 50.0762 19.9372C52.4664 18.6693 55.1771 18.028 58.1939 18.028C60.8173 18.028 63.1928 18.4944 65.3061 19.4271C67.4193 20.3599 69.1682 21.7007 70.5673 23.4496L65.3789 28.1278C63.5135 25.8834 61.2545 24.7612 58.602 24.7612C57.0426 24.7612 55.6581 25.111 54.4339 25.7814C53.2096 26.4664 52.2769 27.4283 51.6065 28.6816C50.9361 29.935 50.6009 31.3632 50.6009 32.9664C50.6009 34.5841 50.9361 36.0123 51.6065 37.2511C52.2769 38.5045 53.2242 39.4664 54.4339 40.1513C55.6581 40.8363 57.0426 41.1715 58.602 41.1715C61.2545 41.1715 63.5135 40.0493 65.3789 37.8049L66.4137 38.7377C66.9092 38.2859 67.5942 37.7175 68.6143 37.0179C69.2265 36.5807 69.9552 36.3621 70.713 36.3621C71.5729 36.3621 72.4036 36.6682 73.0594 37.2074L74.167 38.1401V18.611H82.2993V37.2074C83.9025 34.759 85.7534 31.9608 87.7063 29.1771C88.9305 27.4137 90.0964 25.8105 91.1895 24.3386L80.259 0L0 4.22646L13.5975 41.361V18.611H26.7433C29.3374 18.611 31.5964 19.0482 33.5202 19.9081C35.4294 20.7679 36.9159 22.0067 37.9507 23.6099C38.9854 25.213 39.5101 27.0931 39.5101 29.25C39.5101 31.4069 38.9854 33.287 37.9507 34.8756C36.9159 36.4641 35.4294 37.6883 33.5202 38.5482C31.5964 39.4081 29.3374 39.8453 26.7433 39.8453H21.7298V47.3655H15.7982L22.2545 65L68.3666 50.426C67.2152 48.9832 66.0785 47.5258 65.3643 46.5056ZM78.2332 7.60762C80.4484 7.60762 82.2556 9.40022 82.2556 11.63C82.2556 13.8599 80.463 15.6525 78.2332 15.6525C76.0179 15.6525 74.2108 13.8599 74.2108 11.63C74.2108 9.40022 76.0179 7.60762 78.2332 7.60762Z" fill="#6065CD"/>
    <path d="M94.2791 42.2354L98.6221 40.8655L97.1501 37.5863C96.1882 39.0729 95.2409 40.6177 94.2791 42.2354Z" fill="#6065CD"/>
    <defs>
        <linearGradient id="paint0_linear" x1="115.099" y1="18.6745" x2="55.1944" y2="63.2754" gradientUnits="userSpaceOnUse">
            <stop stop-color="#BA00FF"/>
            <stop offset="0.2448" stop-color="#B701FF"/>
            <stop offset="0.4234" stop-color="#AE06FE"/>
            <stop offset="0.5809" stop-color="#9E0DFC"/>
            <stop offset="0.7263" stop-color="#8718FA"/>
            <stop offset="0.8631" stop-color="#6A26F7"/>
            <stop offset="0.9922" stop-color="#4737F3"/>
            <stop offset="1" stop-color="#4538F3"/>
        </linearGradient>
    </defs>
</svg>
