<svg width="106" height="26" viewBox="0 0 106 26" fill="none" xmlns="http://www.w3.org/2000/svg">
    <path d="M27.8519 9.21484H38.5829V11.2148H34.3634V22.4578H32.0432V11.2148H27.8425L27.8519 9.21484ZM38.1244 12.869H40.1078V14.7195H40.1453C40.2108 14.4578 40.3324 14.2055 40.5101 13.9625C40.6879 13.7195 40.9031 13.4859 41.1557 13.2896C41.4083 13.084 41.689 12.9251 41.9977 12.7943C42.3064 12.6728 42.6245 12.6074 42.9426 12.6074C43.1859 12.6074 43.3636 12.6167 43.4572 12.6261C43.5507 12.6354 43.6443 12.6541 43.7472 12.6634V14.7008C43.5975 14.6728 43.4478 14.6541 43.2888 14.6354C43.1297 14.6167 42.98 14.6074 42.8303 14.6074C42.4748 14.6074 42.138 14.6821 41.8199 14.8223C41.5018 14.9625 41.2305 15.1775 40.9966 15.4485C40.7627 15.7289 40.5756 16.0653 40.4353 16.4765C40.295 16.8877 40.2295 17.355 40.2295 17.8877V22.4485H38.1151L38.1244 12.869ZM53.4678 22.4578H51.3908V21.1214H51.3534C51.0914 21.6074 50.7078 21.9905 50.1933 22.2803C49.6787 22.57 49.1548 22.7195 48.6215 22.7195C47.3585 22.7195 46.4416 22.4111 45.8803 21.7849C45.319 21.1588 45.0383 20.2148 45.0383 18.9532V12.869H47.1527V18.7476C47.1527 19.5887 47.3117 20.1868 47.6392 20.5326C47.9573 20.8784 48.4157 21.056 48.9958 21.056C49.4448 21.056 49.8097 20.9905 50.1091 20.8504C50.4085 20.7102 50.6517 20.5326 50.8295 20.299C51.0166 20.0747 51.1476 19.7943 51.2318 19.4765C51.316 19.1588 51.3534 18.813 51.3534 18.4391V12.8784H53.4678V22.4578ZM57.0697 19.3831C57.1352 19.9999 57.3691 20.4298 57.7714 20.6821C58.183 20.9251 58.6695 21.056 59.2402 21.056C59.4367 21.056 59.6612 21.0373 59.9138 21.0092C60.1665 20.9812 60.4097 20.9158 60.6249 20.8317C60.8494 20.7476 61.0272 20.6167 61.1769 20.4485C61.3172 20.2803 61.3827 20.0653 61.3733 19.7943C61.364 19.5233 61.2611 19.299 61.0739 19.1307C60.8868 18.9532 60.6529 18.8223 60.3629 18.7102C60.0729 18.6074 59.7454 18.5139 59.3712 18.4391C58.997 18.3644 58.6228 18.2803 58.2392 18.1962C57.8462 18.112 57.4627 17.9999 57.0978 17.8784C56.7329 17.7569 56.4055 17.5887 56.1154 17.3737C55.8254 17.1681 55.5915 16.8971 55.4231 16.57C55.2454 16.2429 55.1611 15.841 55.1611 15.355C55.1611 14.8317 55.2921 14.4018 55.5447 14.0466C55.7973 13.6915 56.1248 13.4111 56.5084 13.1962C56.9013 12.9812 57.3317 12.8317 57.8088 12.7382C58.286 12.6541 58.7444 12.6074 59.1747 12.6074C59.6706 12.6074 60.1477 12.6634 60.5968 12.7662C61.0459 12.8691 61.4575 13.0373 61.8224 13.2803C62.1873 13.5139 62.4867 13.8223 62.7299 14.1962C62.9732 14.57 63.1228 15.0279 63.1883 15.5606H60.9804C60.8775 15.056 60.6529 14.7102 60.2881 14.5419C59.9232 14.3644 59.5022 14.2803 59.0344 14.2803C58.8847 14.2803 58.707 14.2896 58.5011 14.3176C58.2953 14.3457 58.1082 14.3924 57.9211 14.4578C57.7433 14.5233 57.5936 14.6261 57.4627 14.7569C57.341 14.8877 57.2755 15.056 57.2755 15.2709C57.2755 15.5326 57.3691 15.7382 57.5469 15.8971C57.7246 16.056 57.9585 16.1868 58.2485 16.299C58.5386 16.4018 58.866 16.4952 59.2402 16.57C59.6145 16.6448 59.998 16.7289 60.391 16.813C60.7746 16.8971 61.1488 17.0092 61.523 17.1307C61.8972 17.2522 62.2247 17.4205 62.5147 17.6354C62.8048 17.8504 63.0386 18.112 63.2164 18.4298C63.3942 18.7476 63.4877 19.1494 63.4877 19.6167C63.4877 20.1868 63.3567 20.6634 63.0948 21.0653C62.8328 21.4578 62.496 21.7849 62.0844 22.0279C61.6727 22.2709 61.2049 22.4578 60.6997 22.57C60.1945 22.6821 59.6893 22.7382 59.1935 22.7382C58.5853 22.7382 58.024 22.6728 57.5094 22.5326C56.9949 22.3924 56.5458 22.1868 56.1716 21.9158C55.7973 21.6354 55.498 21.2896 55.2828 20.8784C55.0676 20.4672 54.9553 19.9719 54.9366 19.4018H57.0697V19.3831ZM64.0491 12.869H65.6489V9.99055H67.7633V12.869H69.6718V14.4485H67.7633V19.57C67.7633 19.7943 67.7726 19.9812 67.7913 20.1494C67.81 20.3083 67.8568 20.4485 67.9223 20.5606C67.9878 20.6728 68.0907 20.7569 68.2311 20.813C68.3714 20.8691 68.5491 20.8971 68.7924 20.8971C68.9421 20.8971 69.0918 20.8971 69.2415 20.8877C69.3912 20.8784 69.5409 20.8597 69.6905 20.8223V22.4578C69.4566 22.4859 69.2228 22.5046 69.0076 22.5326C68.783 22.5606 68.5585 22.57 68.3246 22.57C67.7633 22.57 67.3142 22.5139 66.9774 22.4111C66.6406 22.3083 66.3693 22.1494 66.1822 21.9438C65.9857 21.7382 65.8641 21.4859 65.7892 21.1775C65.7237 20.8691 65.677 20.5139 65.6676 20.1214V14.4672H64.0678V12.869H64.0491ZM71.1687 12.869H73.1709V14.1681H73.2083C73.5077 13.6074 73.9193 13.2148 74.4526 12.9719C74.9859 12.7289 75.5566 12.6074 76.1834 12.6074C76.9412 12.6074 77.5961 12.7382 78.1574 13.0092C78.7188 13.2709 79.1866 13.6354 79.5608 14.1027C79.935 14.57 80.2063 15.112 80.3935 15.7289C80.5806 16.3457 80.6741 17.0092 80.6741 17.7102C80.6741 18.355 80.5899 18.9812 80.4215 19.5793C80.2531 20.1868 80.0005 20.7195 79.6637 21.1868C79.3269 21.6541 78.8965 22.0186 78.3726 22.299C77.8487 22.5793 77.2406 22.7195 76.5296 22.7195C76.2208 22.7195 75.9121 22.6915 75.6033 22.6354C75.2946 22.5793 74.9952 22.4859 74.7145 22.3644C74.4339 22.2429 74.1626 22.084 73.9287 21.8877C73.6854 21.6915 73.489 21.4672 73.3206 21.2148H73.2831V25.9999H71.1687V12.869ZM78.5597 17.6728C78.5597 17.2429 78.5036 16.8223 78.3913 16.4111C78.2791 15.9999 78.1107 15.6448 77.8861 15.327C77.6616 15.0092 77.3809 14.7569 77.0535 14.57C76.7167 14.3831 76.3331 14.2803 75.9027 14.2803C75.0139 14.2803 74.3403 14.5887 73.8912 15.2055C73.4422 15.8223 73.2176 16.6448 73.2176 17.6728C73.2176 18.1588 73.2738 18.6074 73.3954 19.0186C73.517 19.4298 73.6854 19.7849 73.9287 20.084C74.1626 20.3831 74.4432 20.6167 74.7707 20.7849C75.0981 20.9625 75.4817 21.0466 75.9121 21.0466C76.3986 21.0466 76.8009 20.9438 77.1377 20.7476C77.4745 20.5513 77.7458 20.2896 77.961 19.9812C78.1762 19.6634 78.3352 19.3083 78.4288 18.9064C78.513 18.5046 78.5597 18.0933 78.5597 17.6728ZM82.2927 9.21484H84.407V11.2148H82.2927V9.21484ZM82.2927 12.869H84.407V22.4578H82.2927V12.869ZM86.2969 9.21484H88.4113V22.4578H86.2969V9.21484ZM94.8948 22.7195C94.1276 22.7195 93.4446 22.5887 92.8459 22.3363C92.2471 22.084 91.7419 21.7289 91.3209 21.2896C90.9093 20.841 90.5912 20.3083 90.376 19.6915C90.1608 19.0747 90.0485 18.3924 90.0485 17.6541C90.0485 16.9251 90.1608 16.2522 90.376 15.6354C90.5912 15.0186 90.9093 14.4859 91.3209 14.0373C91.7326 13.5887 92.2471 13.2429 92.8459 12.9905C93.4446 12.7382 94.1276 12.6074 94.8948 12.6074C95.6619 12.6074 96.3449 12.7382 96.9437 12.9905C97.5424 13.2429 98.0476 13.598 98.4687 14.0373C98.8803 14.4859 99.1984 15.0186 99.4136 15.6354C99.6288 16.2522 99.741 16.9251 99.741 17.6541C99.741 18.3924 99.6288 19.0747 99.4136 19.6915C99.1984 20.3083 98.8803 20.841 98.4687 21.2896C98.057 21.7382 97.5424 22.084 96.9437 22.3363C96.3449 22.5887 95.6619 22.7195 94.8948 22.7195ZM94.8948 21.0466C95.3626 21.0466 95.7742 20.9438 96.1204 20.7476C96.4665 20.5513 96.7472 20.2896 96.9717 19.9719C97.1963 19.6541 97.3553 19.2896 97.4676 18.8877C97.5705 18.4859 97.6266 18.0747 97.6266 17.6541C97.6266 17.2429 97.5705 16.841 97.4676 16.4298C97.3647 16.0186 97.1963 15.6634 96.9717 15.3457C96.7472 15.0279 96.4665 14.7756 96.1204 14.5793C95.7742 14.3831 95.3626 14.2803 94.8948 14.2803C94.427 14.2803 94.0153 14.3831 93.6692 14.5793C93.323 14.7756 93.0424 15.0373 92.8178 15.3457C92.5933 15.6634 92.4342 16.0186 92.322 16.4298C92.219 16.841 92.1629 17.2429 92.1629 17.6541C92.1629 18.0747 92.219 18.4859 92.322 18.8877C92.4249 19.2896 92.5933 19.6541 92.8178 19.9719C93.0424 20.2896 93.323 20.5513 93.6692 20.7476C94.0153 20.9532 94.427 21.0466 94.8948 21.0466ZM100.358 12.869H101.958V9.99055H104.073V12.869H105.981V14.4485H104.073V19.57C104.073 19.7943 104.082 19.9812 104.101 20.1494C104.119 20.3083 104.166 20.4485 104.232 20.5606C104.297 20.6728 104.4 20.7569 104.541 20.813C104.681 20.8691 104.859 20.8971 105.102 20.8971C105.252 20.8971 105.401 20.8971 105.551 20.8877C105.701 20.8784 105.85 20.8597 106 20.8223V22.4578C105.766 22.4859 105.532 22.5046 105.317 22.5326C105.092 22.5606 104.868 22.57 104.634 22.57C104.073 22.57 103.624 22.5139 103.287 22.4111C102.95 22.3083 102.679 22.1494 102.492 21.9438C102.295 21.7382 102.174 21.4859 102.099 21.1775C102.033 20.8691 101.986 20.5139 101.977 20.1214V14.4672H100.377V12.869H100.358Z" fill="#233878"/>
    <path d="M25.382 9.21495H15.6895L12.6957 0L9.6925 9.21495L0 9.20561L7.84943 14.9065L4.84625 24.1121L12.6957 18.4206L20.5357 24.1121L17.5419 14.9065L25.382 9.21495Z" fill="#00B67A"/>
    <path d="M18.2157 16.9908L17.5421 14.9067L12.6958 18.4208L18.2157 16.9908Z" fill="#005128"/>
</svg>
