<svg width="34" height="34" viewBox="0 0 34 34" fill="none" xmlns="http://www.w3.org/2000/svg">
    <path d="M15.6678 15.1894C17.4666 15.1894 19.1467 15.4295 19.1467 13.4627C19.1467 11.6437 17.2384 11.9392 15.6678 11.9392V13.1765V15.1894Z" fill="black"/>
    <path d="M15.6678 17.8951V21.7547C17.631 21.7547 20.0599 22.0779 20.1055 19.8249C20.1512 17.4703 17.6127 17.8951 15.6678 17.8951Z" fill="black"/>
    <path d="M17.1104 0.2771C8.07994 0.2771 0.766113 7.67323 0.766113 16.8053C0.766113 25.9373 8.07994 33.3335 17.1104 33.3335C26.1408 33.3335 33.4546 25.9373 33.4546 16.8053C33.4546 7.67323 26.1408 0.2771 17.1104 0.2771ZM18.4982 24.6077H11.851L11.8784 9.09521H18.8452C21.1371 9.09521 23.0911 10.2309 23.0911 12.5301C23.0911 14.4507 22.4063 15.1894 20.991 16.0389C21.1097 16.1405 21.9223 16.3805 22.1871 16.519C22.6254 16.7314 22.8811 16.953 23.1641 17.2485C23.9676 18.0703 24.1137 18.8274 24.1137 20.1109C24.1137 23.1026 21.2558 24.6077 18.4982 24.6077Z" fill="black"/>
</svg>
